<?xml version="1.0" encoding="UTF-8"?>
<svg id="_레이어_1" data-name="레이어 1" xmlns="http://www.w3.org/2000/svg" viewBox="0 0 1000 1000">
  <path d="M575.42,458.65s13.89-12.42,21.41-21.05c7.62-7.38,34.58-8.03,34.58-8.03l11.75,13.13c5.57-39.89,28.37-61.96,47.68-86.39,19.94-24.35,69.85-72.73,69.85-72.73l-4.41-10.93,14.42,1.7,56.98-91.19.13-.13-.07.05.04-.07-.11.11-92.93,55.94,1.74,14.14-10.52-4.34s-49.92,48.99-74.76,68.56c-24.07,19.53-47.36,41.3-88.02,46.77l13.39,13.49s-.65,24.85-8.19,31.99c-7.58,7.38-21.43,21.25-21.43,21.25l3.24,3.14-14.23-3.92-.86,8.96,3.42,7.01.59.57-6.45,6.33c.25-59.01,5.07-189.92,5.07-222.12-.04-60.23-37.76-105.86-37.76-105.86,0,0-37.67,45.64-37.67,105.33,0,33.31,5.2,167.15,5.84,225.54-9.23-8.78-23.6-22.42-25.64-24.41.68.36,4.8-5.23.09-10.68-4.73-4.62-11.86-3.55-11.86-3.55,0,0-34.14-34.15-39.15-38.44-4.39-4.3-8.28-18.73-9.3-22.31-1.02-3.67.56-13.91,4.46-17.52,2.26-3.62,9-10.25,13.37-14.53,4.39-4.26,2.37-9.59-1.04-11.41-3.35-4.77-49.8-50.33-52.81-53.29-3.03-2.97-11.79-.99-19.19.3-7.4,1.34-12.11,7.94-16.5,12.87,1.7,4.1,3.06,6.31,3.06,6.31,0,0-5.05,6.93-8.44,8.26-3.35,3.37-7.08.22-7.08.22l-.66-4.53,1.68-2.96s-5.73-2.99-9.77-8.28c-4.03-3.96-12.11.66-19.51,7.94-7.4,7.26-11.11,16.86-9.07,18.85,2.01,1.97,9.07,8.91,9.07,8.91l4.41-.3,3.01-.36s-.65,11.25-1.42,13.22c-3.3,2.8-7.33,5.97-15.73,14.19-8.4,8.24-39.35,24.76-51.82,29.03-12.45,4.3-32.65,5.63-55.51,1.65,6.04,29.73,22.86,69.36,82.25,116.81,56.35,45.42,115.59,44.33,115.59,44.33,0,0,2.19-46.71,1.68-47.23-15.63-6.41-19.67-13.87-24.5-21.05-4.78-7.17-5.29-21.05-5.27-26.97-.02-5.95,8.55-19.35,11.34-23.53,2.76-4.21,11.36-9.16,16.14-10.89,5.32-1.76,18.17,2.45,18.17,2.45l4.26-1.25-.29.29.77,1.77s35.57,34.94,36.61,35.91c-.29,3.58-.09,8.98,3.94,12.96,4.05,3.96,10.16,1.9,10.16,1.9l34.31,35.21,2.87,6.68,5.93,6.43c-.14,6.33-.3,12.74-.5,20.7l-177.63,172.79-3.31-3.26-6.61-.57-8.8,2.58,4.3,8.73.61-.07-16.57,17.4-.25-1.74-10.09-2.69-2.17,9.1,2.67,6.92,3.39,3.32-12.83-10.57s-1.4,17.95-9.94,29.4c-8.58,11.47-46.03,62.32-46.03,62.32l1.29,1.22,1.25,1.18s51.79-36.7,63.47-45.1c11.68-8.4,29.96-9.8,29.96-9.8l-10.79-12.58,3.39,3.32,7.11,2.63,9.26-2.13-2.35-9.89-.65-.25,16.2-15.93.25.25,8.55,4.18,2.6-8.64-.09-6.4-3.37-3.21,155.86-153.49c-1.29,35.43-2.63,104.22-2.63,104.22l12.78,12.56v16.29h-49.4c0-5.39.07-9.3.07-9.3-11.63.02-20.09,9.01-20.07,18.51,0,10.21,8.44,18.49,20.07,18.51,0,0-.07-3.73-.07-9.21h56.09l3.76,122.8c-7.96,4-13.3,11.11-13.31,19.32,0,12.53,12.47,22.7,27.79,22.7s27.77-10.16,27.77-22.7c0-8.19-5.36-15.3-13.3-19.3l3.73-122.87h57.23v9.26c10.41,0,18.83-8.28,18.83-18.49s-8.44-18.55-18.83-18.53v9.26h-49.94v-16.27l12.17-12.53s-1.31-67.84-2.6-102.48l146.77,144.03-.54,4.34,2.53,2.15,4.3,1.7,3.28,2.15,48.22,46.39-.05,3.48s2.04,1.99,3.06,2.99c1.02.99,4.78,1.29,4.78,1.29l.81.68s-.79,2.24.72,5.43c1.51,1.77,1.99,6.29,4.75,8.98,2.78,2.74,8.4,1.18,8.4,1.18,0,0,.25.27,3.05,1.04,2.78,1.77,6.86-.82,13.8-7.62,6.92-6.81,7.22-8.53,6.43-10.54,0-2.01-.68-10.98-2.45-12.7-1.76-1.76-4.55-2.45-8.37-3.71-3.82-1.22-6.61-1.95-6.61-1.95l-2.26-2.2v-2.99l-3.01-2.99-3.55.05-46.64-46.34-1.06-1.99-1.45-5.97-4.03-3.96-3.58,1.02-168.65-165.52c.61-9.1-.5-18.17-.68-26.95l26.04-24.32.59-.65,8.33,3.37,7.94-.82-4.03-14.21,3.51,3.42-.04.04Z"/>
</svg>