<?xml version="1.0" encoding="UTF-8"?>
<svg id="_레이어_1" data-name="레이어_1" xmlns="http://www.w3.org/2000/svg" version="1.1" viewBox="0 0 841.83 841.83">
  <!-- Generator: Adobe Illustrator 30.6.0, SVG Export Plug-In . SVG Version: 2.1.4 Build 109)  -->
  <defs>
    <style>
      .st0 {
        fill: none;
      }

      .st1 {
        display: none;
      }
    </style>
  </defs>
  <path class="st1" d="M439.92,250.17c-76.67,0-153,.33-229,1l-12-1c-8,0-13.67.33-17,1-4.67,1.33-8.17,4.83-10.5,10.5s-3.5,14.83-3.5,27.5c-1.33,40-1,97,1,171,0,8,2.83,14.5,8.5,19.5,5.67,5,12.67,7.33,21,7s15.33-3,21-8,8.5-11.5,8.5-19.5c1.33-19.33,2.33-48.67,3-88v-1c0-18.67,1.5-32,4.5-40s7.5-13,13.5-15c3.33-.67,10.33-.67,21,0h3c32,2,64,2.67,96,2,11.33-.67,19.67.33,25,3,7.33,2.67,12.67,8.5,16,17.5s5,22.83,5,41.5c0,14,.5,35.17,1.5,63.5,1,28.33,1.5,49.5,1.5,63.5v50c.67,28,.33,45.67-1,53-2,10-7.67,16-17,18-6,2-21.33,2.67-46,2-22-1.33-40.33-2-55-2h-16c-20.67.67-33.67.33-39-1-7.33-2-12-6.33-14-13-.67-4.67-1-15.67-1-33l1-33c0-1.33-1.67-3.33-5-6l-6-7c-83.33,52-136.67,122.67-160,212,36-36.67,67.33-66,94-88l7-6c7.33-8,12.33-12.33,15-13,5.33-.67,6.33,6.67,3,22-2.67,14,4,23.33,20,28,9.33,2.67,24.67,4,46,4h9c28,.67,70.33.67,127,0h32c22-.67,37.67-2.5,47-5.5s15.67-9.17,19-18.5,5.33-24.33,6-45c.67-62.67,1.67-156,3-280v-7c0-11.33-1-26-3-44-2.67-29.33-17.33-43.67-44-43ZM605.92,272.17c-4.67-6-7.33-14-8-24-.67-6-.33-15,1-27,.67-8,1-14,1-18-1.33-22.67-3.33-37.67-6-45-2.67-9.33-9-15.33-19-18-7.33-2-23-3-47-3l-144,1h-53c-10.67.67-18.67,3.67-24,9s-8,13-8,23c.67,17.33,10.33,26.67,29,28,8,.67,19.67,1.33,35,2l137,3c14,0,24.33,3.67,31,11s9.67,18.33,9,33c-.67,34-.67,85.33,0,154v126c0,8,1,14,3,18,3.33,5.33,8.67,8.33,16,9,18.67,2.67,30.67-4,36-20,2.67-10,4-20.33,4-31l1-19c.67-26,0-45.33-2-58,2.67-32,7-56,13-72,7.33-18.67,20.33-34.33,39-47,12.67-8,32.33-19.33,59-34,32-17.33,56.67-32,74-44-33.33-7.33-66.33-6.67-99,2-30.67,8-56.67,21.67-78,41Z"/>
  <g>
    <g>
      <line class="st0" x1="501.62" y1="370.63" x2="501.63" y2="370.63"/>
      <path d="M505.56,374.47s15.58-13.94,24.04-23.63c8.54-8.3,38.82-9.01,38.82-9.01l13.2,14.74c6.25-44.78,31.84-69.55,53.51-96.97,22.38-27.34,78.39-81.64,78.39-81.64l-4.94-12.26,16.18,1.91,63.97-102.36.14-.14-.08.06.04-.08-.12.12-104.31,62.79,1.94,15.88-11.8-4.87s-56.03,54.98-83.91,76.95c-27.02,21.93-53.16,46.36-98.79,52.49l15.02,15.16s-.72,27.9-9.2,35.91c-8.52,8.3-24.06,23.86-24.06,23.86l3.63,3.52-15.98-4.4-.97,10.05,3.84,7.86.66.65-7.23,7.1c.28-66.24,5.7-213.17,5.7-249.33-.05-67.6-42.38-118.83-42.38-118.83,0,0-42.28,51.23-42.28,118.23,0,37.39,5.84,187.61,6.56,253.16-10.36-9.86-26.49-25.17-28.78-27.4.77.4,5.39-5.88.1-11.99-5.31-5.19-13.31-3.98-13.31-3.98,0,0-38.32-38.33-43.94-43.14-4.92-4.83-9.3-21.01-10.44-25.05-1.14-4.12.63-15.6,5.01-19.67,2.53-4.06,10.09-11.5,15.01-16.31,4.92-4.79,2.65-10.77-1.16-12.81-3.76-5.34-55.89-56.49-59.28-59.82-3.39-3.35-13.23-1.11-21.53.35-8.31,1.5-13.6,8.9-18.52,14.44,1.9,4.61,3.43,7.08,3.43,7.08,0,0-5.66,7.78-9.46,9.27-3.76,3.79-7.94.25-7.94.25l-.75-5.1,1.89-3.33s-6.43-3.37-10.96-9.29c-4.53-4.44-13.6.75-21.91,8.9-8.31,8.15-12.46,18.92-10.19,21.15,2.25,2.21,10.19,10,10.19,10l4.94-.34,3.37-.4s-.72,12.64-1.59,14.85c-3.7,3.15-8.22,6.69-17.67,15.94-9.42,9.25-44.17,27.79-58.16,32.59-13.97,4.83-36.64,6.31-62.31,1.84,6.78,33.36,25.67,77.86,92.33,131.13,63.26,50.98,129.75,49.76,129.75,49.76,0,0,2.46-52.43,1.88-53.02-17.55-7.2-22.09-15.58-27.49-23.63-5.37-8.05-5.93-23.63-5.91-30.28-.02-6.67,9.59-21.72,12.73-26.41,3.1-4.73,12.75-10.28,18.13-12.23,5.97-1.97,20.4,2.76,20.4,2.76l4.79-1.4-.33.32.87,1.99s39.93,39.22,41.09,40.3c-.33,4.02-.1,10.08,4.42,14.54,4.55,4.44,11.41,2.13,11.41,2.13l38.52,39.53,3.22,7.5,6.66,7.22c-.17,7.1-.35,14.3-.57,23.23l-199.37,193.96-3.73-3.67-7.42-.65-9.88,2.9,4.84,9.79.68-.08-18.6,19.52-.29-1.94-11.32-3.02-2.44,10.22,3,7.77,3.79,3.71-14.39-11.86s-1.57,20.16-11.16,33c-9.63,12.88-51.67,69.95-51.67,69.95l1.45,1.38,1.41,1.34s58.12-41.19,71.24-50.62c13.12-9.43,33.63-10.99,33.63-10.99l-12.1-14.11,3.79,3.71,7.98,2.96,10.39-2.4-2.63-11.09-.73-.28,18.18-17.89.29.28,9.59,4.68,2.91-9.69-.1-7.18-3.78-3.6,174.95-172.28c-1.45,39.77-2.96,116.98-2.96,116.98l14.35,14.09v18.29h-55.45c0-6.05.08-10.44.08-10.44-13.05.02-22.54,10.12-22.52,20.77-.02,11.46,9.47,20.75,22.52,20.77,0,0-.08-4.17-.08-10.35l62.95-.02,4.23,137.85c-8.93,4.48-14.93,12.48-14.94,21.68.02,14.05,13.99,25.49,31.19,25.49s31.17-11.4,31.17-25.47c0-9.19-6.01-17.18-14.92-21.66l4.19-137.91,64.23-.02c0,6.23,0,10.43,0,10.43,11.68.02,21.14-9.29,21.14-20.75s-9.47-20.81-21.14-20.79c0,0,0,4.34,0,10.4h-56.05v-18.27l13.66-14.05s-1.47-76.16-2.91-115.02l164.74,161.66-.6,4.86,2.83,2.42,4.84,1.91,3.68,2.41,54.13,52.07-.06,3.89s2.3,2.23,3.43,3.35c1.14,1.11,5.36,1.44,5.36,1.44l.9.77s-.89,2.52.81,6.09c1.7,1.99,2.23,7.06,5.33,10.08,3.12,3.08,9.43,1.32,9.43,1.32,0,0,.29.3,3.41,1.16,3.12,1.99,7.71-.92,15.48-8.54,7.77-7.64,8.11-9.57,7.23-11.82,0-2.25-.76-12.33-2.75-14.26-1.96-1.97-5.11-2.76-9.38-4.16-4.28-1.36-7.42-2.19-7.42-2.19l-2.54-2.47.02-3.37-3.39-3.37-3.99.06-52.36-52-1.19-2.23-1.63-6.69-4.53-4.44-4.03,1.14-189.31-185.78c.68-10.22-.57-20.4-.77-30.26l29.22-27.29.66-.73,9.34,3.79,8.91-.93-4.53-15.95"/>
    </g>
    <rect class="st0" y=".87" width="841.83" height="840.09"/>
  </g>
</svg>