<?xml version="1.0" encoding="UTF-8"?>
<svg id="_레이어_1" data-name="레이어_1" xmlns="http://www.w3.org/2000/svg" version="1.1" viewBox="0 0 1000 1000">
  <!-- Generator: Adobe Illustrator 30.6.0, SVG Export Plug-In . SVG Version: 2.1.4 Build 109)  -->
  <defs>
    <style>
      .st0 {
        fill: #fff;
      }
    </style>
  </defs>
  <path class="st0" d="M323,527c48.67-14.67,82.33-32,101-52,20-22,29-52.67,27-92-24,6.67-61,21-111,43-33.33,14-58.33,24-75,30-28,10.67-53,18.33-75,23,13.33-15.33,32-31.33,56-48,14-10,36-24.33,66-43,43.33-26.67,73.67-47.33,91-62-30.67-20.67-54.67-38.33-72-53-23.33-20-42.33-40.33-57-61,26-1.33,52.33,2.67,79,12,16,5.33,39,16.33,69,33l29,15c6.67-13.33,12-29,16-47,2.67-10.67,5.5-27.17,8.5-49.5s5.5-38.83,7.5-49.5c4-18,9-33.67,15-47,7.33,16,13.33,34.33,18,55,3.33,12.67,7,31.67,11,57,6,36,11.33,62,16,78,12.67-4.67,30.67-12,54-22,26.67-11.33,46.67-19,60-23,23.33-7.33,45.67-11.67,67-13-14,22.67-32.67,43.33-56,62-18.67,16-43.33,33-74,51,17.33,14.67,48,36,92,64,30,18.67,52,33,66,43,24,17.33,43.33,33.33,58,48-25.33-4.67-55.67-13.67-91-27-20.67-8-52-21-94-39s-71.33-29.67-88-35c-3.33,36,7.17,67.33,31.5,94s60.5,45.67,108.5,57c-8.67,12-23.33,30.67-44,56-24.67,28.67-42,50.67-52,66-17.33,25.33-28.33,49-33,71l-2,9c-9.33,42-16.67,73.67-22,95-9.33,34.67-19,66.33-29,95l-13-62c-12.67-60-22.67-105-30-135-6-25.33-19.67-54-41-86-12.67-18.67-34-46-64-82l-24-29ZM498,479c-8,4-15.67,9-23,15-4,4-9.33,10-16,18-6,6.67-10.67,11.67-14,15-10,10-11.33,20.67-4,32,6.67,9.33,17.33,25.67,32,49l19,29c21.33-24,36.33-43.17,45-57.5s12.83-26.5,12.5-36.5-5.17-20.33-14.5-31c-6-6.67-18.33-17.67-37-33Z"/>
</svg>