<?xml version="1.0" encoding="UTF-8"?>
<svg id="_레이어_1" data-name="레이어_1" xmlns="http://www.w3.org/2000/svg" version="1.1" viewBox="0 0 1000 1000">
  <!-- Generator: Adobe Illustrator 30.6.0, SVG Export Plug-In . SVG Version: 2.1.4 Build 109)  -->
  <defs>
    <style>
      .st0 {
        fill: #fff;
      }
    </style>
  </defs>
  <path class="st0" d="M872,223c-12,22-30.67,54-56,96-32.67,54.67-53.67,92-63,112-2.67,6.67-4,16-4,28,.67,7.33.67,13.33,0,18-1.33,20.67-4.83,36.5-10.5,47.5s-11.5,13.17-17.5,6.5l-10-11c-17.33-20.67-30.67-34.67-40-42-16-11.33-34.67-19-56-23-14-2-20.67-6.5-20-13.5s6.5-14.67,17.5-23,23.83-15.5,38.5-21.5c2.67-1.33,6-2.67,10-4,8.67-2,17-5.33,25-10,10-8,22-20,36-36,8-10,21-26.33,39-49,34.67-44,61.33-75,80-93,10.67-7.33,19.17-9.33,25.5-6s8.17,11.33,5.5,24ZM563,373c-12,0-22.5-3.17-31.5-9.5s-13.5-14-13.5-23,4.5-16.67,13.5-23,19.67-9.5,32-9.5,23,3.17,32,9.5,13.5,14,13.5,23-4.5,16.67-13.5,23-19.83,9.5-32.5,9.5ZM428,460c-17.33,0-32.33-4.5-45-13.5s-19-19.83-19-32.5,6.33-23.5,19-32.5,27.83-13.5,45.5-13.5,32.83,4.5,45.5,13.5,19,19.83,19,32.5-6.33,23.5-19,32.5-28,13.5-46,13.5ZM469,268c-42.67,20.67-81.33,47-116,79-38.67,35.33-66.67,72-84,110-19.33,43.33-23.67,85.33-13,126,4,13.33,9.67,26,17,38,4.67,7.33,11.67,16.33,21,27,10.67,12.67,17.67,22.67,21,30,4.67,11.33,5.33,25,2,41-9.33,24-23.33,35.67-42,35-46.67,0-81.67-37-105-111-16.67-52.67-15-105.67,5-159,18.67-52,52-98.67,100-140s105-71.67,171-91c8-1.33,15.17-1.5,21.5-.5s9.67,3,10,6-2.5,6.17-8.5,9.5ZM364,584c-16.67,0-30.67-4.17-42-12.5s-17-18.17-17-29.5,5.67-21.17,17-29.5c11.33-8.33,25.17-12.5,41.5-12.5s30.33,4.17,42,12.5c11.67,8.33,17.5,18.17,17.5,29.5s-5.83,21.17-17.5,29.5-25.5,12.5-41.5,12.5ZM422,695c4-11.33,9-27,15-47,8.67-28.67,15.67-49.33,21-62,9.33-20.67,21.33-38.67,36-54,16.67-18.67,39.67-36.33,69-53,18-4,37.33-2,58,6,18.67,7.33,35.5,18.67,50.5,34,15,15.33,25.5,31.33,31.5,48-4.67,56.67-26,104-64,142-35.33,34.67-79.5,57.33-132.5,68s-105.83,7.67-158.5-9c.67-8,4.33-15.33,11-22,4-3.33,11.5-8,22.5-14s19.17-10.67,24.5-14c8-6.67,13.33-14.33,16-23ZM482,717c12,3.33,28.33,3,49-1,18.67-5.33,37-14.33,55-27,20-14.67,35-31,45-49,11.33-21.33,13.67-42.33,7-63-3.33-8-9.17-15.67-17.5-23s-17.83-12.33-28.5-15c-12.67-2.67-22.33-1-29,5-55.33,47.33-82.33,105-81,173Z"/>
</svg>