<?xml version="1.0" encoding="UTF-8"?>
<svg id="_레이어_1" data-name="레이어_1" xmlns="http://www.w3.org/2000/svg" version="1.1" viewBox="0 0 1000 1000">
  <!-- Generator: Adobe Illustrator 30.6.0, SVG Export Plug-In . SVG Version: 2.1.4 Build 109)  -->
  <defs>
    <style>
      .st0 {
        fill: #fff;
      }
    </style>
  </defs>
  <path class="st0" d="M693,554c-3.33-1.33-7.17-3.5-11.5-6.5s-8.5-4.83-12.5-5.5c-5.33-2-13-3-23-3-23.33,0-44.67,6.17-64,18.5s-34.5,28.83-45.5,49.5-16.5,43-16.5,67c0,36.67,10.67,66.17,32,88.5s50.33,36.5,87,42.5c7.33.67,13.83,4.67,19.5,12s7.83,16.33,6.5,27-8.67,17-22,19c-10,.67-22.67-1-38-5-45.33-8.67-81-28.67-107-60-28-33.33-42-76.33-42-129,0-32.67,7.33-63.17,22-91.5s35.33-51.83,62-70.5l2-1c16.67-9.33,26-26.33,28-51,4.67-86.67,11.67-178.33,21-275l3-27c2-22,3.67-36.33,5-43,2-10.67,5.33-16,10-16,4,0,7.33,5,10,15,1.33,7.33,3,22,5,44l2,27c7.33,70,13.67,145.67,19,227,2,22,6,41.67,12,59,5.33,16,10.33,26,15,30,6.67,2.67,16.33,7.67,29,15,11.33,6.67,19.33,11,24,13,8,3.33,14.33,4.67,19,4,4,.67,5.33,3,4,7s-4.83,8.17-10.5,12.5-12.5,7.33-20.5,9-16,.83-24-2.5ZM331,467c2-2,7.33-.33,16,5,5.33,2.67,14.33,8.67,27,18l21,15c8.67,5.33,18,9.67,28,13l6,2c8.67,0,16.33,2.17,23,6.5s8.33,8.5,5,12.5c-22,26.67-36.17,60.67-42.5,102s.5,82.67,20.5,124c10.67,21.33,25,42.67,43,64l1,2c0,5.33-3.83,7-11.5,5s-16-6-25-12-14.83-11-17.5-15c-7.33-6-15-14.67-23-26-4.67-4-10.33-4.33-17-1l-21,14c-12.67,9.33-21.67,15.33-27,18-8.67,5.33-14,7-16,5-2-2.67-.33-8.33,5-17,2.67-5.33,9-14.67,19-28l14-20,4-7c2-4,3.17-9,3.5-15s.17-11-.5-15c-2-7.33-3.67-15-5-23v-1c-2-14.67-7-23-15-25l-8-2-27-5c-20-3.33-33.67-6.33-41-9-12-3.33-18.33-7-19-11,.67-4,7-7.67,19-11,7.33-2.67,21-5.67,41-9l27-5,10-3c4.67-1.33,9.5-4.17,14.5-8.5s8.5-8.83,10.5-13.5c2-7.33,5-14.33,9-21,.67-2,1-3.67,1-5-1.33-10-6.33-21-15-33l-14-21c-9.33-13.33-15.67-22.67-19-28-4.67-8.67-6-14-4-16ZM571,671c0-12.67,3.67-24.33,11-35s17-18.5,29-23.5,24.33-6.33,37-4,23.5,8.17,32.5,17.5,14.83,20.33,17.5,33,1.5,25-3.5,37-12.83,21.67-23.5,29-22.67,11-36,11c-18,0-33.17-6.33-45.5-19s-18.5-28-18.5-46Z"/>
</svg>