<?xml version="1.0" encoding="UTF-8"?>
<svg id="_레이어_1" data-name="레이어_1" xmlns="http://www.w3.org/2000/svg" version="1.1" viewBox="0 0 1000 1000">
  <!-- Generator: Adobe Illustrator 30.6.0, SVG Export Plug-In . SVG Version: 2.1.4 Build 109)  -->
  <defs>
    <style>
      .st0 {
        fill: #fff;
      }
    </style>
  </defs>
  <path class="st0" d="M875,500l-2-26c-2-20.67-6-41.67-12-63-7.33-29.33-17.67-56.67-31-82-11.33-20.67-26.5-41.33-45.5-62-19-20.67-38-37-57-49s-33.33-16.67-43-14-17.17,6.67-22.5,12c-7.33,7.33-12.67,18-16,32l-4,22c-2.67,14-5.67,24.67-9,32-4.67,11.33-13,24-25,38-14.67,16.67-37,27.67-67,33-15.33,2-29,2.67-41,2-13.33.67-27.67,0-43-2-29.33-5.33-51-16.33-65-33-12-14-20.33-26.67-25-38-3.33-7.33-6.33-18-9-32l-4-22c-3.33-14-8.67-24.33-16-31-5.33-6-12.83-10.33-22.5-13s-24,2-43,14-38,28.33-57,49c-19,20.67-34.17,41.33-45.5,62-13.33,25.33-23.67,52.67-31,82-6,21.33-10,42.67-12,64l-2,25c.67,16,3,35,7,57,7.33,42,20.33,80,39,114,10.67,20.67,25.67,41.33,45,62s38.33,37,57,49c18.67,12,32.83,16.67,42.5,14s17.5-6.67,23.5-12c6.67-7.33,11.67-18,15-32l5-22c2.67-14,5.33-24.67,8-32,5.33-11.33,13.67-24,25-38,10.67-12,25.33-21,44-27,13.33-4.67,28-7.33,44-8h20c14-1.33,28.33-.67,43,2,29.33,5.33,51,16.33,65,33,12,14,20.33,26.67,25,38,3.33,7.33,6.33,18,9,32l4,22c3.33,14,8.67,24.33,16,31,5.33,6,12.83,10.33,22.5,13s24-2.17,43-14.5,38-28.67,57-49,34.17-41.17,45.5-62.5c13.33-24.67,23.67-51.67,31-81,6-21.33,10-42.67,12-64l2-25ZM760,627c-6,12-13.33,23.67-22,35-6,8-12,15.33-18,22l-8,7-3-11c-3.33-10-7.33-19.67-12-29-6.67-12.67-14.33-24.33-23-35-10.67-12.67-22.67-23.33-36-32-16-10.67-33-19-51-25-14.67-4.67-29.33-8.33-44-11-10.67-1.33-21-2-31-2l-12,1c-12-1.33-27-.67-45,2-33.33,5.33-64,17-92,35-24.67,15.33-44.33,38-59,68-8,14.67-13.33,28-16,40l-7-8c-6.67-6.67-13-14-19-22-8-11.33-15.33-23-22-35-8.67-17.33-15.33-36.67-20-58-3.33-16-5.33-32.33-6-49l-1-20c-.67-12.67,0-27.33,2-44,4-32,12.33-59.67,25-83,6-12,13.33-23.67,22-35,6-8,12-15.33,18-22l8-7,3,11c3.33,10,7.33,19.33,12,28,6.67,13.33,14.33,25.33,23,36,10.67,12.67,22.67,23.33,36,32,29.33,18.67,61,30.33,95,35,17.33,2.67,31.67,3.33,43,2,12.67,1.33,27.33.67,44-2,34-5.33,65.33-17,94-35,13.33-8.67,25.33-19.67,36-33,8.67-10,16.33-21.67,23-35,4.67-9.33,8.67-18.67,12-28l3-12,8,8c6,6.67,12,14,18,22,8.67,11.33,16,23,22,35,12.67,23.33,21,50.67,25,82,2,16.67,2.67,31.67,2,45v1c.67,14.67-.33,30-3,46-4,30.67-12,57.33-24,80Z"/>
</svg>