<?xml version="1.0" encoding="UTF-8"?>
<svg id="_레이어_1" data-name="레이어_1" xmlns="http://www.w3.org/2000/svg" version="1.1" viewBox="0 0 1000 1000">
  <!-- Generator: Adobe Illustrator 30.6.0, SVG Export Plug-In . SVG Version: 2.1.4 Build 109)  -->
  <defs>
    <style>
      .st0 {
        fill: #fff;
      }
    </style>
  </defs>
  <path class="st0" d="M228,513c7.33,0,13.33,1,18,3,6.67,2.67,13.33,7.17,20,13.5s12,13.5,16,21.5c1.33,2.67,2.33,4,3,4l1-2c6-7.33,16.67-11.33,32-12,18-.67,36,5,54,17,5.33,4,12.33,12,21,24,4,6,6.33,8.83,7,8.5s.33-3-1-8-3.33-10.17-6-15.5l-2-3c-2.67-5.33-5-9.67-7-13-4.67-6-10.5-11.5-17.5-16.5s-14.83-8.83-23.5-11.5c-5.33-1.33-9.67-2.67-13-4-4.67-2.67-9.67-6.67-15-12-16.67-16.67-23.33-30.67-20-42,1.33-3.33,5.33-6.67,12-10-4-2-8-3-12-3-8.67,0-16.67-1.67-24-5-6-2-11.83-8.17-17.5-18.5-5.67-10.33-9.17-20.83-10.5-31.5-.67-4-.83-10.33-.5-19s.5-15,.5-19c-1.33-8-3.67-15-7-21-12.67-18-27.67-34-45-48-6.67-5.33-13.67-9.33-21-12,2,4.67,5,8.83,9,12.5s7.67,9.5,11,17.5c5.33,12,8,24.33,8,37,0,6.67-3,16.5-9,29.5s-9,22.83-9,29.5,2.33,13.67,7,21c2.67,4,7.33,9.33,14,16,5.33,6,8.83,10.33,10.5,13s2.5,6.17,2.5,10.5-.67,7-2,8-4.5.5-9.5-1.5-11.17-5.33-18.5-10c-3.33-2.67-8.17-7.17-14.5-13.5s-11.5-10.83-15.5-13.5c-6-4.67-13-7.67-21-9,.67,2.67,2,4.67,4,6v1c14.67,13.33,24,25.67,28,37,1.33,4,2,10.17,2,18.5s1,13.83,3,16.5c2.67,4,7.67,9.5,15,16.5s12,10.5,14,10.5l1-2c5.33-10.67,14.67-16,28-16ZM326,264c6,8.67,13,21.33,21,38s13.17,29.5,15.5,38.5,3.5,20.17,3.5,33.5c.67,11.33.33,18.67-1,22-.67,5.33-2.33,10.33-5,15,0-9.33-3.33-20.67-10-34-4-8.67-13-18.67-27-30l-6-5c-3.33-2.67-7-4.67-11-6l-5-1,11,15c6.67,8.67,11.33,16.67,14,24,5.33,12.67,8,27.33,8,44,0,7.33-3,17-9,29l-4,7c-.67,3.33-.17,8.67,1.5,16s4,13,7,17,7.67,7.83,14,11.5,13.17,6.33,20.5,8,16,5.5,26,11.5,19.33,13.5,28,22.5,17.33,18.67,26,29,14.5,18.17,17.5,23.5,5.17,10.67,6.5,16l3-4c1.33-4.67,1-9.67-1-15v-1c-10-34.67-23.33-63-40-85-10-12.67-18-26-24-40-5.33-12-8.33-23-9-33-1.33-13.33,2.33-26.83,11-40.5s12.67-24.33,12-32-2-14.83-4-21.5l3,2c2.67,2.67,4.67,6,6,10,1.33,4.67,2,10.33,2,17,0,2.67-1.33,8.33-4,17-4.67,16.67-6.17,29.5-4.5,38.5s10.17,22.83,25.5,41.5c4.67,6,7.67,9.67,9,11,4,6.67,6.67,14.33,8,23,1.33-3.33,2-6.67,2-10,0-2,.83-6.83,2.5-14.5s3.67-13.67,6-18,6.33-9.33,12-15,9.83-8.67,12.5-9,5.33.83,8,3.5c2-12,2.33-24,1-36-1.33-16-14.33-35.67-39-59-13.33-12-24-27.33-32-46-8.67-20-13.33-41.67-14-65-1.33-28.67,12.33-57,41-85l3-3,13-15-13,7c-11.33,6.67-22.67,15-34,25-14.67,13.33-29.67,31.67-45,55-6,9.33-9.67,19-11,29-2,8.67-2,15.67,0,21,.67,2,2.5,6.5,5.5,13.5s4.83,11.17,5.5,12.5c.67,4.67,1,9,1,13l-5-10c-4-7.33-7.67-13-11-17-6.67-6.67-14-12.67-22-18-5.33-4-14.33-9.33-27-16-8-4.67-15.67-8-23-10l-8-3,12,12c10,8.67,18,17,24,25ZM513,501c.67,4.67-.83,9.17-4.5,13.5-3.67,4.33-7.17,6.5-10.5,6.5s-6.33-1.67-9-5c-1.33-2-2.33-4-3-6-1.33.67-3.33,3.67-6,9s-4,11.67-4,19c0,12,4.67,24.33,14,37l18,25,1-4c.67-2.67.67-4.83,0-6.5s-1.67-3.5-3-5.5c-2.67-4-4-8.33-4-13-.67-10,2-19,8-27,2-3.33,4.5-6,7.5-8s5.67-2.33,8-1,2.83,4.67,1.5,10l-4,8c4.67-.67,8.33-2.67,11-6,10-10,15.67-21,17-33s-1.33-21.33-8-28c-10.67-10.67-15.33-20-14-28,.67-6,2.67-12.67,6-20,2.67-6.67,5.67-12.33,9-17l4-7c6.67-9.33,10-15.33,10-18-6,6-12,12.33-18,19-8.67,10-17,21-25,33-2.67,4.67-5.83,10.83-9.5,18.5s-5.5,12.5-5.5,14.5l2,2c6.67,4.67,10.33,10.67,11,18ZM602,427c2.67-3.33,7.33-8.33,14-15,12.67-12,21.33-20.67,26-26,8-10,13.33-19.67,16-29,1.33-4.67,2-12.67,2-24v-8c2,2.67,3.33,5.67,4,9,2,8.67,2.33,17.33,1,26-.67,6-2.67,13.17-6,21.5s-7.67,16.17-13,23.5-12.5,15.5-21.5,24.5-15.17,14.5-18.5,16.5l-12,7,3,4c2.67,3.33,4,6.67,4,10-.67,13.33-5.33,23-14,29-11.33,8.67-18,14.5-20,17.5s-2.67,6.5-2,10.5c2-2.67,4.67-4.83,8-6.5s6.67-1.17,10,1.5c1.33,1.33,1.83,3.5,1.5,6.5s-1.17,5.5-2.5,7.5l-17,23c-5.33,6.67-9.17,14.17-11.5,22.5s-2.5,16.5-.5,24.5l3-9c3.33-7.33,6.67-13.67,10-19,12-17.33,25-29.67,39-37,10-5.33,21.33-9.67,34-13l2-11c2-8.67,5.33-15.67,10-21,4.67-6.67,10.67-12.17,18-16.5s13.67-6.5,19-6.5l5-1c9.33-.67,15.33-1.33,18-2s6.33-2.67,11-6c6-4,11-8.33,15-13,6-6.67,10.33-14,13-22l2-9-5,6c-4.67,4.67-8.33,7.67-11,9-4,2.67-12.67,4.33-26,5l-8,1c-4.67,1.33-9,3.67-13,7l-9,6c0-2.67.67-5.5,2-8.5s4-6.5,8-10.5c5.33-6.67,11-11.33,17-14,14.67-6.67,25.33-14,32-22,4.67-4.67,8-10.33,10-17,.67-4,1.33-9.83,2-17.5s1.33-13.17,2-16.5c2.67-15.33,11.67-29.67,27-43,13.33-10.67,28-18.67,44-24-5.33-.67-10.67-1-16-1-12,2-23.67,5.33-35,10-16,6-29.33,15.67-40,29l-2,2c-4,5.33-7.33,9-10,11-4.67,3.33-9.33,4.33-14,3-8.67-2.67-13.33-10.67-14-24l1-13c0-11.33-.17-19.67-.5-25s-3.17-13.33-8.5-24c-5.33-10.67-11-20.33-17-29-8.67-12.67-18.67-24.67-30-36-9.33-8.67-19.67-15.67-31-21,2.67,4.67,5.67,8.67,9,12,9.33,8.67,16,17.33,20,26,6,15.33,9,31.67,9,49,0,20.67-5.33,38.67-16,54-5.33,6.67-13.5,15.17-24.5,25.5s-16.83,17.5-17.5,21.5c-1.33,8.67,0,16.67,4,24,2.67,6.67,3.33,13.67,2,21v1c-1.33,11.33-4,20-8,26l-23,34c0,.67,5.33-2.33,16-9s18.67-12.67,24-18ZM837,444c-4,4-8.33,9-13,15l-5,8c-4,4.67-8,8-12,10-2.67.67-6.67,1.33-12,2l-3,1c-5.33.67-11,.67-17,0,4-4.67,7.67-10,11-16,2-4,3.5-10.33,4.5-19s1-17.67,0-27-3-18.17-6-26.5-6-14.83-9-19.5-6.83-8.67-11.5-12l4,9c1.33,2,2.17,7.83,2.5,17.5s-.17,19.83-1.5,30.5c-.67,6.67-2.33,12.67-5,18-2,3.33-5,7.5-9,12.5s-7,9.17-9,12.5c-4.67,7.33-10.17,13.67-16.5,19s-14.83,10.33-25.5,15c-20.67,9.33-37,20-49,32-4.67,4.67-9.33,11.33-14,20l-6,13c4.67-3.33,9.33-7,14-11,2.67-2,7.83-5,15.5-9s14.5-6.83,20.5-8.5,13.67-2.33,23-2,16.67,1.5,22,3.5c8,2.67,15.33,6.33,22,11,2.67-7.33,6.33-14,11-20,7.33-10,16-15.67,26-17l6-1c6.67,0,11.67-.33,15-1,6-2,11-5,15-9,6-5.33,10.67-13.33,14-24l4-12c2.67-5.33,7.33-11.33,14-18l10-9c-11.33,0-21.33,4-30,12ZM741,670c-6.67,0-12.67,3.67-18,11-2.67,4-5.67,11-9,21-2.67,6.67-4.83,11.33-6.5,14s-4.33,5-8,7-7.17,2-10.5,0c-6-4.67-7-13-3-25,2-5.33,9-14.33,21-27l8-10c16.67-19.33,25-38.33,25-57,0-12-3.67-21.83-11-29.5s-17-11.5-29-11.5c-20.67,0-36,7-46,21-.67.67-1.5,1-2.5,1s-1.83-.33-2.5-1c-2.67-4.67-5.83-8.67-9.5-12s-7.5-5.33-11.5-6-6.67-.33-8,1l3,4c2,3.33,2.67,6.67,2,10-1.33,7.33-12.33,15.67-33,25-14.67,6.67-32,11-52,13-11.33,1.33-26,2-44,2h-2c-18,0-32.67-.67-44-2-20-2-37.33-6.33-52-13-21.33-9.33-32.33-17.67-33-25h-1c-.67-4.67,1.33-9.33,6-14-2-1.33-4.83-1.67-8.5-1s-7.5,2.67-11.5,6-7,7.33-9,12c-.67.67-1.67,1-3,1s-2-.33-2-1c-10.67-14-26-21-46-21-12,0-21.83,3.83-29.5,11.5-7.67,7.67-11.5,17.5-11.5,29.5,0,18,8.67,37,26,57l8,10c12,12.67,18.67,21.67,20,27,4.67,12,3.67,20.33-3,25-3.33,2-6.83,2-10.5,0s-6.17-4.33-7.5-7-3.33-7.33-6-14c-3.33-10-6.67-17-10-21-4.67-7.33-10.67-11-18-11-14,0-23,6.33-27,19-2.67,7.33-2.67,13.67,0,19s5.33,8,8,8v-6c.67-4,2-7,4-9,3.33-4,7.33-6,12-6,3.33,0,6.17,1.33,8.5,4s4.17,6,5.5,10c4,12.67,8.67,21.67,14,27s10.17,9.17,14.5,11.5,9.17,3.5,14.5,3.5,10-1,14-3l3-3c.67,8.67,2.67,17,6,25,4.67,12,12.33,21.67,23,29,4,2.67,9.5,5.83,16.5,9.5s12.5,6.83,16.5,9.5c8,5.33,15.33,11.67,22,19v8c0,3.33,2.67,7,8,11,6.67,4.67,15.67,8.67,27,12,16,4.67,35.17,7,57.5,7s41.17-2.33,56.5-7c11.33-3.33,20.33-7.33,27-12,5.33-4,8-7.67,8-11v-8c6.67-7.33,14-13.67,22-19,4-2.67,9.5-5.83,16.5-9.5s12.5-6.83,16.5-9.5c10.67-7.33,18.33-17,23-29,2.67-8,4.33-16.33,5-25l4,3c3.33,2,7.67,3,13,3s10.33-1.17,15-3.5,9.67-6.17,15-11.5,10-14.33,14-27c.67-3.33,2.33-6.33,5-9s5.33-4,8-4c4.67-.67,8.67,1,12,5,2,2,3.33,5.33,4,10l1,5c2.67,0,5.33-2.67,8-8s2.67-11.67,0-19c-4.67-12.67-14-19-28-19ZM342,703c-2.67,4.67-6.67,8.33-12,11v-5c0-4-.67-8-2-12-2.67-6.67-7-13.33-13-20l-4-6c-12.67-14.67-20-26.17-22-34.5s-1.5-16,1.5-23,6.83-11.5,11.5-13.5c9.33-4,20-1,32,9,6,5.33,10.67,11.33,14,18,2,4.67,3,9,3,13s-.67,7-2,9-3,3-5,3c-4,0-6.67-1-8-3s-2.33-4-3-6c-4,0-5.67,4.17-5,12.5s5,13.83,13,16.5c3.33.67,6.67.67,10,0l1,4c0,3.33-.67,7-2,11-1.33,5.33-4,10.67-8,16ZM660,714c-5.33-2.67-9.67-6.5-13-11.5s-5.67-10.17-7-15.5c-1.33-4-2-7.67-2-11l1-5c3.33,1.33,6.67,1.67,10,1,8-2.67,12.17-8.17,12.5-16.5s-1.17-12.5-4.5-12.5c-.67,2-1.67,4-3,6s-4,3-8,3c-2,0-3.67-1-5-3s-2-5-2-9,1-8.33,3-13c3.33-6.67,8-12.67,14-18,12-10,22.67-13,32-9,4.67,2,8.5,6.5,11.5,13.5s3.5,14.67,1.5,23-9.33,19.83-22,34.5l-5,6c-5.33,6.67-9.33,13.33-12,20-1.33,4.67-2,8.67-2,12v5Z"/>
</svg>