<?xml version="1.0" encoding="UTF-8"?>
<svg id="_레이어_1" data-name="레이어_1" xmlns="http://www.w3.org/2000/svg" version="1.1" viewBox="0 0 1000 1000">
  <!-- Generator: Adobe Illustrator 30.6.0, SVG Export Plug-In . SVG Version: 2.1.4 Build 109)  -->
  <defs>
    <style>
      .st0 {
        fill: #fff;
      }
    </style>
  </defs>
  <path class="st0" d="M731,312c0,2,1.33,4.17,4,6.5s5,3.83,7,4.5,4.5-.17,7.5-2.5,5.17-3.17,6.5-2.5c3.33,2,12.33,9,27,21,26.67,21.33,41.67,32,45,32s8-3.83,14-11.5,8-13.17,6-16.5c-2.67-6-8.83-13.5-18.5-22.5s-17.83-15.17-24.5-18.5c-2.67-1.33-6-.67-10,2s-7.67,3.67-11,3c-.67,0-1.83-1.33-3.5-4s-1.83-4.67-.5-6c4-6,6.17-12,6.5-18s-1.5-10.33-5.5-13c-6-4.67-11.67-4.67-17,0l-1,1c-1.33.67-4.33-.33-9-3l-111-93c-19.33-16.67-34.33-27.67-45-33-16.67-9.33-34-13.67-52-13-12,0-25.67,4.67-41,14-13.33,8-24,16.67-32,26-12.67,14.67-21.33,26-26,34-6,10-9,20-9,30,0,4.67,4.17,9.5,12.5,14.5s16.5,7.83,24.5,8.5c4.67.67,10,.67,16,0,4.67,0,7.33.33,8,1,.67,2.67-3.17,5-11.5,7s-17.5,3-27.5,3c-4.67,0-11.83-2-21.5-6s-16.5-6-20.5-6-7.67,2.33-11,7c-3.33,4.67-3.67,9-1,13l2,5c4,5.33,5.33,9.67,4,13-.67,2-3.33,8-8,18l-13,27c-12,25.33-21.67,42.67-29,52-12,16.67-23,21-33,13-4-1.33-5.67-.33-5,3,2,12.67-2,26.67-12,42-7.33,12-17,23.67-29,35-10.67,10-18.33,16-23,18-4.67,2-9.67,3-15,3-3.33.67-8.67.67-16,0h-1c-2,2.67-2.33,5.33-1,8l4,9c2.67,5.33,3.67,9,3,11-.67,4.67-4,9-10,13-4,2.67-6.67,5-8,7-3.33,4-4.67,9.33-4,16,5.33,16,47.33,27,126,33,46,4,95.33,6,148,6,68-.67,116-1.33,144-2,33.33-.67,60.67-2.67,82-6,17.33-2,40.67-6.33,70-13,2-.67,3.67-.5,5,.5s1,2.5-1,4.5c-14.67,9.33-39,16.67-73,22-24.67,3.33-58,6-100,8l-27,1c-40,2-68,3-84,3-68-.67-122.33-2.33-163-5-66.67-4-113.33-11.67-140-23-8.67-3.33-16.67-7.17-24-11.5s-11.67-7.67-13-10-3.33-3.67-6-4-4,.83-4,3.5c-1.33,10,4,20,16,30,10.67,8.67,24.17,16,40.5,22s31.17,9.67,44.5,11c2,0,3,1,3,3s-.83,3.83-2.5,5.5-4.5,3.5-8.5,5.5c-2,1.33-3.33,2.5-4,3.5s-.67,2.17,0,3.5c3.33,4,7,11,11,21,6.67,16.67,14,30.67,22,42,6.67,8.67,18.33,18.33,35,29,11.33,6.67,19,12.33,23,17,6,6.67,8.67,14.67,8,24,0,3.33-2,6.33-6,9-2,2-6.33,4.33-13,7-7.33,3.33-12.67,6.33-16,9-4.67,4.67-7,10-7,16-.67,11.33,7,20.67,23,28,12.67,6,29,10.67,49,14,18,2.67,35,4,51,4s26.33-1.33,31-4c3.33-2.67,5-7,5-13,0-4,.33-7.33,1-10,.67-3.33,3.33-6.33,8-9,8.67-6,18.83-8.83,30.5-8.5s21.17,4.17,28.5,11.5c2.67,2.67,4,7.33,4,14s1.83,11.67,5.5,15,15,4.83,34,4.5,38.17-2.17,57.5-5.5c22.67-4.67,39.67-11,51-19,9.33-6,13.33-14.33,12-25-.67-5.33-3-9.67-7-13-2.67-2-7.33-4.33-14-7s-11.33-5-14-7c-4.67-3.33-7.5-8-8.5-14s1.83-12.67,8.5-20c4.67-4.67,13-11,25-19,14-9.33,23.33-16.67,28-22,6.67-8,14.67-23,24-45,8-16.67,14-27.67,18-33,4.67-6,11-11.67,19-17l24-12c13.33-6.67,22.33-12,27-16,8-6.67,12-14.33,12-23,0-4.67-1.67-9-5-13-9.33-8.67-20.33-15.67-33-21-7.33-2.67-16.67-5.33-28-8-6.67-2-10.33-3.83-11-5.5s-1.17-3.5-1.5-5.5-.17-4.33.5-7c3.33-16-1.33-33.67-14-53-9.33-15.33-22.33-29.67-39-43-14-12-23.33-18-28-18h-7c-8,.67-14,0-18-2-8.67-4.67-17-12.33-25-23-5.33-7.33-10.33-15.67-15-25l-12-24c-10-18-17-31.33-21-40-.67-4-.17-7.5,1.5-10.5s2.17-6.5,1.5-10.5c-1.33-9.33-8-18-20-26l-2-1c-10.67-8-16-19-16-33,0-16,8.67-25.33,26-28,7.33-.67,17.67,3.33,31,12,8,5.33,20.67,15,38,29l101,80c-3.33,3.33-4.67,6.67-4,10ZM658,419h3l3,2c2.67,13.33,11,26.67,25,40,9.33,8.67,23,19,41,31,6,4.67,8,7.5,6,8.5s-5.33.83-10-.5h-1c-6-2-13.17-5-21.5-9s-15.17-7.67-20.5-11c-8-6-14-11.67-18-17-4.67-7.33-7-16.33-7-27l-1-3c0-9.33.33-14,1-14ZM523,517c-4,3.33-9.33,6-16,8-5.33,2-9.67,3-13,3-9.33,0-17.33-2.67-24-8s-10.33-13-11-23c9.33,10,19.67,15,31,15s19.83-4.5,25.5-13.5c5.67-9,5.5-20.17-.5-33.5,10,8.67,15.17,18.33,15.5,29s-2.17,18.33-7.5,23ZM547,459c-1.33-.67-2.67-1.67-4-3-9.33-6.67-16.33-11.33-21-14-6.67-2.67-15.67-4.33-27-5-17.33-1.33-32.5,3.83-45.5,15.5s-19.17,25.17-18.5,40.5c0,17.33,9,32,27,44-11.33,1.33-21.17-.5-29.5-5.5s-14.5-12.17-18.5-21.5c-4-9.33-5-18.67-3-28,2.67-16.67,10.33-30.33,23-41,12-10,26.17-16.17,42.5-18.5s31.5-.33,45.5,6,23.67,16.5,29,30.5ZM271,465c3.33,0,9.33-6,18-18,8-10,12.5-17,13.5-21s.67-6.5-1-7.5-3.83-.83-6.5.5l-18,17c-3.33,3.33-5.67,6-7,8-2,3.33-3.17,6.67-3.5,10s0,6.17,1,8.5,2.17,3.17,3.5,2.5Z"/>
</svg>