<?xml version="1.0" encoding="UTF-8"?>
<svg id="_레이어_1" data-name="레이어_1" xmlns="http://www.w3.org/2000/svg" version="1.1" viewBox="0 0 1000 1000">
  <!-- Generator: Adobe Illustrator 30.6.0, SVG Export Plug-In . SVG Version: 2.1.4 Build 109)  -->
  <defs>
    <style>
      .st0 {
        fill: #fff;
      }
    </style>
  </defs>
  <path class="st0" d="M368,653v-312c0-3.33-1.67-6.33-5-9s-7.33-4.67-12-6l-6-1-6,1c-4.67,1.33-8.67,3.33-12,6s-5,5.67-5,9v312c0,5.33,4,9.67,12,13,3.33,1.33,7,2.33,11,3l6-1c4.67-1.33,8.67-3.33,12-6s5-5.67,5-9ZM490,653v-312c0-5.33-3.67-9.67-11-13-4-1.33-8-2.33-12-3l-6,1c-4,1.33-7.83,3.33-11.5,6s-5.5,5.67-5.5,9v312c0,3.33,1.83,6.33,5.5,9s7.5,4.67,11.5,6l6,1,6-1c4.67-1.33,8.67-3.33,12-6s5-5.67,5-9ZM613,653v-312c0-3.33-1.67-6.33-5-9s-7.33-4.67-12-6l-6-1-6,1c-4.67,1.33-8.67,3.33-12,6s-5,5.67-5,9v312c0,3.33,1.67,6.33,5,9s7.33,4.67,12,6l6,1,6-1c4.67-1.33,8.67-3.33,12-6s5-5.67,5-9ZM732,115c-11.33,0-22.17,4.5-32.5,13.5s-15.5,16.5-15.5,22.5-2.67,9.67-8,11c-2.67,1.33-8,2-16,2h-361c-12,0-23.5,2.5-34.5,7.5s-20.83,11.83-29.5,20.5c-5.33,5.33-10,12.5-14,21.5s-6,16.83-6,23.5c0,13.33,1.67,23.33,5,30,5.33,8.67,14.33,13,27,13,9.33,0,17.67-2.33,25-7,4.67-2.67,10.33-7.33,17-14,4.67-4.67,8.33-7.67,11-9,4-2.67,7.67-4,11-4h328c10.67,0,21,3.33,31,10,12,8.67,18,20.33,18,35v346c0,9.33-5,22-15,38-10.67,17.33-24.33,33.67-41,49-18.67,18-39,32.33-61,43-26,12-52.33,18-79,18-76.67,0-141.67-20-195-60l-2-2c-6-4-12-6.83-18-8.5s-10.67-.67-14,3-3.33,11.5,0,23.5,8,21.33,14,28c8,8.67,19.67,18.67,35,30,23.33,18,48.33,32.67,75,44,34.67,14.67,69.83,22,105.5,22s75.83-12,120.5-36c43.33-23.33,79.67-52,109-86,31.33-36.67,47-70.67,47-102v-337c0-7.33,2.67-16.83,8-28.5s8-21.17,8-28.5v-82c0-10-6-20.83-18-32.5-12-11.67-23.67-17.5-35-17.5Z"/>
</svg>