<?xml version="1.0" encoding="UTF-8"?>
<svg id="_레이어_1" data-name="레이어_1" xmlns="http://www.w3.org/2000/svg" version="1.1" viewBox="0 0 1000 1000">
  <!-- Generator: Adobe Illustrator 30.6.0, SVG Export Plug-In . SVG Version: 2.1.4 Build 109)  -->
  <defs>
    <style>
      .st0 {
        fill: #fff;
      }
    </style>
  </defs>
  <path class="st0" d="M757,139c-3.33,0-8,3.33-14,10-4,4-10.17,11.17-18.5,21.5s-14.17,17.5-17.5,21.5c-6,6.67-10.67,10-14,10h-138c-2.67,0-9.33-11.33-20-34l-6-13c-4-8-8.67-14.67-14-20-3.33-4-7-6.67-11-8l-4-2-4,2c-4,1.33-7.67,4-11,8-5.33,5.33-10,12-14,20l-6,13c-10.67,22.67-17.33,34-20,34h-138c-3.33,0-8-3.33-14-10-3.33-4-9.17-11.17-17.5-21.5s-14.5-17.5-18.5-21.5c-6-6.67-10.67-10-14-10-9.33,0-18,4.33-26,13-9.33,9.33-14,21-14,35v258c0,64,11,123,33,177,20.67,50.67,50,94,88,130,32,30,70.33,59.33,115,88,22.67,14,43,25.67,61,35,17.33-8.67,37.67-20.33,61-35,44.67-28.67,83-58,115-88,38-36,67.33-79.33,88-130,22-54,33-113,33-177V187c0-14-4.67-25.67-14-35-8-8.67-16.67-13-26-13ZM469,768c-7.33-4-14.33-8-21-12-17.33-11.33-33.67-23.67-49-37-22.67-19.33-42.33-39.67-59-61-20.67-26.67-36.33-58-47-94-8-28-12-54.67-12-80l1-219h187v503ZM660,658c-16.67,21.33-36.33,41.67-59,61-15.33,13.33-31.67,25.67-49,37l-21,12v-503h187l1,219c0,25.33-4,52-12,80-10.67,36-26.33,67.33-47,94Z"/>
</svg>