<?xml version="1.0" encoding="UTF-8"?>
<svg id="_레이어_1" data-name="레이어_1" xmlns="http://www.w3.org/2000/svg" version="1.1" viewBox="0 0 1000 1000">
  <!-- Generator: Adobe Illustrator 30.6.0, SVG Export Plug-In . SVG Version: 2.1.4 Build 109)  -->
  <defs>
    <style>
      .st0 {
        fill: #fff;
      }
    </style>
  </defs>
  <path class="st0" d="M519,328c-76.67,0-153,.33-229,1l-12-1c-8,0-13.67.33-17,1-4.67,1.33-8.17,4.83-10.5,10.5s-3.5,14.83-3.5,27.5c-1.33,40-1,97,1,171,0,8,2.83,14.5,8.5,19.5,5.67,5,12.67,7.33,21,7s15.33-3,21-8,8.5-11.5,8.5-19.5c1.33-19.33,2.33-48.67,3-88v-1c0-18.67,1.5-32,4.5-40s7.5-13,13.5-15c3.33-.67,10.33-.67,21,0h3c32,2,64,2.67,96,2,11.33-.67,19.67.33,25,3,7.33,2.67,12.67,8.5,16,17.5s5,22.83,5,41.5c0,14,.5,35.17,1.5,63.5,1,28.33,1.5,49.5,1.5,63.5v50c.67,28,.33,45.67-1,53-2,10-7.67,16-17,18-6,2-21.33,2.67-46,2-22-1.33-40.33-2-55-2h-16c-20.67.67-33.67.33-39-1-7.33-2-12-6.33-14-13-.67-4.67-1-15.67-1-33l1-33c0-1.33-1.67-3.33-5-6l-6-7c-83.33,52-136.67,122.67-160,212,36-36.67,67.33-66,94-88l7-6c7.33-8,12.33-12.33,15-13,5.33-.67,6.33,6.67,3,22-2.67,14,4,23.33,20,28,9.33,2.67,24.67,4,46,4h9c28,.67,70.33.67,127,0h32c22-.67,37.67-2.5,47-5.5s15.67-9.17,19-18.5,5.33-24.33,6-45c.67-62.67,1.67-156,3-280v-7c0-11.33-1-26-3-44-2.67-29.33-17.33-43.67-44-43ZM685,350c-4.67-6-7.33-14-8-24-.67-6-.33-15,1-27,.67-8,1-14,1-18-1.33-22.67-3.33-37.67-6-45-2.67-9.33-9-15.33-19-18-7.33-2-23-3-47-3l-144,1h-53c-10.67.67-18.67,3.67-24,9s-8,13-8,23c.67,17.33,10.33,26.67,29,28,8,.67,19.67,1.33,35,2l137,3c14,0,24.33,3.67,31,11s9.67,18.33,9,33c-.67,34-.67,85.33,0,154v126c0,8,1,14,3,18,3.33,5.33,8.67,8.33,16,9,18.67,2.67,30.67-4,36-20,2.67-10,4-20.33,4-31l1-19c.67-26,0-45.33-2-58,2.67-32,7-56,13-72,7.33-18.67,20.33-34.33,39-47,12.67-8,32.33-19.33,59-34,32-17.33,56.67-32,74-44-33.33-7.33-66.33-6.67-99,2-30.67,8-56.67,21.67-78,41Z"/>
</svg>