<?xml version="1.0" encoding="UTF-8"?>
<svg id="_레이어_1" data-name="레이어_1" xmlns="http://www.w3.org/2000/svg" version="1.1" viewBox="0 0 1000 1000">
  <!-- Generator: Adobe Illustrator 30.6.0, SVG Export Plug-In . SVG Version: 2.1.4 Build 109)  -->
  <defs>
    <style>
      .st0 {
        fill: #fff;
      }
    </style>
  </defs>
  <path class="st0" d="M845,611c12-13.33,20.33-28.67,25-46,4-15.33,5.67-33.67,5-55-.67-20.67-6.67-43-18-67-13.33-28-31.67-51-55-69-28-21.33-60.33-32.33-97-33-23.33,0-45.67,9.33-67,28-7.33,6.67-15.33,16-24,28-12,16.67-20.33,31.67-25,45-5.33,18-3.33,32.33,6,43,4,4,9.67,5.33,17,4s12.83-4.17,16.5-8.5,5.67-5.33,6-3-.67,5.33-3,9-5.67,7-10,10-9.83,5.5-16.5,7.5c-8.67,2-16.33,1.67-23-1-8.67-3.33-15-10.33-19-21-2.67-7.33-2.67-17.17,0-29.5s8-24.17,16-35.5c10.67-15.33,26-31.67,46-49,2.67-2,4-4.5,4-7.5s-.67-5.83-2-8.5c-10-14-25-26.33-45-37-26-14.67-55-22-87-22-53.33,0-103.33,28-150,84l-2,3c-6,6-12,14.67-18,26-7.33,14-12.33,26.67-15,38-2.67,14.67-1,25.83,5,33.5s13.33,10.83,22,9.5c5.33-1.33,10-3.67,14-7,4.67-4,7-5.33,7-4,.67,6-4.33,13.33-15,22-3.33,2.67-8.33,4.67-15,6-8,1.33-15.33,1-22-1-8-3.33-13.83-9.33-17.5-18s-4.33-19.67-2-33,6.83-26,13.5-38c5.33-9.33,18.67-25,40-47l4-5c3.33-3.33,4.67-7.33,4-12s-3.33-8-8-10c-7.33-3.33-15.33-5.33-24-6-6.67-.67-13.33-.33-20,1l-24,5c-12.67,3.33-25,8-37,14-17.33,7.33-32.67,16.67-46,28-17.33,13.33-31,29-41,47-12.67,21.33-20.33,45.33-23,72-1.33,15.33.67,32,6,50,5.33,20,14,37,26,51,24,28.67,61,47,111,55h3l5,3c51.33,31.33,115.17,47,191.5,47s139.83-10.67,190.5-32l3-1c.67,0,4.33-.33,11-1,36-1.33,66-5.67,90-13,22.67-6.67,42-16,58-28l8-7c8-6,13.67-10.67,17-14Z"/>
</svg>