<?xml version="1.0" encoding="UTF-8"?>
<svg id="_레이어_1" data-name="레이어_1" xmlns="http://www.w3.org/2000/svg" version="1.1" viewBox="0 0 1000 1000">
  <!-- Generator: Adobe Illustrator 30.6.0, SVG Export Plug-In . SVG Version: 2.1.4 Build 109)  -->
  <defs>
    <style>
      .st0 {
        fill: #fff;
      }
    </style>
  </defs>
  <path class="st0" d="M680,161c1.33,28,.67,49.17-2,63.5s-9,28.83-19,43.5c-8.67,12-16.17,20.33-22.5,25s-13.83,7.67-22.5,9c-5.33.67-15.33,1-30,1h-12c-11.33,35.33-18.67,64.33-22,87-2.67,20.67-2,39.33,2,56,2,10.67,7,26.67,15,48,12,29.33,20.67,55.67,26,79,18,46,17,137.33-3,274,18-14.67,33-33.67,45-57,10.67-20,19.67-44.67,27-74,4.67-17.33,10.67-44,18-80,6-30.67,10.67-53,14-67,6-24,12.33-44.33,19-61,5.33-9.33,16.33-6,33,10,19.33-74,23.33-139,12-195-10.67-53.33-36.67-107.33-78-162ZM695,301c8.67,32.67,13.67,57.33,15,74,1.33,23.33-1.33,46.33-8,69-16.67,0-29.33,5.67-38,17-7.33,10-12.33,24.67-15,44-2,11.33-3,30.33-3,57l-1,23-3,8c-2.67,8-4.67,13-6,15-2,3.33-3,1.67-3-5,1.33-29.33,0-55.33-4-78-2.67-13.33-7.5-29.67-14.5-49s-11.17-34.67-12.5-46c-1.33-18.67,1.33-41,8-67,7.33,0,17-2.67,29-8s22.67-12.33,32-21c12-10,20-21,24-33ZM316,161c-1.33,28-.5,49.17,2.5,63.5s9.17,28.83,18.5,43.5c8.67,12,16.33,20.33,23,25s14,7.67,22,9c6,.67,16.33,1,31,1h12c11.33,35.33,18.33,64.33,21,87,2.67,20.67,2.33,39.33-1,56-2,10.67-7.33,26.67-16,48-11.33,29.33-20,55.67-26,79-18,46-16.67,137.33,4,274-18-14.67-33.33-33.67-46-57-10-20-19-44.67-27-74-4.67-17.33-10.67-44-18-80-5.33-30.67-10-53-14-67-5.33-24-11.67-44.33-19-61-5.33-9.33-16.33-6-33,10-18.67-74-22.67-139-12-195,10.67-53.33,36.67-107.33,78-162ZM301,301c-8,32.67-12.67,57.33-14,74-2,23.33.33,46.33,7,69,17.33,0,30.33,5.67,39,17,7.33,10,12,24.67,14,44,2,11.33,3.33,30.33,4,57v23l3,8c3.33,8,5.33,13,6,15,2,3.33,3,1.67,3-5-1.33-29.33.33-55.33,5-78,2-13.33,6.5-29.67,13.5-49s11.17-34.67,12.5-46c2-18.67-.33-41-7-67-8,0-17.83-2.67-29.5-8s-22.5-12.33-32.5-21c-11.33-10-19.33-21-24-33Z"/>
</svg>