<?xml version="1.0" encoding="UTF-8"?>
<svg id="_레이어_1" data-name="레이어_1" xmlns="http://www.w3.org/2000/svg" version="1.1" viewBox="0 0 1000 1000">
  <!-- Generator: Adobe Illustrator 30.6.0, SVG Export Plug-In . SVG Version: 2.1.4 Build 109)  -->
  <defs>
    <style>
      .st0 {
        fill: #fff;
      }
    </style>
  </defs>
  <path class="st0" d="M208,446c-2,0-4.33-1.33-7-4l-25-34c-3.33-4-3.33-8,0-12l5-6c4-4,8-6,12-6h350c11.33,0,20.67,1,28,3,6,2,10.67,4.33,14,7l3,4c2.67,4,5,5.17,7,3.5s2.33-4.17,1-7.5l-3-6c-3.33-4-8-7-14-9-7.33-4-16.67-6-28-6H135c-2.67,0-5-1-7-3s-3-4.33-3-7v-30c0-2.67,1-5,3-7s4.33-3,7-3h492c2.67,0,5.67.83,9,2.5s5.67,3.83,7,6.5l11,21c3.33,7.33,6.33,11,9,11h205c2.67,0,4.67,1,6,3s1.67,4.33,1,7l-5,13c-4.67,11.33-10,22.33-16,33-8.67,14.67-18,28-28,40-12.67,15.33-26.33,27.67-41,37-13.33,8.67-29.33,16.67-48,24-15.33,6.67-30.17,11.67-44.5,15s-22.67,4.33-25,3-4.17-4.5-5.5-9.5-3.67-7.17-7-6.5-5,4.67-5,12v1c0,2.67-.83,4.5-2.5,5.5s-5.17,2.17-10.5,3.5c-3.33,1.33-7.67,3.67-13,7-7.33,6-13,13-17,21-6,10.67-8.83,22.5-8.5,35.5s4.83,25.17,13.5,36.5c7.33,9.33,15.5,16,24.5,20s18.5,6.67,28.5,8c2.67.67,5,2,7,4s3,4.33,3,7v61c0,2.67-1,5-3,7s-4.33,3-7,3h-108c-2.67,0-5-1-7-3s-3-4.33-3-7v-12c0-6-4.83-12.33-14.5-19s-21.5-12.33-35.5-17-26.33-7-37-7c-16.67.67-31.33,2.33-44,5-8.67,2-16,5-22,9l-7,4c-2,1.33-4.33,1.67-7,1l-3-2-4-7c-2-5.33-3-9.33-3-12,0-9.33,5.67-19.67,17-31,6-5.33,11.67-9.33,17-12s12.33-5.17,21-7.5,10-4.17,4-5.5h-6c-4.67,0-9.33.67-14,2-7.33,2-14,5-20,9-22,14-33,32.67-33,56v46c0,2.67-.83,5-2.5,7s-3.83,3-6.5,3h-106c-2,0-4-1-6-3s-3-4.33-3-7v-58c0-2,1.17-4.5,3.5-7.5s4.83-4.83,7.5-5.5l12-6c9.33-5.33,17.67-11.67,25-19,11.33-10,20-21.33,26-34,8-16,12-33.33,12-52,0-24.67-6.33-46.67-19-66-11.33-16-26-28.67-44-38-16-8.67-31.67-13-47-13Z"/>
</svg>