<?xml version="1.0" encoding="UTF-8"?>
<svg id="_레이어_1" data-name="레이어_1" xmlns="http://www.w3.org/2000/svg" version="1.1" viewBox="0 0 1000 1000">
  <!-- Generator: Adobe Illustrator 30.6.0, SVG Export Plug-In . SVG Version: 2.1.4 Build 109)  -->
  <defs>
    <style>
      .st0 {
        fill: #fff;
      }
    </style>
  </defs>
  <path class="st0" d="M517,320c0-10.67-2.67-22.33-8-35-3.33-6-6.33-11-9-15l-4,7c-3.33,6-6.33,12-9,18-2.67,8.67-4,17-4,25s1.33,16.33,4,25c2.67,6.67,5.67,13,9,19l4,8,4-8c3.33-6,6.33-12.33,9-19,2.67-8.67,4-17,4-25ZM849,631c4-10.67,5.17-21.67,3.5-33s-5.5-21.67-11.5-31c-8.67-13.33-18.33-22.33-29-27-5.33-2.67-9.67-4-13-4l-3-14c-4-11.33-9-22-15-32-8.67-13.33-19-24-31-32-15.33-9.33-32.67-14-52-14-18,0-35,4.33-51,13l1-1c1.33-7.33,2.33-15,3-23,.67-11.33.33-22.33-1-33l-9,2c-7.33,3.33-14.67,8.33-22,15s-12,11.67-14,15c-3.33-22-11.33-39.67-24-53-11.33-12-23.33-18-36-18-10.67,0-19.67,3.33-27,10-6,4.67-10.67,10.67-14,18l-4,10-4-10c-3.33-7.33-8-13.33-14-18-7.33-6.67-16.33-10-27-10-12.67,0-24.67,6-36,18-12.67,13.33-20.67,31-24,53-2-3.33-6.67-8.33-14-15s-14.67-11.67-22-15l-8-2c-1.33,10.67-2,21.67-2,33,.67,8,2,15.67,4,23v1c-16-8.67-33-13-51-13-19.33,0-36.67,4.67-52,14-12,8-22.33,18.67-31,32-6,9.33-11,20-15,32l-3,14-6,1c-5.33,1.33-10.67,4-16,8-6.67,5.33-13.17,12.67-19.5,22s-10.33,19.67-12,31-.5,22.33,3.5,33l-7,5c-4.67,4.67-8.67,9.67-12,15-4.67,8-7,16-7,24,0,13.33,5.17,24.33,15.5,33s21.33,13,33,13,22.5-3,32.5-9c5.33,4.67,10.67,8,16,10s12.67,3.83,22,5.5,16.17,2.5,20.5,2.5,8.5-1.67,12.5-5l-10-3c-6.67-3.33-12.33-7.33-17-12-6.67-6.67-10-14.5-10-23.5s5.5-18,16.5-27,25.67-16.17,44-21.5,38.33-8,60-8,40.17,2.33,55.5,7c11.33,3.33,23.33,9.33,36,18,9.33,6,17.33,12.67,24,20,5.33,6,9,10.67,11,14l1,6c.67,3.33,1.5,6,2.5,8s2.83,4,5.5,6l4,2,4-2c2.67-2,4.5-4,5.5-6s1.83-4.67,2.5-8l1-6c2-3.33,5.67-8,11-14,6.67-7.33,15-14,25-20,12.67-8.67,24.33-14.67,35-18,15.33-4.67,33.83-7,55.5-7s41.67,2.67,60,8,33,12.5,44,21.5,16.5,18.17,16.5,27.5c0,12-6,22-18,30-6.67,4-13,6.67-19,8,4,3.33,8.17,5,12.5,5s11.17-.83,20.5-2.5,16.83-3.5,22.5-5.5,10.83-5.33,15.5-10c10.67,6,21.83,9,33.5,9s22.5-4.33,32.5-13,15-19.67,15-33c0-8-2.33-16-7-24-3.33-5.33-7.33-10.33-12-15l-7-5ZM785,576c4-6.67,8-13,12-19,12,2.67,20.67,9,26,19,2.67,5.33,4,11,4,17,0,4.67-1,9-3,13l-2,6c-8.67-6-17.5-10.33-26.5-13s-17.83-4.67-26.5-6l6-6c4.67-4.67,8-8.33,10-11ZM607,465c2-6.67,4.67-13,8-19,2.67-4,6.67-8.33,12-13l7-5v9c0,7.33-1,13-3,17-4,10-12.33,20-25,30,.67-6,1-12.33,1-19ZM695,461c12.67,0,23.33,2.33,32,7,6.67,4,11.67,8.67,15,14l3,8-16-2c-13.33-.67-25.33,0-36,2-13.33,2.67-27.67,9.33-43,20l-9-1c-6.67,0-12,.33-16,1-8,2-15.33,4.67-22,8l13-15c11.33-11.33,22.67-20.67,34-28,16-9.33,31-14,45-14ZM513,418c2.67-8.67,7.17-16.17,13.5-22.5s12.5-9.5,18.5-9.5c11.33,0,20.67,9,28,27,6.67,15.33,10,32,10,50s-8.33,39-25,63c-10.67,16.67-24.67,33.33-42,50,7.33-11.33,13.67-23.33,19-36,8-20.67,12-39.33,12-56s-4.33-29.67-13-39c-6-6.67-14-11.67-24-15l3-12ZM500,452h6c4.67,2,8.33,5.33,11,10,4.67,6.67,7,16.17,7,28.5s-2.33,25.17-7,38.5c-2.67,10-6.33,19.67-11,29l-6,11-6-11c-4.67-9.33-8.33-19-11-29-4.67-13.33-7-26.17-7-38.5s2.33-21.83,7-28.5c2.67-4.67,6.33-8,11-10h6ZM455,386c6,0,12.17,3.17,18.5,9.5s10.83,13.83,13.5,22.5l3,13c-10,2.67-18,7.33-24,14-8.67,9.33-13,22.33-13,39s4,35.33,12,56c5.33,12,11.67,24,19,36-17.33-16.67-31.67-33.33-43-50-16-24-24-45-24-63s3.33-34.67,10-50c7.33-18,16.67-27,28-27ZM366,428c2.67,2,5,3.67,7,5,5.33,4.67,9.33,9,12,13,3.33,6,6,12.33,8,19,0,6.67.33,13,1,19-12.67-10-21-20-25-30-2-4-3-9.67-3-17v-9ZM305,461c14,0,29,4.67,45,14,11.33,7.33,22.67,16.67,34,28l13,15c-6.67-3.33-14-6-22-8-4-.67-9.33-1-16-1l-9,1-14-9c-11.33-6-21-9.67-29-11-10.67-2-22.67-2.67-36-2l-16,2,3-8c3.33-5.33,8.33-10,15-14,8.67-4.67,19.33-7,32-7ZM177,576c5.33-10,14-16.33,26-19l12,19c2,2.67,5.33,6.33,10,11l6,6c-8.67,1.33-17.5,3.33-26.5,6s-17.83,7-26.5,13l-2-6c-2-4-3-8.33-3-13,0-6,1.33-11.67,4-17ZM193,682c0,3.33.33,7,1,11-19.33-8.67-27.33-21.67-24-39,2-10.67,10-19.67,24-27,12-6.67,25.33-11,40-13,12-1.33,23.67-.67,35,2-50.67,18.67-76,40.67-76,66ZM283,544c-2.67,6-4,14.33-4,25l1,14-6-2c-5.33-1.33-10.33-3-15-5-6.67-3.33-12.33-7.67-17-13-11.33-13.33-17-25.67-17-37,0-3.33,2.33-7.33,7-12,6-6,13.67-9.67,23-11,13.33-2.67,26-2,38,2,6.67,2.67,12.33,6.67,17,12l-5,3c-4,2.67-8,5.67-12,9-4.67,4.67-8,9.67-10,15ZM346,528c10,0,21,3.33,33,10,8.67,4,17.33,9.67,26,17l11,10-20-3c-15.33-1.33-28-1.67-38-1-14.67,1.33-29,5-43,11-1.33-7.33-1.33-14.67,0-22,3.33-14.67,13.67-22,31-22ZM424,595c-4,2-7,5-9,9l-10-2c-9.33-1.33-19-2.33-29-3-14-.67-28-.33-42,1,5.33-5.33,12-10,20-14,12-6,25.67-9,41-9,19.33,0,33,4,41,12-4,1.33-8,3.33-12,6ZM528,628c-6.67,4.67-13.33,11.33-20,20l-8,12-8-12c-6.67-8.67-13.33-15.33-20-20-9.33-6-19-10.67-29-14l5-3c3.33-2.67,7.33-4,12-4,6,0,12,2.33,18,7,8.67,6.67,16,16.67,22,30l6-11c5.33-8.67,10.83-15.17,16.5-19.5s11.5-6.5,17.5-6.5c4,0,8,1.33,12,4l5,3c-10.67,3.33-20.33,8-29,14ZM585,604c-2-4-5-7.17-9-9.5s-8-4.17-12-5.5c8-8,21.67-12,41-12,15.33,0,29,3,41,9,8,4,14.67,8.67,20,14-14-1.33-28-1.67-42-1-10,.67-19.67,1.67-29,3l-10,2ZM685,572c-14-6-28.33-9.67-43-11-10-.67-22.67-.33-38,1l-20,3,11-10c8.67-7.33,17.33-13,26-17,12-6.67,23-10,33-10,12,0,20.67,3.67,26,11,4,6,6,13.33,6,22l-1,11ZM717,544c-2-5.33-5.33-10.33-10-15-3.33-3.33-7.33-6.33-12-9l-5-3c4.67-5.33,10.33-9.33,17-12,12.67-4,25.33-4.67,38-2,9.33,1.33,17,5,23,11,4.67,4.67,7,8.67,7,12,0,11.33-5.67,23.67-17,37-6,7.33-14.33,12.67-25,16-4.67,2-9,3.33-13,4l1-14c0-10.67-1.33-19-4-25ZM806,693c.67-4,1-7.67,1-11,0-25.33-25.33-47.33-76-66,11.33-2.67,23-3.33,35-2,15.33,2,28.67,6.33,40,13,14,7.33,22,16.33,24,27,3.33,17.33-4.67,30.33-24,39Z"/>
</svg>