<?xml version="1.0" encoding="UTF-8"?>
<svg id="_레이어_1" data-name="레이어_1" xmlns="http://www.w3.org/2000/svg" version="1.1" viewBox="0 0 1000 1000">
  <!-- Generator: Adobe Illustrator 30.6.0, SVG Export Plug-In . SVG Version: 2.1.4 Build 109)  -->
  <defs>
    <style>
      .st0 {
        fill: #fff;
      }
    </style>
  </defs>
  <path class="st0" d="M723,335h-38l-8,10c-6,8-12,14.33-18,19-7.33,6.67-13,10-17,10-7.33,0-13.33-4.67-18-14s-7-18.67-7-28v-161c0-8.67-2.33-18.67-7-30-2.67-8.67-6.67-17-12-25l-7-11-7,12c-4.67,8.67-8.67,17.33-12,26-4.67,11.33-7,20.67-7,28v172l-5,7c-4.67,5.33-11,10.67-19,16-12.67,8.67-26.33,14-41,16-14.67-2-28.33-7.33-41-16s-20.67-16.33-24-23v-172c0-7.33-2.33-16.67-7-28-3.33-8.67-7.33-17.33-12-26l-7-12-7,11c-5.33,8-9.33,16.33-12,25-4.67,11.33-7,21.33-7,30v161c0,9.33-2.33,18.67-7,28s-10.67,14-18,14c-4,0-9.67-3.33-17-10-6-4.67-12-11-18-19l-8-10h-38c-4,0-7.5,1.33-10.5,4s-4.17,6-3.5,10c0,2.67,24,57.67,72,165,35.33,78,54.67,121.33,58,130,4.67,12.67,18.33,53.33,41,122l19,56c3.33,8.67,8,16.33,14,23s11.33,10,16,10l17,1,17-1c4.67,0,10-3.33,16-10s10.67-14.33,14-23l19-56c22.67-68.67,36.33-109.33,41-122,3.33-8.67,22.67-52,58-130,48-107.33,72-162.33,72-165,0-4-1.33-7.33-4-10s-6-4-10-4ZM631,477c-3.33,9.33-11.33,21-24,35-11.33,13.33-22.67,23.67-34,31l-10,6c-8,4.67-14.5,8.83-19.5,12.5s-9.67,8.33-14,14-6.5,9.83-6.5,12.5,4.33,9.33,13,20c10.67,13.33,16,21.67,16,25v54c0,4-5.67,14-17,30-6.67,8.67-10.33,14.33-11,17-3.33,6.67-6,14.33-8,23s-3,15.17-3,19.5-2.33,7.83-7,10.5l-6,2-6-2c-4.67-2.67-7-6.17-7-10.5s-1-10.83-3-19.5-4.67-16.33-8-23c-.67-2.67-4.33-8.33-11-17-11.33-16-17-26-17-30v-54c0-3.33,5.33-11.67,16-25,8.67-10.67,13-17.33,13-20s-2.17-6.83-6.5-12.5-9-10.33-14-14-11.5-7.83-19.5-12.5l-10-6c-11.33-7.33-22.67-17.67-34-31-12.67-14-20.67-25.67-24-35l-10-39,6-9c5.33-7.33,10.67-12.67,16-16,11.33-7.33,21.33-11,30-11,1.33,0,6,4,14,12,14,15.33,25.17,24.83,33.5,28.5s16.17,6.5,23.5,8.5c5.33,1.33,10,2,14,2h8c4,0,8.67-.67,14-2,7.33-2,15.17-4.83,23.5-8.5s19.5-13.17,33.5-28.5c8-8,12.67-12,14-12,8.67,0,18.67,3.67,30,11,5.33,3.33,10.67,8.67,16,16l6,9-10,39Z"/>
</svg>