<?xml version="1.0" encoding="UTF-8"?>
<svg id="_레이어_1" data-name="레이어_1" xmlns="http://www.w3.org/2000/svg" version="1.1" viewBox="0 0 1000 1000">
  <!-- Generator: Adobe Illustrator 30.6.0, SVG Export Plug-In . SVG Version: 2.1.4 Build 109)  -->
  <defs>
    <style>
      .st0 {
        fill: #fff;
      }
    </style>
  </defs>
  <path class="st0" d="M849,685c-1.33-9.33-6-20.17-14-32.5s-14.33-15.5-19-9.5c2.67,6.67,2.33,11.5-1,14.5s-7.33,3.83-12,2.5-7.5-4.5-8.5-9.5,1.5-10.83,7.5-17.5c-16.67-16.67-39.33-39-68-67l-43-44c-2,.67-6.83,4.83-14.5,12.5s-12.83,12.5-15.5,14.5c-2,1.33-3.83,1.17-5.5-.5s-.17-6.5,4.5-14.5l4-7L261,125l-110,110,22,48,11-8,18,37,11-10,18,39,9-9,19,38,9-10,18,37,10-11,17,39,11-12,18,40,9-10,19,39,11-11,17,39,11-12,17,40,10-11,18,38,9-9,19,38,10-10,18,37,9-10,19,39,9-9,19,37,10-11,19,38,9-9,20,39,10-11,17,40,59-60,2,3c2.67,2,5.67,3.67,9,5s7.67,2,13,2,9.67-.83,13-2.5,5-3.17,5-4.5-1-2.83-3-4.5-3.33-3.5-4-5.5c-.67-3.33.17-8,2.5-14s6-9.83,11-11.5,11.33-.5,19,3.5,12.33,11,14,21,0,18.5-5,25.5-22.5,27.17-52.5,60.5l-19,20-8,9c-6,4.67-10,8.33-12,11-3.33,4.67-5,9.33-5,14,0,11.33,6.5,21.17,19.5,29.5s27.5,11.5,43.5,9.5c.67-1.33.67-4.33,0-9-1.33-11.33-.67-20.67,2-28l1-1c4.67-11.33,9.33-20.67,14-28,8-12.67,19.33-26.67,34-42,3.33-4,8.33-9.33,15-16,11.33-12,19-21.33,23-28,6-11.33,8.33-24,7-38ZM722,648c-5.33,0-9.67-1.67-13-5s-5-7.83-5-13.5,1.67-10.17,5-13.5,7.83-5,13.5-5,10.33,1.67,14,5,5.5,7.67,5.5,13c0,12.67-6.67,19-20,19Z"/>
</svg>