<?xml version="1.0" encoding="UTF-8"?>
<svg id="_레이어_1" data-name="레이어_1" xmlns="http://www.w3.org/2000/svg" version="1.1" viewBox="0 0 1000 1000">
  <!-- Generator: Adobe Illustrator 30.6.0, SVG Export Plug-In . SVG Version: 2.1.4 Build 109)  -->
  <defs>
    <style>
      .st0 {
        fill: #fff;
      }
    </style>
  </defs>
  <path class="st0" d="M783,146c-11.33,8-41.33,29.33-90,64-45.33,32.67-73.33,53-84,61-33.33,25.33-57,31.67-71,19-7.33-6.67-11.67-16.33-13-29-.67-11.33.83-21.67,4.5-31s12.17-19.67,25.5-31l5-5c2.67-2.67,3.83-8,3.5-16s-2.5-14.33-6.5-19c-3.33-2.67-10.33-3.33-21-2s-22.67,5-36,11c-14.67,7.33-28.67,16-42,26l-11,9c-36.67,28-66.33,52.33-89,73-30.67,28.67-62.67,63-96,103-18,22.67-33.67,43.33-47,62-36,30-61.5,67-76.5,111s-17.33,88.67-7,134c10.33,45.33,32,84.5,65,117.5s72.33,54.67,118,65,90.5,8,134.5-7,80.67-40.5,110-76.5c20.67-14.67,42-31,64-49,38.67-32,72-63.33,100-94,20.67-22,44.67-51,72-87l10-12c10-13.33,18.67-27.67,26-43,5.33-13.33,8.83-25.33,10.5-36s1.17-17.33-1.5-20c-4.67-4-11-6.33-19-7s-13.33.67-16,4l-5,5c-11.33,13.33-21.67,21.83-31,25.5s-19.67,4.83-31,3.5c-12.67-.67-22.33-4.67-29-12-12.67-14-6.33-37.67,19-71,8-12,28.33-40,61-84,34.67-48.67,56-79,64-91,6.67-10.67,12-28,16-52,2.67-13.33,4.33-26.33,5-39l1-1-18,2c-14,1.33-26.67,3.33-38,6-16,4-28,8.33-36,13ZM369,797c-33.33,0-64-9.33-92-28s-48.5-43.5-61.5-74.5-16.17-63-9.5-96,21.83-61.5,45.5-85.5c23.67-24,52.17-39.33,85.5-46s65.5-3.5,96.5,9.5,55.83,33.5,74.5,61.5c18.67,28,28,59,28,93,0,30-7.5,57.67-22.5,83s-35.17,45.5-60.5,60.5-53.33,22.5-84,22.5ZM674,378c-18.67,28-30.33,51.67-35,71-6,24-2,43.67,12,59,7.33,8.67,20.67,13.33,40,14,14,.67,30-.33,48-3l23-5c-6.67,10.67-14.67,20.67-24,30l-8,10c-17.33,22.67-33,41-47,55-18,18-42.33,39.67-73,65,7.33-39.33,5-78.17-7-116.5s-32.17-71.67-60.5-100-61.67-48.5-100-60.5-77.17-14.33-116.5-7c25.33-31.33,47.33-56,66-74,14-14,32-29.67,54-47l10-8c9.33-9.33,19.67-17.67,31-25l-5,24c-3.33,18-4.67,34-4,48,1.33,19.33,6.33,32.67,15,40,15.33,14,35,18,59,12,19.33-4.67,42.67-16.33,70-35,26.67-17.33,92.67-65.67,198-145l-1,1c-80,106.67-128.33,172.33-145,197Z"/>
</svg>