<?xml version="1.0" encoding="UTF-8"?>
<svg id="_레이어_1" data-name="레이어_1" xmlns="http://www.w3.org/2000/svg" version="1.1" viewBox="0 0 1000 1000">
  <!-- Generator: Adobe Illustrator 30.6.0, SVG Export Plug-In . SVG Version: 2.1.4 Build 109)  -->
  <defs>
    <style>
      .st0 {
        fill: #fff;
      }
    </style>
  </defs>
  <path class="st0" d="M820,222c-22.67,32-45.33,63.67-68,95l-2,5c-2.67,4.67-7,10.67-13,18-8,9.33-18.67,20.67-32,34l-339,336c30.67,19.33,63.83,30.33,99.5,33s70-3.17,103-17.5,60.83-35.33,83.5-63,37.67-59.17,45-94.5c2.67-15.33,8.67-26.33,18-33,7.33-5.33,15.5-7.67,24.5-7s16.83,4.33,23.5,11c8.67,8,12,18.33,10,31-9.33,60-31.67,110-67,150,0,3.33,1.33,9.67,4,19,4.67,16,7,28,7,36,.67,13.33-2.67,23-10,29-6.67,5.33-15,6-25,2-6-2-15.33-6.67-28-14-8-4.67-13.33-7.67-16-9-5.33-2.67-9-3.33-11-2-51.33,28.67-106.17,41.17-164.5,37.5-58.33-3.67-110.83-23.17-157.5-58.5l-1,1c-45.33,32.67-76.33,54.33-93,65-8.67,6-15.67,9.67-21,11-4.67.67-8,.67-10,0l-6-6c-1.33-2.67-1.33-6,0-10,1.33-6,4.67-13,10-21,13.33-18.67,36-50.33,68-95l3-5c2.67-4.67,6.67-10.67,12-18,8.67-10,19.67-21.67,33-35l306-303c-33.33-22.67-70.33-35.33-111-38-40.67-2.67-79,5.5-115,24.5s-64.5,46-85.5,81-31.5,72.83-31.5,113.5c0,11.33-2.33,21.33-7,30-5.33,9.33-13.83,14.5-25.5,15.5s-21.83-3-30.5-12-13-20.17-13-33.5c0-44,9-85.33,27-124s43.33-72,76-100,69.67-48,111-60c2-.67,4-3.33,6-8,1.33-3.33,3.33-9.33,6-18,4.67-16,8.67-27.33,12-34,5.33-12,12-18.33,20-19s16.67,4.67,26,16c4.67,6.67,11.33,17.67,20,33,7.33,13.33,12,20,14,20,58,4,110,23.67,156,59,19.33-17.33,31.67-26.33,37-27l96-68c8.67-5.33,15.67-8.67,21-10,4-1.33,7.33-1.33,10,0l6,6c1.33,2.67,1.33,6,0,10-1.33,6-5,13-11,21Z"/>
</svg>