<?xml version="1.0" encoding="UTF-8"?>
<svg id="_레이어_1" data-name="레이어_1" xmlns="http://www.w3.org/2000/svg" version="1.1" viewBox="0 0 1000 1000">
  <!-- Generator: Adobe Illustrator 30.6.0, SVG Export Plug-In . SVG Version: 2.1.4 Build 109)  -->
  <defs>
    <style>
      .st0 {
        fill: #fff;
      }
    </style>
  </defs>
  <path class="st0" d="M868,301c-1.33,0-5.83.67-13.5,2s-14.5,2.33-20.5,3c-1.33-22-11.17-43.17-29.5-63.5-18.33-20.33-38.17-32.5-59.5-36.5-13.33-2-26.33.33-39,7-10.67,6-18.67,13.83-24,23.5s-5.33,16.83,0,21.5c1.33,1.33,5.67,2.67,13,4,10,1.33,17.33,3,22,5,8.67,4,14.33,10.33,17,19,5.33,14.67,6,26.83,2,36.5s-10.67,16.17-20,19.5l-97,29c-7.33,2.67-17.33,6.33-30,11-16,6-28.67,10-38,12-15.33,4-32.33,6-51,6s-35.67-2-51-6c-9.33-2-21.67-6-37-12-12.67-4.67-22.33-8-29-10l-32-10c-64-19.33-110-33-138-41-48-14-75-20.67-81-20-24.67,2.67-29.33,26.33-14,71l1,2c16,50,36.33,94.67,61,134,34,54.67,69,84.33,105,89,28,4,54.33,2.33,79-5,15.33-4,35.33-12.67,60-26,16-8,28-13.67,36-17,14-6,27.33-9.33,40-10,12,.67,24.67,3.67,38,9,8,3.33,19.33,8.67,34,16-11.33,21.33-28,52.67-50,94-25.33,48.67-39.67,76.67-43,84l-7,15c-4.67,10-7.67,17.33-9,22-2,6.67-1.17,11.33,2.5,14s9.17,1.33,16.5-4c4-3.33,9.33-8.67,16-16l3-3c12.67-12.67,35.33-38.67,68-78,42.67-50,70.67-81,84-93,20.67,1.33,41.33.67,62-2,36-4.67,71-34.33,105-89,24.67-39.33,45-84,61-134l1-2c5.33-15.33,8.33-28.33,9-39,.67-19.33-7-30-23-32ZM290,521c-21.33-2.67-40-13.67-56-33-12.67-14.67-23-33.33-31-56-6-18.67-8.67-33.33-8-44,.67-7.33,20-5.33,58,6,32,10,68,23.83,108,41.5s63,29.67,69,36,1.83,14-12.5,23-32.83,16.17-55.5,21.5c-26,6-50,7.67-72,5ZM710,521c-22,2.67-46,1-72-5-22.67-5.33-41.17-12.5-55.5-21.5s-18.5-16.67-12.5-23,29-18.33,69-36,76-31.5,108-41.5c38-11.33,57.33-13.33,58-6,.67,10.67-2,25.33-8,44-8,22.67-18.33,41.33-31,56-16,19.33-34.67,30.33-56,33Z"/>
</svg>