<?xml version="1.0" encoding="UTF-8"?>
<svg id="_레이어_1" data-name="레이어_1" xmlns="http://www.w3.org/2000/svg" version="1.1" viewBox="0 0 1000 1000">
  <!-- Generator: Adobe Illustrator 30.6.0, SVG Export Plug-In . SVG Version: 2.1.4 Build 109)  -->
  <defs>
    <style>
      .st0 {
        fill: #fff;
      }
    </style>
  </defs>
  <path class="st0" d="M801,424c-1.33,24-5.67,44.83-13,62.5s-18.67,36.17-34,55.5c-10,12.67-29.33,34.33-58,65l-19,19c-36,39.33-66.33,75.33-91,108-14,19.33-24.67,35.67-32,49-4.67,8.67-10.5,21.67-17.5,39s-12.5,29.33-16.5,36c-6.67,9.33-14,14-22,14s-15.33-4.67-22-14c-3.33-6.67-8.67-18.67-16-36s-13.33-30.33-18-39c-22.67-40.67-63.67-93-123-157l-19-19c-28.67-30.67-48-52.33-58-65-15.33-19.33-26.67-37.83-34-55.5s-11.67-38.5-13-62.5c-2.67-35.33,4.67-65.33,22-90,15.33-22.67,35.33-37,60-43,33.33-8,65.33-22.33,96-43,49.33-33.33,91-81,125-143,34,62,75.67,109.67,125,143,30.67,20.67,62.67,35,96,43,24.67,6,44.67,20.33,60,43,17.33,24.67,24.67,54.67,22,90ZM736,409c-2-20.67-8.67-37-20-49-10-10-22.5-16-37.5-18s-29.83-.33-44.5,5c-20,6-32.33,20.33-37,43-2.67,13.33-2.67,33.67,0,61,1.33,14.67,2,24.33,2,29-.67,8-3,12.33-7,13-10,2-20.67-3.33-32-16-10.67-10.67-20-24.5-28-41.5s-13.33-31.5-16-43.5c-.67-4-.33-9.67,1-17,1.33-10,4-19.33,8-28,4-10.67,13.33-21.67,28-33,12.67-9.33,22-14.33,28-15-6.67-2-22.33-15.67-47-41l-36-38h-1c-44.67,49.33-72,75.67-82,79,6,.67,15.33,5.67,28,15,14.67,11.33,24,22.33,28,33,4,8.67,6.67,18,8,28,1.33,7.33,1.67,13,1,17-2,12-7.17,26.5-15.5,43.5s-17.5,30.83-27.5,41.5c-12,12.67-23,18-33,16-4-.67-6.33-5-7-13,0-4.67.67-14.33,2-29,2.67-27.33,2.67-47.67,0-61-4.67-22.67-17-37-37-43-14.67-5.33-29.5-7-44.5-5s-27.5,8-37.5,18c-11.33,12-18,28.33-20,49-2.67,25.33,4.33,51.67,21,79,10,16,28.33,38.67,55,68l16,17c22,24.67,51,53,87,85,18.67,17.33,31.33,29.67,38,37,10.67,11.33,17.67,22,21,32,3.33-10,10.33-20.67,21-32,6.67-7.33,19.33-19.67,38-37,36-32,65-60.33,87-85l16-17c26.67-28.67,45-51.33,55-68,16.67-27.33,23.67-53.67,21-79Z"/>
</svg>