<?xml version="1.0" encoding="UTF-8"?>
<svg id="_레이어_1" data-name="레이어_1" xmlns="http://www.w3.org/2000/svg" version="1.1" viewBox="0 0 1000 1000">
  <!-- Generator: Adobe Illustrator 30.6.0, SVG Export Plug-In . SVG Version: 2.1.4 Build 109)  -->
  <defs>
    <style>
      .st0 {
        fill: #fff;
      }
    </style>
  </defs>
  <path class="st0" d="M248,552c0-8-2.5-14.83-7.5-20.5s-11.17-8.5-18.5-8.5-13.5,2.83-18.5,8.5-7.5,12.5-7.5,20.5,2.5,14.67,7.5,20,11.17,8,18.5,8,13.5-2.67,18.5-8,7.5-12,7.5-20ZM352,332c8.67,0,16.17-3.33,22.5-10s9.5-14.67,9.5-24-3.17-17.33-9.5-24-13.83-10-22.5-10-16,3.33-22,10-9,14.67-9,24,3,17.33,9,24,13.33,10,22,10ZM536,257c8,0,14.83-3.17,20.5-9.5s8.5-13.83,8.5-22.5-2.83-16.17-8.5-22.5-12.5-9.5-20.5-9.5-14.83,3.17-20.5,9.5c-5.67,6.33-8.5,13.83-8.5,22.5s2.83,16.17,8.5,22.5c5.67,6.33,12.5,9.5,20.5,9.5ZM737,299c7.33,0,13.67-2.67,19-8s8-12,8-20-2.67-14.83-8-20.5c-5.33-5.67-11.67-8.5-19-8.5s-13.5,2.83-18.5,8.5c-5,5.67-7.5,12.5-7.5,20.5s2.5,14.67,7.5,20,11.17,8,18.5,8ZM859,260c-4.67,4.67-9.33,9.67-14,15-10.67,10-18.33,16.67-23,20-2.67,1.33-6.33,3-11,5l-7,2-7,4c-5.33,4-9.67,6.33-13,7-6.67,2.67-15.33,4.67-26,6s-20.67,2-30,2c-7.33,0-13.33-.33-18-1l-4-1c.67-2,1.83-4.17,3.5-6.5s3.83-4.5,6.5-6.5v-2c0-.67-.33-1.5-1-2.5s-3.33,0-8,3-8.67,5.83-12,8.5c-3.33-4-6.17-8.33-8.5-13s-4.17-11-5.5-19c-2-9.33-2.67-18.33-2-27,2-26,6.67-45.33,14-58,4-6.67,8.67-14.67,14-24l8-11c-4,.67-7.83,1.83-11.5,3.5s-10.17,6.83-19.5,15.5c-10.67,10-18,18.67-22,26-9.33,14-13.67,26.67-13,38,0,5.33,2,12.67,6,22,2.67,8,5.33,14,8,18,7.33,12,15.67,23,25,33l-11,11c-8,8-14,14.33-18,19-5.33,6-10.67,17.67-16,35l-1,2c-2,4-5,7-9,9l-7,3c-5.33,2-9,3.67-11,5-5.33,4-10.33,8-15,12-5.33-5.33-9-12-11-20-2-10.67-7-26-15-46-2.67-6-6-13-10-21l-5-11,10-12c8-8.67,13.67-15.67,17-21,4.67-8,9.67-18.33,15-31,6.67-15.33,10.67-26.67,12-34,2-16-1-33-9-51-5.33-10.67-11.5-19.83-18.5-27.5s-15.83-15.83-26.5-24.5c-8.67-8-14.33-12.67-17-14s-4.33-1.67-5-1l4,5c11.33,14,18.5,24.67,21.5,32s4.17,17.33,3.5,30l-2,17,5,6c4,4.67,6.5,9.5,7.5,14.5s1.33,12.83,1,23.5-1.17,19.67-2.5,27c-2,10-4.67,19-8,27-2.67,6-5.67,11.33-9,16l-4,5-3-4-3-4-1-5c-.67-4-1.67-7-3-9s-2.83-3.83-4.5-5.5-3.17-2.17-4.5-1.5-1.5,2.17-.5,4.5,1.5,4.83,1.5,7.5-1,4-3,4c-4-6.67-8.33-12.67-13-18l-8-8c-19.33-22.67-35.67-39.17-49-49.5s-26.83-18.83-40.5-25.5-25-10-34-10-16.5,1.67-22.5,5c-4.67,2.67-11,7.67-19,15l-10,9c-3.33,3.33-5.67,5.83-7,7.5s-2,4.5-2,8.5l6-4c4.67-2.67,11-4,19-4,10,0,24,6.67,42,20l28,19,16-2c11.33-1.33,19.67-1,25,1,13.33,4,23.33,9,30,15,4,3.33,9.33,9,16,17,6.67,8,10.33,12.33,11,13,1.33,5.33,2.67,8.33,4,9l2,1c6,4,10.67,8,14,12,6.67,7.33,12.67,19,18,35,7.33,20.67,11,39.67,11,57,0,5.33-.83,13.33-2.5,24s-2.5,19-2.5,25c-.67,19.33-8.67,41.67-24,67-3.33,5.33-5,8.33-5,9l3,5c6.67,10,11,18.33,13,25,.67,3.33,2.17,7.33,4.5,12s3.17,8,2.5,10c-.67,3.33-4,7.33-10,12-6.67,4.67-13.67,8.67-21,12l2,4c2.67,2,6,4,10,6l4,1c8.67,3.33,15.33,7,20,11,2.67,2.67,6,6.5,10,11.5s6,8.17,6,9.5c-10.67-7.33-21.67-13.67-33-19-6-2.67-14-5.67-24-9-8-2-14.33-4-19-6-24-10-47-22.33-69-37-14.67-10-27.67-22-39-36-6.67-2-13.33-5-20-9l-4-2c-6.67-4-10.5-7.5-11.5-10.5s-1.17-8.17-.5-15.5l2-11-9-26c-5.33-18-8.33-30.67-9-38-1.33-10-2-20.33-2-31l12-14c9.33-9.33,17-15.33,23-18,15.33-7.33,28.67-11,40-11,3.33,0,10.67,1,22,3l8,1c1.33,0,6.17-3.17,14.5-9.5s15.17-12.5,20.5-18.5l14-17c8.67-10,13.33-15.83,14-17.5s1.33-3.83,2-6.5l-12,7c-8.67,3.33-17.33,5-26,5-4,0-11.33-.67-22-2l-8-1c-2.67,0-8.33,1.67-17,5-11.33,4.67-22.33,10.83-33,18.5s-20.33,15.83-29,24.5c-6.67,6.67-12.33,13.33-17,20l-5,8c-1.33-3.33-2-6.67-2-10,0-6.67,1-13,3-19,0-2.67-1-4.5-3-5.5s-4.5.67-7.5,5-5.33,8.67-7,13-2.17,8.83-1.5,13.5l-4-1c-2.67-2-5.33-4.33-8-7v-1c-8-11.33-13.33-19.67-16-25-5.33-13.33-8-27.33-8-42,0-7.33,1-14,3-20,1.33-4.67,3-8.67,5-12l4-4c-3.33-11.33-4.67-22.67-4-34,.67-8,1.67-14.33,3-19l1-4c.67-5.33,1.67-10.33,3-15s3-8.67,5-12,3-6.67,3-10l-10,9c-9.33,8.67-18.67,19-28,31-11.33,14-19.33,26.33-24,37-4.67,10.67-7.33,21.67-8,33-.67,24.67,11,48.67,35,72l45,44c-.67,7.33-1,15-1,23,.67,10,2.33,20,5,30,5.33,17.33,8,35,8,53,0,12-1,24-3,36-1.33,10-2.5,16.17-3.5,18.5s-1.5,4.83-1.5,7.5h8c6.67.67,11.33,1.67,14,3l8,4,3,1c2.67.67,4.33,1.33,5,2l32,38c10.67,12,22,23,34,33l15,12c-3.33,0-6.67-.33-10-1-6.67-1.33-14-4-22-8-5.33-3.33-10.33-7.33-15-12-12.67,3.33-22.33,4.83-29,4.5s-15-2.17-25-5.5c-13.33-4-24.5-9.67-33.5-17s-16.17-14.67-21.5-22c-4-4.67-7.33-9.33-10-14l-2-5,2-23c2-15.33,1.33-34.67-2-58-1.33-8.67-5.5-22.67-12.5-42s-13.33-33.5-19-42.5-14.17-16.33-25.5-22-22.33-8.5-33-8.5c-20.67,0-36,3.67-46,11,18.67,3.33,34.33,12,47,26,10,12,21,29.67,33,53,6.67,1.33,12.33,4,17,8,14.67,11.33,24.33,27.33,29,48,.67,5.33,1.33,12.67,2,22l1,12c0,2-.67,3-2,3l-3-1-4-3c-2.67-2-4.67-2.67-6-2-1.33.67-2,2-2,4l3,7c2,5.33,2.33,9,1,11-12,.67-23.33,4-34,10-8,5.33-18.67,15.67-32,31s-22.33,28.33-27,39c-7.33,16.67-9.67,35-7,55,.67,8,5,18.33,13,31l11,17,3-18c2.67-12.67,5-21.5,7-26.5s6.67-12.83,14-23.5l9-15v-25c.67-16.67,1.17-26,1.5-28s3-6.83,8-14.5,9.5-13.17,13.5-16.5c7.33-6,15.67-9,25-9l9,11c7.33,8.67,14.33,16.67,21,24,16,17.33,30,30,42,38,10,6,25.67,14.33,47,25,9.33,4.67,18.33,11.33,27,20l11,11,10-7c7.33-5.33,13.67-9,19-11s12.83-3.67,22.5-5,17.83-2,24.5-2c11.33,0,23,3,35,9,8,4,18,11,30,21l17,16c12.67,12.67,22.33,24.33,29,35,8,14.67,14,27.33,18,38,5.33,12.67,8.5,25.33,9.5,38s1.83,25,2.5,37v5l2,7c4.67-4.67,9.67-9.17,15-13.5s11-8.17,17-11.5c10-14,21.33-26.33,34-37,18.67-14.67,35.33-23.33,50-26,6.67-1.33,14.17-1.83,22.5-1.5s14.67,1,19,2,8.17,3.17,11.5,6.5,5.33,7.17,6,11.5.67,7.83,0,10.5l-1,4c5.33-1.33,9-4.33,11-9s2-9.83,0-15.5-4.67-9.83-8-12.5v-1c-4.67-4.67-8.67-8-12-10-6-4-13.33-6.67-22-8-12-1.33-22.67-3.67-32-7l-36-12c-6-2-12-4.33-18-7-2-1.33-7.33-7.33-16-18l-14-17-14-14c-6-6.67-9.67-11-11-13l-2-2c-6-8.67-9.83-16.17-11.5-22.5s-2.17-13.33-1.5-21,2-13.67,4-18,6.33-7.83,13-10.5c4.67-2,10-3.33,16-4l8-1c-.67-6-3.67-10.67-9-14-2.67-2-7.67-3.83-15-5.5s-12.67-3.5-16-5.5c-9.33-5.33-18-14-26-26-9.33-14-14-29-14-45s5.33-35.83,16-59.5,20.17-38,28.5-43,19.17-7.5,32.5-7.5c1.33,0,2.67-.67,4-2l2-1-3-8c-2.67-8-3-16-1-24,.67-6,2.83-13,6.5-21s7.5-14,11.5-18c5.33-5.33,11.33-10,18-14l17,5c13.33,3.33,25,5.33,35,6,18.67,2,35,1.67,49-1,5.33-1.33,11.17-3.83,17.5-7.5s11.67-7.5,16-11.5,9-11.33,14-22,8.17-19.33,9.5-26v-12ZM706,475c-8,0-15,3.33-21,10s-9,14.5-9,23.5,3,16.83,9,23.5,13.17,10,21.5,10,15.33-3.33,21-10,8.5-14.5,8.5-23.5-2.83-16.83-8.5-23.5-12.83-10-21.5-10ZM707,551c-8,0-14.83,3-20.5,9s-8.5,13.33-8.5,22,2.83,16,8.5,22,12.5,9,20.5,9,14.83-3,20.5-9,8.5-13.33,8.5-22-2.83-16-8.5-22-12.5-9-20.5-9ZM644,515c-9.33,0-17.33,3.67-24,11s-10,16-10,26,3.33,18.5,10,25.5,14.5,10.5,23.5,10.5,16.83-3.5,23.5-10.5,10-15.5,10-25.5-3.33-18.67-10-26-14.33-11-23-11Z"/>
</svg>