<?xml version="1.0" encoding="UTF-8"?>
<svg id="_레이어_1" data-name="레이어_1" xmlns="http://www.w3.org/2000/svg" version="1.1" viewBox="0 0 1000 1000">
  <!-- Generator: Adobe Illustrator 30.6.0, SVG Export Plug-In . SVG Version: 2.1.4 Build 109)  -->
  <defs>
    <style>
      .st0 {
        fill: #fff;
      }
    </style>
  </defs>
  <path class="st0" d="M211,488l-30,70-32-14c-.67-8.67-.33-17,1-25,2.67-15.33,8.67-29,18-41,5.33-6,11.33-11.67,18-17l31,14-6,13ZM226,554c-4.67-1.33-11-3-19-5l-7-1,23-53,6,5c6.67,4.67,12,8,16,10,6,3.33,16.33,7,31,11s25.67,7.67,33,11c25.33,11.33,49.67,24.67,73,40l-19,41c-26.67-6.67-52.67-15.33-78-26-7.33-3.33-17.5-9-30.5-17s-22.5-13.33-28.5-16ZM491,710c5.33,1.33,14,3.33,26,6,25.33,4.67,45,9.67,59,15,16,6,40,17.67,72,35,27.33,15.33,48.33,26,63,32,24,10,48.67,17.67,74,23,20.67,4,41,6.33,61,7,14.67.67,28.67.67,42,0l16-2-10-13c-8-10.67-17-21-27-31-14.67-14.67-30.33-28-47-40-21.33-15.33-43.67-28.67-67-40-14-6-36-14-66-24-34.67-12-59.67-21.67-75-29-12.67-6.67-29.67-18-51-34l-22-15c-24-16-44.33-29-61-39l-57,130,19,6c16,4.67,33,9,51,13ZM466,519l-84,192-22-9,30-68-12-5c-2-.67-3.33-2.33-4-5l22-52c2.67-1.33,5.33-1.33,8,0l11,5,30-68,21,10ZM813,456l-24,55-6,14,32,14c6-5.33,11.67-11,17-17,9.33-12,15.33-25.67,18-41,1.33-8,1.67-16.33,1-25l-32-14-6,14ZM755,490c4,2,9.33,5.33,16,10l6,5,23-53-7-1c-8-2-14.33-3.67-19-5-6-2.67-15.5-8-28.5-16s-23.17-13.67-30.5-17c-25.33-10.67-51.33-19.33-78-26l-19,41c23.33,15.33,47.67,28.67,73,40,7.33,3.33,18.33,7,33,11s25,7.67,31,11ZM461,400c-4.67-2.67-12-7.67-22-15-21.33-16-38.33-27.33-51-34-15.33-7.33-40.33-17-75-29-30-10-52-18-66-24-23.33-11.33-45.67-24.67-67-40-16.67-12-32.33-25.33-47-40-10-10-19-20.33-27-31l-9-13,15-2c13.33-.67,27.33-.67,42,0,20.67.67,41,3,61,7,25.33,5.33,50,13,74,23,14.67,6,35.67,16.67,63,32,32,17.33,56,29,72,35,14,5.33,33.67,10.33,59,15l27,6c17.33,4,34,8.33,50,13l19,6-56,130-18-11c-14.67-8.67-29.33-18-44-28ZM618,289l-84,192,22,10,29-68,11,5c2.67,1.33,5.33,1.33,8,0l22-52c-.67-2.67-2-4.67-4-6l-11-4,29-68-22-9Z"/>
</svg>