<?xml version="1.0" encoding="UTF-8"?>
<svg id="_레이어_1" data-name="레이어 1" xmlns="http://www.w3.org/2000/svg" viewBox="0 0 1000 1000">
  <defs>
    <style>
      .cls-1 {
        fill: #fff;
      }
    </style>
  </defs>
  <path class="cls-1" d="M749,685c-43.33-44-92-97.67-146-161-38.67-45.33-67-80.33-85-105-32.67-42-60-81-82-117l-10-15c-2.67-3.33-10-1-22,7l-3,2c-4,2.67-6.67,3.17-8,1.5s-.67-3.5,2-5.5l18-13c14-10.67,21.17-17.33,21.5-20s-1.67-8.33-6-17-9.5-16.67-15.5-24-10.5-11-13.5-11-9.83,2.67-20.5,8l-27,13c-4,1.33-6.33,1.17-7-.5s3.67-6.17,13-13.5c7.33-5.33,11.33-9,12-11s-1.83-8.33-7.5-19-9.67-16.5-12-17.5-7.67.33-16,4-16.17,8.17-23.5,13.5-11,9.5-11,12.5,9,17.17,27,42.5c-18,7.33-35.33,12-52,14-14.67,2-35,2-61,0,3.33,19.33,10.67,38.67,22,58,10,16.67,23,33.33,39,50l3,3c-1.33.67-6.33-2.33-15-9-10.67-8.67-21-19.67-31-33-16-21.33-28-44.67-36-70-11.33-2-23.33-6.33-36-13-8.67-4.67-17-10.33-25-17l-10-9,1,13c1.33,11.33,3.67,23,7,35,4.67,17.33,10.67,34.67,18,52,10,21.33,22.67,41.67,38,61,16,22,35,42.33,57,61,16,12.67,32.67,24,50,34l21,11-2-21c-.67-16.67,0-32.67,2-48,3.33-21.33,9.33-39.67,18-55,11.33-19.33,25.67-36,43-50,29.33,38.67,70,91.33,122,158l45,58c56,70.67,91.67,116.33,107,137,16.67,23.33,34,49.33,52,78,20.67,33.33,33.33,57.33,38,72l1,1c5.33,15.33,8.67,23.33,10,24,3.33.67,9.33-3.33,18-12s16-18.67,22-30c13.33-25.33,18.67-43,16-53-.67-2.67-6-8-16-16-18-13.33-32.67-26-44-38ZM469,443c-.67-.67-1.67-.83-3-.5s-2.33.83-3,1.5c-76,94-146.67,174.33-212,241-11.33,12-25.67,24.67-43,38-10.67,8-16.33,13.33-17,16-2.67,10,2.67,27.67,16,53,6,11.33,13.33,21.33,22,30s14.67,12.67,18,12c2-.67,5.67-9,11-25,5.33-14.67,18-38.67,38-72,18-28.67,35.17-54.33,51.5-77s54.5-71.67,114.5-147l28-36c2-2,2.33-4,1-6l-22-28ZM875,213c-3.33,3.33-6.67,6.33-10,9-8,6.67-16.33,12.33-25,17-12.67,6.67-24.67,11-36,13-8,25.33-20,48.67-36,70-6.67,9.33-14,17.67-22,25-6,5.33-11.33,9.5-16,12.5s-7.33,4.5-8,4.5l3-3c16-16.67,29-33.33,39-50,11.33-19.33,18.67-38.67,22-58-26,2-46.33,2-61,0-16.67-2-34-6.67-52-14,18-25.33,27-39.5,27-42.5s-3.67-7-11-12-15.17-9.5-23.5-13.5-13.83-5.5-16.5-4.5-6.67,6.83-12,17.5-7.67,17-7,19,4.67,5.67,12,11c8.67,7.33,12.83,11.67,12.5,13s-2.5,1.67-6.5,1l-27-13c-10.67-4.67-17.5-7.17-20.5-7.5s-7.5,3.17-13.5,10.5-11.17,15.33-15.5,24-6.33,14.33-6,17,7.5,9.33,21.5,20l18,13c2.67,2.67,3.33,4.67,2,6s-4,.67-8-2l-3-2c-12-8-19.33-10.33-22-7-1.33,2-6.67,9.67-16,23-20,31.33-36,54.67-48,70-2,3.33-1.67,6.33,1,9l21,26c.67.67,1.83,1,3.5,1s2.83-.67,3.5-2c12.67-15.33,40.33-51.33,83-108,17.33,14.67,31.67,31.33,43,50,8.67,15.33,14.67,33.67,18,55,2,15.33,2.67,31.33,2,48l-2,21,21-11c17.33-10,34-21.33,50-34,22-18.67,41-38.67,57-60,15.33-20,28-40.67,38-62,7.33-17.33,13.33-34.67,18-52,3.33-12,5.67-23.67,7-35l1-13Z"/>
</svg>