<?xml version="1.0" encoding="UTF-8"?>
<svg id="_레이어_1" data-name="레이어_1" xmlns="http://www.w3.org/2000/svg" version="1.1" viewBox="0 0 1000 1000">
  <!-- Generator: Adobe Illustrator 30.6.0, SVG Export Plug-In . SVG Version: 2.1.4 Build 109)  -->
  <defs>
    <style>
      .st0 {
        fill: #fff;
      }
    </style>
  </defs>
  <path class="st0" d="M839,442c-4-6-9-12-15-18-24-7.33-40.33-1.67-49,17-4,8.67-6.33,20-7,34-.67,12,0,20,2,24,8.67,20,13,36,13,48,0,22-8,41-24,57s-35.17,24-57.5,24-41.5-8-57.5-24-24-35-24-57c0-24,5-45.33,15-64,8.67-14.67,21.33-28.67,38-42,10-8.67,26.33-19.67,49-33,16-10,28-17.67,36-23l-4-3c-16.67-12.67-31-22.33-43-29-21.33-10.67-46.67-18.67-76-24-36.67-7.33-81.67-11-135-11s-98.33,3.67-135,11c-29.33,5.33-54.67,13.33-76,24-12,6.67-26.33,16.33-43,29l-4,3c8,5.33,20,13,36,23,22.67,13.33,39,24.33,49,33,16.67,13.33,29.33,27.33,38,42,10,18.67,15,40,15,64,0,22.67-8,41.83-24,57.5s-35.17,23.5-57.5,23.5-41.5-7.83-57.5-23.5-24-34.83-24-57.5c0-12,4.33-28,13-48,2-4,2.67-12,2-24-.67-14-3-25.33-7-34-8.67-18.67-25-24.33-49-17-6,6-11,12-15,18-10,14.67-18.33,31-25,49-7.33,20-11,38.67-11,56,0,40.67,12.67,77,38,109s58,52.33,98,61,78.17,4,114.5-14,63.17-45.5,80.5-82.5,21-75.33,11-115c-10-39.67-31-71.83-63-96.5,15.33-6,31.67-10.33,49-13,11.33-2,27-3.33,47-4,20,.67,35.67,2,47,4,17.33,2.67,33.67,7,49,13-32.67,24.67-53.83,56.83-63.5,96.5-9.67,39.67-5.83,78,11.5,115s44.17,64.5,80.5,82.5,74.5,22.5,114.5,13.5,72.67-29.33,98-61,38-67.83,38-108.5c0-17.33-3.67-36-11-56-6.67-18-15-34.33-25-49Z"/>
</svg>