<?xml version="1.0" encoding="UTF-8"?>
<svg id="_레이어_1" data-name="레이어_1" xmlns="http://www.w3.org/2000/svg" version="1.1" viewBox="0 0 1000 1000">
  <!-- Generator: Adobe Illustrator 30.6.0, SVG Export Plug-In . SVG Version: 2.1.4 Build 109)  -->
  <defs>
    <style>
      .st0 {
        fill: #fff;
      }
    </style>
  </defs>
  <path class="st0" d="M539,502l222-222h14c6,3.33,12.83,4.83,20.5,4.5s14.5-3.17,20.5-8.5c8-6,13.33-14,16-24,2-6,3.33-15,4-27,.67-8,1.33-13.67,2-17,1.33-6,3.33-10.67,6-14,6.67-7.33,15.67-14,27-20,2.67-1.33,4-2.33,4-3s-2.17-1-6.5-1-9.83.83-16.5,2.5-13.67,5.33-21,11-11.33,10.5-12,14.5l-1,6c-1.33,8.67-4.33,15.33-9,20-8.67,8.67-18.67,12.33-30,11-10-.67-18-4-24-10-3.33-3.33-5.67-8.67-7-16-.67-5.33-.67-11,0-17l1-9-18-3c-16-1.33-32.33-1.67-49-1-24,.67-47.33,4-70,10-26,6-53,15.67-81,29-15.33,8-35,18.67-59,32-14,8.67-22.67,13.33-26,14-10.67,3.33-26.33,3.67-47,1-10-2-20.33-6-31-12l-4-3c-6-.67-12-.67-18,0-1.33,0-2,.33-2,1s1,2,3,4l43,44c4.67,4,5.5,7.5,2.5,10.5s-7.17,4.17-12.5,3.5c-3.33,0-7.5-1-12.5-3s-7.83-2.67-8.5-2l-8,8c-.67.67-.67,1.67,0,3l37,37c1.33,1.33,3,1.33,5,0l22-22c2.67-2.67,5.67-2.67,9,0l21,22c2,2,4.33.67,7-4,9.33-19.33,21-37,35-53s34.67-29.83,62-41.5c27.33-11.67,57.33-19.83,90-24.5,22.67-4,44.67-3.33,66,2,16.67,4,31.67,10.33,45,19v16l-221,221c-1.33.67-2,1.5-2,2.5s.33,1.83,1,2.5l7,7c1.33,1.33,2.67,1,4-1ZM172,875l2-4c6-11.33,12.67-20.33,20-27,3.33-2.67,7.67-4.33,13-5,4-.67,9.67-1.33,17-2,12.67-1.33,22-2.67,28-4,10-3.33,18-9,24-17,4.67-5.33,7.33-11.83,8-19.5s-1-14.5-5-20.5v-14l234-234,208,209,2,43,10,10,1-20c0-3.33,1.67-5.67,5-7l-1,32,69,69-2-49,10-10,49,2-69-69-32,1c1.33-3.33,3.67-5,7-5l19-1-10-11-42-1-462-462c-25.33-24.67-37.67-40.33-37-47,.67-3.33,3.67-5.67,9-7,2-.67,4.33-1,7-1L125,125l78,129,2-7c1.33-5.33,3.67-8,7-8,6.67-1.33,22.33,10.67,47,36l67,67-18,17c-.67.67-.17,3.5,1.5,8.5s2.83,9.17,3.5,12.5c.67,6-.5,10.33-3.5,13s-6.5,2-10.5-2l-44-44c-2-2-3.33-3-4-3s-1,1-1,3c-.67,5.33-.67,11,0,17l3,4c6,10.67,10,21,12,31,2.67,20.67,2.33,36.33-1,47-.67,3.33-5.33,12.33-14,27-13.33,23.33-24,43-32,59-13.33,27.33-23,54-29,80-6,23.33-9.33,46.67-10,70-.67,17.33-.33,33.67,1,49l3,18,8-1c6.67-.67,12.67-.33,18,1,7.33.67,12.67,2.67,16,6,6,6,9.33,14,10,24,1.33,11.33-2.33,21.33-11,30-4.67,4.67-11,7.67-19,9l-7,1c-5.33,2-10.33,6.17-15,12.5s-8,13-10,20-2.83,12.67-2.5,17,.83,6.5,1.5,6.5ZM254,750c-8.67-13.33-15-28.33-19-45-5.33-21.33-6-43.33-2-66,4.67-32.67,12.83-62.67,24.5-90,11.67-27.33,25.5-48,41.5-62s33.67-25.67,53-35c4.67-2.67,6-5,4-7l-22-21c-2.67-3.33-2.67-6.33,0-9l33-33,135,136-232,232h-16Z"/>
</svg>