<?xml version="1.0" encoding="UTF-8"?>
<svg id="_레이어_1" data-name="레이어_1" xmlns="http://www.w3.org/2000/svg" version="1.1" viewBox="0 0 1000 1000">
  <!-- Generator: Adobe Illustrator 30.6.0, SVG Export Plug-In . SVG Version: 2.1.4 Build 109)  -->
  <defs>
    <style>
      .st0 {
        fill: #fff;
      }
    </style>
  </defs>
  <path class="st0" d="M756,479c-10-10-20.67-19-32-27-138-98-276-195.67-414-293l-1-1c-12.67-8.67-22.33-14-29-16-19.33-5.33-34.67,2-46,22-9.33,15.33-6,29.33,10,42,6.67,5.33,17.33,13,32,23l95,68c102.67,72,179.33,126.33,230,163l18,12c10.67,6.67,18.67,12,24,16,9.33,7.33,17,15,23,23-6,5.33-12.67,10.33-20,15-24.67,12-41.67,23.67-51,35s-12.67,24-10,38,11.67,32,27,54c9.33,13.33,19.67,26,31,38,9.33,9.33,13,18.67,11,28-2,8-8,16-18,24-8.67,6.67-14.67,10.67-18,12s-6.67,0-10-4c-2.67-2.67-8-10.33-16-23-15.33-22.67-26.33-40.33-33-53-10.67-22-25.67-27.67-45-17-14.67,8.67-17,23-7,43,16,32,28.33,55.67,37,71,14.67,26,29.67,48,45,66,12,14.67,22,22,30,22s18-7.67,30-23c8.67-11.33,21-28.67,37-52l11-16c14.67-21.33,23.33-35.33,26-42,4-10,3.67-19.67-1-29-3.33-6.67-13.33-20-30-40l-3-4c-6.67-8-15.33-18-26-30-13.33-14-20.67-23.33-22-28-2-6,1.33-11.33,10-16,6.67-4,23.67-11,51-21l5-1c7.33-3.33,18.67-8.67,34-16l3-2c18-9.33,27-19.33,27-30,.67-8.67-4.33-19-15-31ZM551,538c4-17.33,3.83-32-.5-44s-13.83-22.67-28.5-32c-26.67-18-66.33-45.67-119-83l-109-76c-7.33-5.33-14.83-8.17-22.5-8.5s-12.67,3.17-15,10.5c-2.33,7.33-2.33,16,0,26,2.33,10,5.83,17.67,10.5,23s9.67,9.33,15,12c4.67,2.67,8.67,5,12,7,76.67,55.33,135.33,96.67,176,124l2,1c12.67,8.67,21.33,15.67,26,21,8,10,11,20.33,9,31-1.33,7.33-4.67,14.67-10,22s-11.17,11.67-17.5,13-12.5-.17-18.5-4.5-8.67-9.83-8-16.5c.67-17.33-2.67-30.33-10-39-5.33-7.33-16-14-32-20-5.33,14-8.67,29.33-10,46-.67,9.33-.33,23.67,1,43l1,10c1.33,15.33,6,25.67,14,31,7.33,4,18.67,4.67,34,2,22.67-3.33,40.17-8.17,52.5-14.5,12.33-6.33,22-15.83,29-28.5s13.17-31.33,18.5-56Z"/>
</svg>