<?xml version="1.0" encoding="UTF-8"?>
<svg id="_레이어_1" data-name="레이어_1" xmlns="http://www.w3.org/2000/svg" version="1.1" viewBox="0 0 1000 1000">
  <!-- Generator: Adobe Illustrator 30.6.0, SVG Export Plug-In . SVG Version: 2.1.4 Build 109)  -->
  <defs>
    <style>
      .st0 {
        fill: #fff;
      }
    </style>
  </defs>
  <path class="st0" d="M750,630c-1.33-.67-2.33-.33-3,1l-64,63c-2,2-4.17,3.17-6.5,3.5s-4,0-5-1,.5-3.5,4.5-7.5l59-59c.67-.67,1-1.67,1-3-10-2.67-19.67-5.67-29-9-17.33-6.67-32.33-16.67-45-30-.67-.67-1.67-.33-3,1l-21,21c-1.33,1.33-3.33,2.17-6,2.5s-4.5,0-5.5-1,.17-3.17,3.5-6.5l23-23c1.33-.67,1.67-1.33,1-2-4.67-6-8.33-11.67-11-17l-3-7-76-54c-56-40.67-97.67-73-125-97l-238-212v-13l-67-53c-2-1.33-4-2-6-2l-2,1-1,2c0,2,.67,4,2,6l53,67h13l212,238c24,27.33,56.33,69,97,125l54,76,11,5c8.67,5.33,17,12,25,20,10.67,11.33,19.33,25.33,26,42,9.33,22.67,14,50.67,14,84,0,5.33.33,8.33,1,9,2,2,4.67,1.67,8-1l52-53c4-3.33,7.33-3.33,10,0l9,9c2,2,7,2.67,15,2l10-2,64,63c-1.33,6-1.33,11.67,0,17,.67,3.33,2.67,7.33,6,12-.67,2.67,0,4.83,2,6.5s6,2.17,12,1.5l7-1c8-1.33,13-1,15,1,7.33,6,15,12,23,18,3.33,2,6,2.67,8,2l1-3c0-1.33-.67-3-2-5-6-8.67-12-16.67-18-24-2-2-2.33-7-1-15l1-7c.67-6,.17-9.83-1.5-11.5s-4.17-2.5-7.5-2.5l-27,28-1-2c0-2,.5-4.33,1.5-7s3.17-5.67,6.5-9l10-10c1.33-1.33,1.83-2.67,1.5-4s-1.17-2-2.5-2c-6-1.33-11.67-1.33-17,0l-63-64,1-10c1.33-7.33,1-12-1-14l-7-7c-.67-.67-1.67-.33-3,1l-14,14c-3.33,3.33-6.67,5.33-10,6s-5.33.67-6,0,0-2.33,2-5l81-81c3.33-2.67,3.67-5.33,1-8,0-.67-3-1-9-1-15.33,0-28.67-.67-40-2Z"/>
</svg>