<?xml version="1.0" encoding="UTF-8"?>
<svg id="_레이어_1" data-name="레이어_1" xmlns="http://www.w3.org/2000/svg" version="1.1" viewBox="0 0 1000 1000">
  <!-- Generator: Adobe Illustrator 30.6.0, SVG Export Plug-In . SVG Version: 2.1.4 Build 109)  -->
  <defs>
    <style>
      .st0 {
        fill: #fff;
      }
    </style>
  </defs>
  <path class="st0" d="M443,329c6.67,9.33,12.67,19,18,29s8.67,18,10,24c1.33,8,2,17.67,2,29,0,16,.67,47.33,2,94l1,41c0,14,2.17,24.83,6.5,32.5s9.83,11.5,16.5,11.5h2c6.67,0,12.17-3.83,16.5-11.5s6.5-18.5,6.5-32.5l1-41c1.33-46.67,2-78,2-94,0-11.33.67-21,2-29,1.33-6,4.67-14,10-24s11.33-19.67,18-29c11.33-14,25.33-28.67,42-44l23-17c4-4.67,6-10,6-16s-2-11-6-15l-22-13c-16.67-10.67-31-21-43-31-6.67-5.33-13-12.67-19-22-4.67-6.67-9-14.33-13-23l-4-11c0-5.33-2-10-6-14s-8.83-6-14.5-6-10.5,2-14.5,6-6,8.67-6,14l-5,11c-4,8.67-8,16.33-12,23-6.67,9.33-13.33,16.67-20,22-19.33,15.33-40.67,30-64,44-4.67,4-7,9-7,15s2.33,11.33,7,16c-.67,0-.33.33,1,1,26.67,20,47.67,40,63,60ZM382,390c2.67-4,3.33-8.17,2-12.5s-4-7.83-8-10.5l-19-5c-14.67-4.67-27.67-9.67-39-15-8.67-3.33-17.67-10.33-27-21l-12-14c-1.33-4-3.83-7.17-7.5-9.5s-7.67-2.83-12-1.5c-4.33,1.33-7.67,3.83-10,7.5s-2.83,7.83-1.5,12.5l-3,18c-3.33,13.33-7.67,24-13,32-11.33,15.33-24.67,30.33-40,45-2.67,4.67-3.33,9.17-2,13.5s4,7.83,8,10.5l21,9c16,7.33,29.33,15.33,40,24,7.33,5.33,14,11.33,20,18s10.17,12.5,12.5,17.5,4.83,11.83,7.5,20.5c2.67,12,9.33,35,20,69l10,34c3.33,11.33,7.33,19.67,12,25s9.67,7.33,15,6h1c5.33-1.33,8.67-5.5,10-12.5s.67-16.17-2-27.5l-7-29c-8.67-38-14.67-63.33-18-76-2.67-8.67-4-16-4-22-.67-4.67,0-11.5,2-20.5s4.67-17.5,8-25.5c5.33-12.67,13-26.33,23-41l13-19ZM808,416c-4.67-4.67-9-9.33-13-14-10.67-11.33-19.67-21.67-27-31-5.33-8-9.67-18.67-13-32l-3-18c1.33-4.67.83-8.83-1.5-12.5s-5.67-6.17-10-7.5-8.5-.83-12.5,1.5-6.33,5.5-7,9.5l-12,14c-10,10.67-19,17.67-27,21-11.33,5.33-24.33,10.33-39,15l-19,5c-4,2-6.67,5.33-8,10s-.67,9,2,13l13,19c10,14.67,17.67,28.33,23,41,3.33,8,6,16.5,8,25.5s2.83,16.17,2.5,21.5-1.83,12.33-4.5,21c-3.33,12.67-9.33,37.67-18,75l-7,30c-2.67,11.33-3.33,20.5-2,27.5s4.67,11.17,10,12.5h1c5.33,1.33,10.33-.5,15-5.5s8.67-13.17,12-24.5l9-32c11.33-36,18.67-60,22-72,2-8.67,4.17-15.5,6.5-20.5s6.5-10.83,12.5-17.5,12.67-12.67,20-18c11.33-8.67,25-16.67,41-24l20-9c4-2.67,6.67-6.17,8-10.5s.67-8.83-2-13.5ZM552,558c-2.67-2-5.83-3-9.5-3s-6.67,1-9,3-3.67,5.17-4,9.5,1.17,8.5,4.5,12.5l14,11c1.33,1.33,2,2.83,2,4.5s-.67,3.17-2,4.5l-44,40c-1.33,1.33-2.83,2-4.5,2s-2.83-.67-3.5-2l-44-41c-1.33-.67-2-1.83-2-3.5s.67-3.17,2-4.5l13-11c4-4,5.83-8.17,5.5-12.5s-1.67-7.5-4-9.5-5.33-3-9-3-6.83.67-9.5,2l-40,27c-2.67,3.33-4,7.17-4,11.5s1.33,8.17,4,11.5l17,13c13.33,11.33,24,22.33,32,33,5.33,6.67,10,13.83,14,21.5s6.33,14,7,19,1,11.83,1,20.5c0,12.67.67,36.33,2,71l1,31c0,10.67,1.67,19.5,5,26.5s7.33,10.5,12,10.5h1c5.33,0,9.67-3.5,13-10.5,3.33-7,5-15.83,5-26.5v-31c1.33-34.67,2-58.33,2-71,0-8,.67-15,2-21,.67-4.67,3-10.83,7-18.5s8.67-14.83,14-21.5c12.67-16.67,28.67-32,48-46,3.33-3.33,5-7.17,5-11.5s-1.67-8.17-5-11.5c-22.67-15.33-35.67-24-39-26Z"/>
</svg>