<?xml version="1.0" encoding="UTF-8"?>
<svg id="_레이어_1" data-name="레이어_1" xmlns="http://www.w3.org/2000/svg" version="1.1" viewBox="0 0 1000 1000">
  <!-- Generator: Adobe Illustrator 30.6.0, SVG Export Plug-In . SVG Version: 2.1.4 Build 109)  -->
  <defs>
    <style>
      .st0 {
        fill: #fff;
      }
    </style>
  </defs>
  <path class="st0" d="M745,452c0-40.67-9.17-78.5-27.5-113.5s-43.83-63.83-76.5-86.5c-32.67-22.67-69-36.67-109-42-2.67-3.33-5.67-6.33-9-9-2-2-4.5-3.67-7.5-5s-4.5-3.17-4.5-5.5,2.67-6.17,8-11.5c3.33-3.33,8-6.67,14-10,2.67-2,4.17-3.5,4.5-4.5s-1.5-2.83-5.5-5.5c-6-4.67-10.83-8.83-14.5-12.5s-7.17-8.5-10.5-14.5c-2-4.67-3.83-7-5.5-7s-3.5,2.33-5.5,7c-3.33,6-6.83,10.83-10.5,14.5s-8.5,7.83-14.5,12.5c-4,2.67-6,4.5-6,5.5s1.67,2.5,5,4.5c6,3.33,10.67,6.67,14,10,5.33,5.33,8,9.17,8,11.5s-1.5,4.17-4.5,5.5-5.5,3-7.5,5c-3.33,2.67-6.33,5.67-9,9-36.67,4.67-70.33,17-101,37-62.67-35.33-100-44.67-112-28-4.67,6.67-4.33,21.5,1,44.5,5.33,23,14.67,47.17,28,72.5-20,36.67-29.83,75.5-29.5,116.5s10.33,79.67,30,116,46.83,65.67,81.5,88,72.67,35.17,114,38.5c-7.33,2-15,5.67-23,11s-12,10-12,14,1.33,7.33,4,10l9,6,9.5,7,3.5,8c0,11.33-8,22.33-24,33-4,2.67-10,5.33-18,8-4,1.33-6.33,2.33-7,3-2,2-3,4.67-3,8v10c0,3.33,2,5,6,5h44c4.67,0,7,1,7,3s-1.67,3.83-5,5.5-8,2.83-14,3.5c-4.67.67-12.33,1.33-23,2h-59c-5.33,0-14.17,5.17-26.5,15.5s-18.5,17.17-18.5,20.5.83,5.33,2.5,6,4.17,1,7.5,1h316c3.33,0,5.83-.33,7.5-1s2.5-2.67,2.5-6-6-10.17-18-20.5-20.67-15.5-26-15.5h-45v-29c.67-3.33,0-6-2-8-.67-.67-3.33-1.67-8-3-7.33-2.67-13-5.33-17-8-16-10.67-24-21.67-24-33,0-3.33,1-6,3-8s5.17-4.33,9.5-7,7.5-4.67,9.5-6c2.67-2.67,4-6,4-10s-4-8.67-12-14-15.67-9-23-11c34.67-2.67,67.67-12.33,99-29,24.67,12.67,48,21.5,70,26.5s36.67,4.83,44-.5c15.33-11.33,6.33-47-27-107,26.67-40.67,39.67-85,39-133ZM713,452c0,36-8.33,69.67-25,101l-3-4c-24-38.67-57-80-99-124-3.33-39.33-9.67-75.33-19-108-12.67-40.67-27.67-66-45-76,35.33,4,67.67,15.67,97,35s52.33,44.5,69,75.5,25,64.5,25,100.5ZM550,389c-28-28.67-57.67-55.67-89-81,11.33-16.67,24-25,38-25s25.67,11.67,35,35c6.67,17.33,12,41,16,71ZM587,474c8,12,14.33,21.33,19,28,14.67,21.33,25.33,40.33,32,57,7.33,22,6.67,37.5-2,46.5s-32.67,5.83-72-9.5c11.33-36,19-76.67,23-122ZM489,241c-17.33,7.33-32.33,25.33-45,54-14.67-10.67-29-20.33-43-29,27.33-15.33,56.67-23.67,88-25ZM290,452c0-28.67,5.67-56.33,17-83l7,9c19.33,25.33,37.67,48.33,55,69,14,16.67,21.5,24.5,22.5,23.5s1.33-2.5,1-4.5-1.83-4.67-4.5-8l-4-8c-12.67-24.67-22.67-46.67-30-66-14.67-37.33-18-60-10-68s20.67-9.67,38-5c14.67,3.33,31,10.67,49,22-4.67,20-8.33,40-11,60h3c1.33-.67,2.83-2,4.5-4s3.17-5.33,4.5-10c2.67-12.67,6.67-25.33,12-38l53,38c-17.33.67-32.67,6.5-46,17.5s-22.17,24.67-26.5,41-3.67,32.5,2,48.5,15.5,28.83,29.5,38.5,29.67,14.33,47,14c17.33-.33,32.67-5.5,46-15.5-5.33,34.67-12.67,60-22,76-.67,0-.67.33,0,1-8,14-17.33,21-28,21-18,0-34.33-14.67-49-44-8-16-14-33.67-18-53-1.33-6-3.67-10-7-12-2-1.33-3.67-2-5-2l3,21c2.67,17.33,6.33,33.33,11,48,6,20.67,13,37.67,21,51,10.67,17.33,22.33,28.33,35,33-36.67-2-70.33-12.67-101-32s-54.83-44.83-72.5-76.5-26.5-65.83-26.5-102.5ZM521,663c12-6,23-19.67,33-41l19,15,13,9c-20.67,9.33-42.33,15-65,17Z"/>
</svg>