<?xml version="1.0" encoding="UTF-8"?>
<svg id="_레이어_1" data-name="레이어_1" xmlns="http://www.w3.org/2000/svg" version="1.1" viewBox="0 0 1000 1000">
  <!-- Generator: Adobe Illustrator 30.6.0, SVG Export Plug-In . SVG Version: 2.1.4 Build 109)  -->
  <defs>
    <style>
      .st0 {
        fill: #fff;
      }
    </style>
  </defs>
  <path class="st0" d="M464,365c18,0,33.33-6.33,46-19,12.67-12.67,19-28,19-46s-6.33-33.5-19-46.5c-12.67-13-28-19.5-46-19.5s-33.5,6.5-46.5,19.5-19.5,28.5-19.5,46.5,6.5,33.33,19.5,46,28.5,19,46.5,19ZM522,126c-8.67-1.33-16.33-1-23,1s-10.67,5.5-12,10.5-.83,10,1.5,15,5.83,9.17,10.5,12.5l8,4c22.67,10,40.67,22,54,36,24.67,25.33,37,57.67,37,97,0,23.33-5.5,45.67-16.5,67s-25.83,38.33-44.5,51c-20,14-41.67,21-65,21-26,0-49-4-69-12-12-5.33-25.67-13.67-41-25l-5-4c-6.67-4.67-12.67-6.67-18-6-3.33.67-6,2.33-8,5-4.67,4.67-5.67,12.67-3,24,2,9.33,5.33,16.33,10,21,21.33,26,55.67,48.33,103,67l3,1c7.33,2.67,12.67,5.33,16,8,6.67,4.67,10,10.33,10,17v266c0,17.33,3.33,33.67,10,49s13.17,23,19.5,23,13-7.67,20-23,10.5-31.67,10.5-49v-263c0-6,2.5-13.5,7.5-22.5s10.83-14.83,17.5-17.5c11.33-6,24.33-15.33,39-28,22-19.33,39.67-41.33,53-66,17.33-32.67,26-68.33,26-107,0-29.33-7-56.67-21-82-13.33-24.67-31.67-45-55-61s-48.33-26-75-30Z"/>
</svg>