<?xml version="1.0" encoding="UTF-8"?>
<svg id="_레이어_1" data-name="레이어_1" xmlns="http://www.w3.org/2000/svg" version="1.1" viewBox="0 0 1000 1000">
  <!-- Generator: Adobe Illustrator 30.6.0, SVG Export Plug-In . SVG Version: 2.1.4 Build 109)  -->
  <defs>
    <style>
      .st0 {
        fill: #fff;
      }
    </style>
  </defs>
  <path class="st0" d="M850,648c-6.67-6.67-14-12.67-22-18-2.67-2-5.33-1.67-8,1-7.33,6.67-21.33,20.67-42,42l-8,8c-1.33,2-3.67,3-7,3h-3c-.67-3.33-.17-6.33,1.5-9s8.17-9.67,19.5-21c16-16.67,25.33-26.67,28-30,1.33-2.67,2-4.67,2-6s-1-3-3-5c-14-12.67-22.5-19.83-25.5-21.5s-6.17-2.17-9.5-1.5l1,9c-.67,7.33-3,13.5-7,18.5s-18,19.5-42,43.5l-4,4c-9.33,8.67-15,19.33-17,32-1.33,6.67-1.67,15.33-1,26,.67,4,.67,6.33,0,7s-2.33.33-5-1c-6.67-2-14-3-22-3-6,0-13.67,1.67-23,5l-12,6,4-5c3.33-3.33,6.67-6,10-8,5.33-3.33,10.67-5.67,16-7,2.67-.67,7.33-.33,14,1l9,1c-2.67-9.33-3-18.33-1-27,2.67-11.33,7.67-21.33,15-30l14-15c10-9.33,17-16.33,21-21,2-2.67,3.17-4.83,3.5-6.5s-.17-3.5-1.5-5.5l-1-4c-.67-3.33-.5-6.83.5-10.5s2.17-4.83,3.5-3.5c4.67,4,8.5,4.5,11.5,1.5s1.83-6.83-3.5-11.5l-51-46c-31.33-26.67-48.17-41-50.5-43s-4.33-1.83-6,.5-1.83,4.83-.5,7.5c.67.67-.5,1.5-3.5,2.5s-6.33,1.17-10,.5-7.17-2.67-10.5-6c-5.33-6.67-13-9.83-23-9.5s-18.67,4.5-26,12.5c-11.33,11.33-15,30.33-11,57,2,12.67,4.67,25.33,8,38-12.67-6-25.67-10.67-39-14-11.33-3.33-23-4.67-35-4,9.33-4.67,19.67-7.33,31-8,4,0,9,1,15,3l9,2c-3.33-12-5-24.33-5-37,0-10,2.17-19.83,6.5-29.5,4.33-9.67,10.5-17.5,18.5-23.5,4-4,9.33-7,16-9s14-2.5,22-1.5,17,5.17,27,12.5l2-6c1.33-4.67,1.67-8.67,1-12-.67-1.33-2.33-4.33-5-9l-7-10c-2-3.33-3.33-9-4-17,0-3.33-.33-5.33-1-6-2.67-3.33-12.33-3.67-29-1h-4c-1.33,0-4-1.67-8-5l-4-3c-4.67-4-7.67-5.5-9-4.5s-2,3.17-2,6.5l-1,6c0,1.33-3,4.33-9,9l-21,18-16,16c-6,6.67-9.5,13-10.5,19s-1.17,14.67-.5,26l1,16-14-3c-10.67-2-19-3-25-3-8,0-16,1-24,3,6.67-6.67,14-11,22-13,4-1.33,9.67-1.67,17-1l9,1-1-9c0-7.33.67-14.33,2-21,2-9.33,5.67-17.67,11-25,4.67-6,13.33-14,26-24l9-7c6.67-7.33,9.33-15.33,8-24-.67-3.33-2.33-8.33-5-15l-4-10c-2-4.67-3.67-15.33-5-32-.67-10.67-1.33-17.17-2-19.5s-4.33-10.17-11-23.5l-10-23c-4-10-7.67-17.33-11-22-5.33-8.67-11.33-15-18-19-10.67-6-28.33-8.33-53-7h-6c-6.67,0-19.33-2-38-6l-2-1c-16.67-3.33-30.33-3.67-41-1-7.33,2-19.33,14.67-36,38l-5,7c-2,2.67-6,5.83-12,9.5s-9.33,6.5-10,8.5c-1.33,3.33-2,7.5-2,12.5s1.33,8.67,4,11,6.67,4.5,12,6.5l7,2-6,1c-4.67.67-9.33.33-14-1-6-2-11-6.33-15-13-2-3.33-2-9,0-17s4-13.33,6-16l9-7c12-10,19.83-17.5,23.5-22.5s8.17-11.17,13.5-18.5,8.67-11.67,10-13c6.67-5.33,13-8,19-8,4,0,8.33,1,13,3l1,1c8.67,3.33,16,5.33,22,6h15c8-.67,15-.33,21,1l7,2c7.33,2.67,13.33,4.67,18,6,6.67.67,11,0,13-2,1.33-1.33.83-4.5-1.5-9.5s-5.5-8.83-9.5-11.5c-8-6-24.67-23-50-51l-2-2c-8-9.33-17.33-16.17-28-20.5-10.67-4.33-22-6.17-34-5.5-9.33,0-18.33,3.33-27,10-5.33,3.33-11.67,9.67-19,19-6,7.33-10.67,11.67-14,13l-4,1c-17.33,1.33-31.33,7.33-42,18-8,8.67-12.67,22.33-14,41l-1,4c0,1.33-3.67,5.67-11,13s-12.67,13-16,17c-7.33,8.67-11.33,16.67-12,24-3.33,14-4,28.33-2,43-3.33,2-6.33,4.67-9,8-4,4.67-7.67,10.67-11,18-4.67,11.33-6.83,24-6.5,38s4.17,26,11.5,36c4.67,6,13.33,14.33,26,25l8,6c13.33,11.33,30.67,21.33,52,30,17.33-.67,29.67-3.17,37-7.5s13.33-11.5,18-21.5l3-6,4-2c14.67-4.67,23.33-8.33,26-11,7.33-6.67,12.67-14.67,16-24,1.33-4,2-7.67,2-11l7-2c4.67-1.33,9-3.33,13-6,5.33-3.33,8.67-7.33,10-12,2.67-6.67,4.67-14.67,6-24l1-7c2.67-8.67,5.67-17.33,9-26l-14-13c-5.33-4-11.33-7-18-9l6-6c1.33-2,2.33-4,3-6l10,7c8,4.67,15.33,7.67,22,9,9.33,2,19,2.67,29,2,5.33-.67,8.33.67,9,4,0,2-.5,3.83-1.5,5.5s-1.83,2.5-2.5,2.5c-5.33,0-10.67.33-16,1-1.33.67-3.33,3.33-6,8s-4.67,9-6,13l-3,9c-6.67,19.33-10.33,31.67-11,37-2,10-2.67,20-2,30,.67,13.33,3.33,24.33,8,33,7.33,12,16.33,22.33,27,31,.67,1.33-.83,1.17-4.5-.5s-8.17-4.17-13.5-7.5c-7.33-6-13.33-12.33-18-19-5.33-7.33-8.5-15.33-9.5-24s-1.83-17-2.5-25c-4-2-11.33,2.33-22,13-2,2-5.67,7.33-11,16-3.33,6-5.5,9.33-6.5,10s-3.5,1.67-7.5,3c-12.67,3.33-22,7-28,11-2,1.33-5.5,5.33-10.5,12s-8.5,10.67-10.5,12c-4.67,2.67-16,4.33-34,5,2.67,8,6,14.83,10,20.5,4,5.67,10.33,12.17,19,19.5,10,8.67,18,13.67,24,15,8,2.67,17.67,4.33,29,5,14,.67,26,3,36,7,5.33,2.67,11,7,17,13,2,2.67,3.5,4,4.5,4s4.17-1.33,9.5-4c8.67-4.67,13.67-6.67,15-6s2.17,1.67,2.5,3-.17,2.67-1.5,4l-5,5c-8,8.67-12.33,13.67-13,15-2.67,5.33-2,10.33,2,15l3,2c2,2,3,3.67,3,5l-1,4c-3.33,15.33-3,25,1,29,.67.67,3,1,7,1,7.33.67,13,2,17,4l10,6c4.67,3.33,7.67,5.33,9,6,5.33.67,9.33,0,12-2l51,57c35.33,39.33,55,61.33,59,66,2.67,4,3.33,9.33,2,16-.67,4.67,0,8,2,10,8.67,10,25.33,29,50,57,1.33,2,3.33,3.17,6,3.5s5,.17,7-.5l-1-3c-.67-2-.5-4.5.5-7.5s3.5-6.17,7.5-9.5l54-54c7.33-7.33,12.33-16.33,15-27,1.33-6,2-13.67,2-23-.67-4.67-.67-7.17,0-7.5s3.33-.5,8-.5c9.33,0,17-.67,23-2,10-2.67,18.67-7.67,26-15l60-59c3.33-3.33,6.67-5.67,10-7s6-2,8-2h3l1-2c-.67-2-2.33-4.33-5-7Z"/>
</svg>