<?xml version="1.0" encoding="UTF-8"?>
<svg id="_레이어_1" data-name="레이어_1" xmlns="http://www.w3.org/2000/svg" version="1.1" viewBox="0 0 1000 1000">
  <!-- Generator: Adobe Illustrator 30.6.0, SVG Export Plug-In . SVG Version: 2.1.4 Build 109)  -->
  <defs>
    <style>
      .st0 {
        fill: #fff;
      }
    </style>
  </defs>
  <path class="st0" d="M774,739c-42.67,48.67-94.33,82.67-155,102-58,19.33-118,23-180,11-24.67-4.67-46.33-11.33-65-20-34.67-15.33-42.67-32.33-24-51,4.67,2.67,19,5.67,43,9,18.67,2.67,39.33,4.67,62,6,42.67,2.67,84.33-3.33,125-18,42.67-16,80.33-40,113-72,19.33-21.33,31-45.67,35-73,4.67-30.67-2.67-58.67-22-84-11.33-15.33-26.33-26.5-45-33.5s-35-7.83-49-2.5c-10,4-18,10.67-24,20-3.33,6-5.67,12.33-7,19v-1c4,27.33,7.67,54.67,11,82,4,17.33,2.33,28.67-5,34-4,3.33-12,5-24,5h-123c-12,0-20-1.67-24-5-7.33-5.33-9-16.67-5-34l4-34c2-22,1.17-38-2.5-48s-10.17-16.67-19.5-20c-5.33-2-15.33-3.33-30-4s-26-1.67-34-3c-13.33-2-25.67-6-37-12-6.67-3.33-15.67-10.5-27-21.5-11.33-11-19.67-17.83-25-20.5-8-3.33-14-1.33-18,6-5.33,8.67-9,26-11,52,3.33,52.67,19.33,97,48,133,9.33,7.33,15,14.33,17,21,1.33,3.33,1.33,8,0,14l-1,5c-.67,3.33-2,6.67-4,10-4,4.67-9.33,6.33-16,5-9.33-2-21-10-35-24-33.33-36.67-56.5-81-69.5-133s-13.83-104-2.5-156c11.33-54,34-100.5,68-139.5s74.67-69.17,122-90.5c46-20.67,94.17-31.33,144.5-32,50.33-.67,98.83,9,145.5,29,15.33,6.67,28.17,14.67,38.5,24s14,16.33,11,21-11.83,6.67-26.5,6-29-3.67-43-9c-47.33-15.33-97-17.33-149-6-11.33,3.33-23.33,9-36,17-7.33,4.67-17,12-29,22-9.33,7.33-15.67,12.33-19,15-11.33,8-25,15-41,21-12.67,5.33-22.33,10.33-29,15l4-2c-5.33,3.33-10.33,7-15,11-2.67,2.67-6,6.67-10,12,4-4.67,2-2.67-6,6-10.67,16.67-14,34.67-10,54,4,17.33,13.33,33,28,47,24,18,47,28.67,69,32s40.67.17,56-9.5,25.33-24.5,30-44.5c16.67-64.67,33.33-101.67,50-111h1c18.67,10.67,36.67,54,54,130l3,10c1.33,7.33,3,12.33,5,15,2.67,4.67,7,7,13,7,8-2,17-4.17,27-6.5s17.67-3.83,23-4.5c7.33-.67,18-.33,32,1,15.33,1.33,32.33,6.67,51,16,14.67,7.33,28.67,16,42,26l1,1c6.67,7.33,12,11,16,11,7.33,0,12-10.67,14-32v1c-2.67-33.33-9.33-70.67-20-112-5.33-21.33-8.33-35.33-9-42,0-11.33,3.67-20,11-26,4.67-1.33,10.17.83,16.5,6.5s14.17,15.83,23.5,30.5c27.33,43.33,44.33,89.83,51,139.5,6.67,49.67,3,98.67-11,147s-37.67,91.5-71,129.5ZM525,577c-7.33-91.33-15.33-141.33-24-150-8.67,8.67-16.67,58.67-24,150-.67,6.67.17,12.17,2.5,16.5s6.17,6.5,11.5,6.5h21c4.67,0,8.17-2.17,10.5-6.5s3.17-9.83,2.5-16.5Z"/>
</svg>