<?xml version="1.0" encoding="UTF-8"?>
<svg id="_레이어_1" data-name="레이어_1" xmlns="http://www.w3.org/2000/svg" version="1.1" viewBox="0 0 1000 1000">
  <!-- Generator: Adobe Illustrator 30.6.0, SVG Export Plug-In . SVG Version: 2.1.4 Build 109)  -->
  <defs>
    <style>
      .st0 {
        fill: #fff;
      }
    </style>
  </defs>
  <path class="st0" d="M583,698c5.33-3.33,10-7,14-11,6.67-6,12.67-12,18-18,10.67-12.67,20-26,28-40,23.33-40.67,35-83.67,35-129,.67-62-19.67-125.33-61-190-22.67-35.33-50-65.33-82-90-27.33-20.67-58-37.67-92-51-26.67-10.67-55-18.67-85-24-20.67-3.33-41.33-5.33-62-6l-25,1,17,2c13.33,2.67,27.67,6.67,43,12,20.67,7.33,40.67,16.67,60,28,24.67,14.67,48,31.67,70,51,26,22.67,49.33,48.67,70,78-5.33-2-11-4-17-6l-9-3c-8-2-16.67-3.67-26-5-12-1.33-24.67-2-38-2-16,0-31.67,1.33-47,4-18.67,3.33-36.67,8.33-54,15-19.33,8.67-38,19.33-56,32-20,14.67-38.33,32.33-55,53-18.67,22.67-35.67,48.67-51,78-30.67,58.67-43.67,121-39,187,2.67,47.33,14.33,94.33,35,141,10,23.33,19.67,42,29,56l-6-16c-4.67-13.33-8.33-27.67-11-43-4-21.33-6-43.33-6-66,0-28.67,3-57.33,9-86,6.67-34,17.67-67.33,33-100,.67,6,1.67,12,3,18,2.67,13.33,6.67,26,12,38,2.67,6,5.33,11.67,8,17,21.33,42.67,51.67,76.67,91,102,54.67,36,123.33,52,206,48,41.33-1.33,81-10,119-26,31.33-12.67,61.33-30.33,90-53,22-18,42.67-38.67,62-62,14-16.67,26.33-33.67,37-51l12-21-11,12c-9.33,10.67-19.67,21.33-31,32-17.33,14-35.67,26.67-55,38-24.67,14.67-50.67,26.33-78,35-32.67,10.67-67.33,17.67-104,21ZM446,662c-26,0-49.83-6.33-71.5-19s-38.83-29.83-51.5-51.5-19-45.33-19-71,6.33-49.5,19-71.5,29.83-39.33,51.5-52,45.33-19,71-19,49.33,6.33,71,19c21.67,12.67,38.83,30,51.5,52s19,45.83,19,71.5-6.33,49.33-19,71-29.83,38.83-51.5,51.5c-21.67,12.67-45.17,19-70.5,19Z"/>
</svg>