<?xml version="1.0" encoding="UTF-8"?>
<svg id="_레이어_1" data-name="레이어_1" xmlns="http://www.w3.org/2000/svg" version="1.1" viewBox="0 0 1000 1000">
  <!-- Generator: Adobe Illustrator 30.6.0, SVG Export Plug-In . SVG Version: 2.1.4 Build 109)  -->
  <defs>
    <style>
      .st0 {
        fill: #fff;
      }
    </style>
  </defs>
  <path class="st0" d="M289,253c-1.33-1.33-1.33-2.67,0-4,34-28,50.67-42,50-42,2-2.67,4.33-3.33,7-2,5.33,3.33,11.33,5.33,18,6,16.67,0,27.33-3,32-9l19-24c10-12.67,17.83-21.5,23.5-26.5s25.17-13.17,58.5-24.5l4-2c.67,0,1.83.33,3.5,1s2.83,1.33,3.5,2l8,12c.67,2.67-.33,4.67-3,6-5.33,1.33-12,3.67-20,7-10.67,4-20,9-28,15-3.33,2-6.83,5.17-10.5,9.5s-6.33,8.33-8,12-2.17,15.83-1.5,36.5v6c0,6-4,13.67-12,23-5.33,7.33-8,12.67-8,16,0,4.67,3.67,15,11,31l4,7c0,1.33-.67,3.67-2,7l-1,3c0,.67,2,3.33,6,8s6,7.33,6,8l-3,7,58,65c1.33,2,2,3.5,2,4.5s-.33,1.83-1,2.5l-6,7c-2.67,2.67-6.33,7.67-11,15l-2,3c-2,2.67-2.33,4.83-1,6.5s3,1.83,5,.5l12-10,12-13c.67-.67,1.5-1,2.5-1s1.5.33,1.5,1l72,82c2,2.67,2.33,4.67,1,6-12.67,14-21.67,23.67-27,29-.67.67-.67,1.67,0,3s1.33,1.67,2,1c8-4,15.33-8.67,22-14,2-1.33,4.33-3.33,7-6l4-4c1.33-.67,2.67-.33,4,1,14.67,16,46.67,50.33,96,103,25.33,26.67,60,62.67,104,108l22,23c1.33,1.33,1.67,2.67,1,4l-3,2c-2,1.33-4.33,3.33-7,6-8,10-18,22-30,36-1.33,2-1.5,3.33-.5,4s2.5,0,4.5-2l2-1c13.33-10,23-17.67,29-23,3.33-2.67,6.33-5.67,9-9l4-4c1.33-1.33,2.67-1.67,4-1l24,26c1.33,1.33,2.33,3.17,3,5.5s1,4.17,1,5.5l-1,12c-3.33,26.67-5.67,40.33-7,41l-4,4c-8.67,8-14.17,12.5-16.5,13.5s-12.5,1-30.5,0-27.67-1.83-29-2.5-30-39-86-115l-127-173-165-205c-1.33.67-2.5,1.5-3.5,2.5s-2.5.83-4.5-.5l-4-5c-5.33-6.67-8.33-10.17-9-10.5s-1.83,0-3.5,1-3.17,1.33-4.5,1-7.33-4.17-18-11.5l-16-10c-2-.67-4-.33-6,1l-50,47c-2.67,2.67-7.67,13.67-15,33-10.67,29.33-20.33,51.67-29,67-11.33,19.33-25.67,40-43,62-14.67,18.67-29,34.67-43,48-.67.67-1.5,1-2.5,1s-1.83-.33-2.5-1l-12-12v-4c36-50.67,59.67-90,71-118,12-30,19.33-62,22-96,.67-8.67,1.33-13.67,2-15,3.33-3.33,8.17-9.5,14.5-18.5s9.5-14.17,9.5-15.5v-5c0-4.67,1.33-8,4-10,5.33-6,11.33-12.67,18-20,10-11.33,15.33-18.33,16-21,.67-5.33,0-10.67-2-16Z"/>
</svg>