<?xml version="1.0" encoding="UTF-8"?>
<svg id="_레이어_1" data-name="레이어_1" xmlns="http://www.w3.org/2000/svg" version="1.1" viewBox="0 0 1000 1000">
  <!-- Generator: Adobe Illustrator 30.6.0, SVG Export Plug-In . SVG Version: 2.1.4 Build 109)  -->
  <defs>
    <style>
      .st0 {
        fill: #fff;
      }
    </style>
  </defs>
  <path class="st0" d="M849,817c-2.67-1.33-7-4.33-13-9l-1-2c-2-1.33-3.67-1.67-5-1l-12,12c-2.67,2.67-5,2.83-7,.5s-2-4.83,0-7.5l12-11-94-104-19,20c-1.33.67-2.83,1.17-4.5,1.5s-3.17-.17-4.5-1.5-1.83-2.83-1.5-4.5.83-2.83,1.5-3.5l75-75-22-22-39,39c-2,2-6.33,2.67-13,2-4.67,0-9.33-.67-14-2-2-.67-3.67-.67-5,0l-2,1-14,14h-2c-1.33,0-2.67-.67-4-2s-1.67-3.33-1-6l10-10-13-13c-2.67-8.67-3.83-17.83-3.5-27.5s2.17-19.17,5.5-28.5l-10-1c-8-2.67-16.67-6.33-26-11-13.33-7.33-26.67-17-40-29-26-24-60.33-57-103-99-48-47.33-84.67-85.17-110-113.5s-52-59.5-80-93.5l-35-42-130-63,63,130,42,35c34,28,65.17,54.67,93.5,80s66.17,62,113.5,110c42,42.67,75,77,99,103,16.67,19.33,28.67,37.67,36,55,3.33,8.67,5,15.67,5,21,9.33-3.33,18.83-5.17,28.5-5.5s18.83.83,27.5,3.5l21,21-4,3-1,2c-.67,1.33-.67,3,0,5,1.33,4.67,2,9.33,2,14,.67,6.67,0,11-2,13l-39,39,22,22,55-55,110,100,8,9c-.67,1.33-.33,3,1,5l2,1c4.67,6,7.67,10.5,9,13.5s2,7.83,2,14.5v9l5,2c4.67.67,9.67.67,15,0,10-1.33,18.17-5.17,24.5-11.5s10.17-14.5,11.5-24.5c.67-5.33.67-10.33,0-15l-2-5h-9c-6.67,0-11.67-.67-15-2ZM678,369c27.33-24.67,58-51,92-79l42-35,63-130-130,63-35,42c-28,34-54.67,64.67-80,92-28.67,32.67-69.67,75-123,127l44,43c52-52.67,94.33-93.33,127-122v-1ZM417,536c-13.33,12-26.67,21.67-40,29-9.33,4.67-18,8.33-26,11l-10,1c3.33,9.33,5.17,18.83,5.5,28.5s-.83,18.83-3.5,27.5l-13,13,10,10c.67,2.67.33,4.67-1,6s-2.67,2-4,2h-2l-14-14-2-1c-1.33-.67-3-.67-5,0-4.67,1.33-9.33,2-14,2-6.67.67-11,0-13-2l-39-39-22,22,75,75c.67.67,1.17,1.83,1.5,3.5s-.17,3.17-1.5,4.5-2.83,1.83-4.5,1.5-3.17-.83-4.5-1.5l-19-20c-57.33,64-88.67,98.67-94,104l12,11c2,2.67,2.33,4.83,1,6.5s-2.67,2.33-4,2-2.67-.83-4-1.5l-11-12c-2-.67-3.67-.33-5,1l-2,1c-6,5.33-10.5,8.67-13.5,10s-7.83,2-14.5,2h-9l-2,5c-.67,4.67-.67,9.67,0,15,1.33,10,5.17,18.17,11.5,24.5s14.5,10.17,24.5,11.5c8.67.67,15.33,0,20-2v-9c0-6.67.67-11.5,2-14.5s4.33-7.17,9-12.5l2-3c1.33-1.33,1.67-3,1-5l8-8,111-100,54,55,22-22-39-39c-2-2-2.67-6.33-2-13,0-4.67.67-9.33,2-14,.67-2,.67-3.67,0-5l-1-2-4-4,21-20c8.67-2.67,17.83-3.83,27.5-3.5s19.17,2.17,28.5,5.5l1-10c2.67-8,6.33-16.67,11-26,7.33-13.33,17.33-26.67,30-40l28-31-46-45c-10.67,10.67-20.67,20.33-30,29Z"/>
</svg>