<?xml version="1.0" encoding="UTF-8"?>
<svg id="_레이어_1" data-name="레이어_1" xmlns="http://www.w3.org/2000/svg" version="1.1" viewBox="0 0 1000 1000">
  <!-- Generator: Adobe Illustrator 30.6.0, SVG Export Plug-In . SVG Version: 2.1.4 Build 109)  -->
  <defs>
    <style>
      .st0 {
        fill: #fff;
      }
    </style>
  </defs>
  <path class="st0" d="M776,347c-1.33-2.67-2.67-6.33-4-11-2.67-6.67-5.67-11-9-13-4-2.67-12.5-4.5-25.5-5.5s-21.5,7.5-25.5,25.5c-2,10.67-2.67,27.67-2,51,.67,9.33.67,15.67,0,19-.67,10-6.67,17-18,21-6.67,2.67-18,4.33-34,5h-1c-6,.67-17.33-3.33-34-12-10-5.33-27.67-15.33-53-30-30-18-52.33-30.67-67-38-18-8.67-45-26.67-81-54-20.67-16-51-40.33-91-73-30.67-24.67-49.33-39-56-43l-16-12c-12.67-9.33-21.33-14.67-26-16-7.33-2-13.67,1-19,9,29.33,68.67,54.67,135.33,76,200,17.33,54,31.33,106.33,42,157,8,40,14,77.67,18,113,2,26,3,49.33,3,70l-1,23-91,1c-15.33,0-24.5,2.5-27.5,7.5s-1.83,13.83,3.5,26.5c2,3.33,12,7.67,30,13,20.67,6,43.67,11,69,15,32.67,4,64.33,5.33,95,4,38-1.33,73-7,105-17,38-11.33,71-28.33,99-51,55.33-55.33,95.67-111,121-167,19.33-43.33,29.33-86.33,30-129,.67-24-2-51.33-8-82l-2-7ZM412,710c-2.67-68-9.33-132.67-20-194-12.67-73.33-29.33-131.67-50-175l25,23c20.67,18.67,39.33,34.67,56,48,24,18.67,43,30.67,57,36,6,2.67,18,7,36,13,40.67,14,70.33,25.33,89,34,32,14.67,50.33,29,55,43l-9,14c-17.33,28-32.67,49.67-46,65-22.67,26.67-47.67,47.67-75,63-35.33,18.67-74.67,28.67-118,30Z"/>
</svg>