<?xml version="1.0" encoding="UTF-8"?>
<svg id="_레이어_1" data-name="레이어_1" xmlns="http://www.w3.org/2000/svg" version="1.1" viewBox="0 0 1000 1000">
  <!-- Generator: Adobe Illustrator 30.6.0, SVG Export Plug-In . SVG Version: 2.1.4 Build 109)  -->
  <defs>
    <style>
      .st0 {
        fill: #fff;
      }
    </style>
  </defs>
  <path class="st0" d="M796,706c-2.67-2.67-11-7.33-25-14-21.33-11.33-37.67-21.67-49-31-3.33-2.67-5.33-5.33-6-8s-1-6-1-10v-3c0-4.67-3.33-7-10-7h-24c-2,0-3.5-1-4.5-3s-1-3.33,0-4,2.83-1.67,5.5-3l1-1c6-2.67,11.33-6,16-10s7-7,7-9c0-.67-1-2-3-4l-3-2c-6-5.33-11-11.33-15-18-.67-2-1.17-6.83-1.5-14.5s.17-14,1.5-19,5-12.5,11-22.5c3.33-5.33,5.33-22,6-50v-4c0-3.33.83-6.17,2.5-8.5s4-3.5,7-3.5,5.17,1.67,6.5,5l1,4,3,45c0,4,.33,8,1,12,.67,1.33,4.67,4.33,12,9,14.67,8,29,16.67,43,26,2,1.33,3.83,1.67,5.5,1s1.83-1.67.5-3c-10-16-15.67-28-17-36-.67-6.67-.33-22.33,1-47l2-36c1.33-32-2.67-63-12-93-10-33.33-26-64.67-48-94-20.67-26.67-48.67-49.33-84-68-32-17.33-64.33-27.67-97-31-12.67-1.33-29.33-2.67-50-4-23.33-1.33-42-3.33-56-6-9.33-1.33-19.67-5-31-11l-7-4c-2-1.33-3.67-1.67-5-1s-1.67,2-1,4l3,8c10,26,15.33,44,16,54,0,2,1,3.5,3,4.5s4.83,1.17,8.5.5,9.17-.67,16.5,0,12.33,1.33,15,2,5,3,7,7,2,6,0,6l-2,1c-15.33,1.33-27.67,4-37,8-11.33,4.67-23.67,11.67-37,21-18,12.67-33.33,26.67-46,42-7.33,9.33-14,21.33-20,36-4,8.67-8.67,22-14,40-6.67,22-12.33,36.5-17,43.5s-13.33,17.17-26,30.5l-3,4c-1.33,2-2,3.5-2,4.5s1,1.5,3,1.5h8c93.33.67,141,.83,143,.5s3-2.83,3-7.5,1.33-7.67,4-9c32.67-18.67,59.33-34.33,80-47,7.33-4.67,12.83-7.5,16.5-8.5s7.83-1.5,12.5-1.5c15.33,0,28.67,3.67,40,11,7.33,4.67,12.5,10.33,15.5,17s4.17,13.33,3.5,20c0,3.33-.5,5-1.5,5s-2.17-2.33-3.5-7c-1.33-7.33-5.33-13.67-12-19-4.67-4-9.67-7-15-9-7.33-4-17-5.67-29-5-4.67.67-13,5-25,13-35.33,23.33-55.5,36.67-60.5,40s-7.83,8-8.5,14c-.67,2.67-1.33,4.67-2,6-1.33,4-3.5,7-6.5,9s-6.17,3-9.5,3h-149c-2,0-3.17.83-3.5,2.5s-.5,4.5-.5,8.5v9c-.67,6.67-2,13-4,19-1.33,4-4,10-8,18l-10,20c-4.67,10.67-10.67,20.33-18,29-3.33,4.67-5,7.83-5,9.5s2.67,4.17,8,7.5l9,7c2.67,2,7,6,13,12,10.67,10.67,19.33,18.5,26,23.5,6.67,5,16.5,11.5,29.5,19.5s21,13.5,24,16.5,4.83,6.17,5.5,9.5l1,4c.67,2.67,2.67,3,6,1,6-4,18.67-13.33,38-28,2.67-2,4.5-2.5,5.5-1.5s.5,2.83-1.5,5.5l-4,4c-14,14-22.33,22.67-25,26s-3,8.33-1,15c6,11.33,13.17,22.83,21.5,34.5s15.17,19.5,20.5,23.5c4,2.67,8.67,3.67,14,3l53-27c36-18.67,55-28.67,57-30s3.83-1.83,5.5-1.5,1.83,1.17.5,2.5-23.33,16-66,44c-40,26-60.5,39.5-61.5,40.5s-1.5,4.17-1.5,9.5c0,12-1.67,21.67-5,29s-9.33,15.33-18,24c-6.67,6-11.33,9.67-14,11s-3.67,3-3,5v1c.67,2,11.33,1.67,32-1,15.33-1.33,31.83-3.5,49.5-6.5s36.5-8.17,56.5-15.5c28-10,49-21.33,63-34,23.33-21.33,46.67-40.67,70-58,32.67-26,56.33-41.33,71-46,19.33-6,39.67-8.67,61-8,16.67.67,33,3.67,49,9,2.67.67,4.67.17,6-1.5s1-3.83-1-6.5ZM351,641l-9,7c-2.67,2-6,1.67-10-1l-38-26-42-28c-1.33-.67-1.83-1.5-1.5-2.5s1.5-1.83,3.5-2.5l18-3c4-.67,7.67,0,11,2l66,48c3.33,2.67,3.67,4.67,1,6h1ZM381,620l-7,5c-3.33,2-6,2.33-8,1l-28-24-31-22c-1.33-.67-1.67-1-1-1l2-1,14-3c3.33-.67,6.33.33,9,3l48,37c2,1.33,3,2.17,3,2.5s-.67,1.17-2,2.5h1ZM411,598l-6,5c-2.67,1.33-5.33,1-8-1l-42-31c-3.33-2.67-3-4.33,1-5l9-2c4-.67,7.33,0,10,2l34,26c3.33,2.67,4,4.67,2,6ZM438,577l-5,4c-3.33,2.67-6,3-8,1l-27-20c-1.33-1.33-1.83-2.5-1.5-3.5s1.17-1.5,2.5-1.5l12-3c3.33-.67,6.67.67,10,4l16,12c3.33,2.67,3.67,5,1,7ZM414,825c-6,0-9-4-9-12,0-2.67,1-5.17,3-7.5s4.5-3.5,7.5-3.5,5,1,6,3,1.5,4.67,1.5,8v1c.67,3.33,0,6-2,8s-4.33,3-7,3ZM509,766c-3.33.67-5.67,2.33-7,5s-1.33,5.17,0,7.5,1.67,4,1,5-1.67.83-3-.5c-3.33-2-5.17-4.5-5.5-7.5s-.33-5.83,0-8.5,1.67-4.83,4-6.5,4.83-2.83,7.5-3.5c5.33,0,8,1.17,8,3.5s-.17,3.83-.5,4.5-1.17,1-2.5,1h-2ZM535,442c-4-6-9-10-15-12s-11.67-1.17-17,2.5-8.33,8.83-9,15.5,1.67,13.33,7,20c2,1.33.67,1.67-4,1s-8-2.33-10-5c-4.67-4.67-6.67-11.5-6-20.5s4.33-16,11-21,13.83-7.17,21.5-6.5c7.67.67,14.17,4.33,19.5,11,2,2.67,3.33,5.5,4,8.5s.83,5.17.5,6.5-1.17,1.33-2.5,0ZM604,714c-2.67.67-4.67,2.67-6,6-.67.67-.67,2.67,0,6v4c0,2-.5,3.33-1.5,4s-2.17.67-3.5,0c-4-2.67-5.33-7.17-4-13.5s5-9.83,11-10.5c2,0,3.83.5,5.5,1.5s1.17,1.83-1.5,2.5Z"/>
</svg>