<?xml version="1.0" encoding="UTF-8"?>
<svg id="_레이어_1" data-name="레이어_1" xmlns="http://www.w3.org/2000/svg" version="1.1" viewBox="0 0 1000 1000">
  <!-- Generator: Adobe Illustrator 30.6.0, SVG Export Plug-In . SVG Version: 2.1.4 Build 109)  -->
  <defs>
    <style>
      .st0 {
        fill: #fff;
      }
    </style>
  </defs>
  <path class="st0" d="M574,192c-1.33,0-4,.33-8,1-7.33.67-12.67,2-16,4-5.33,2-8.83,6-10.5,12s-.5,10.83,3.5,14.5,9.67,5.17,17,4.5c5.33-1.33,9-4,11-8,1.33-2,2.33-5.67,3-11s1.67-8.83,3-10.5,3.17-3.17,5.5-4.5,4.5-1.33,6.5,0l3,5c5.33,8,11,13.33,17,16s14.67,5,26,7c13.33,2,25.67,2.33,37,1,14,6,29,9.17,45,9.5s31.67-1.83,47-6.5l5,5c4.67,4.67,8.33,8,11,10,4.67,2.67,9.5,4.33,14.5,5s10.17-1.33,15.5-6c3.33-2.67,6.67-4.67,10-6,5.33,2,11,2.67,17,2,3.33,0,7.67-.83,13-2.5s9-2.5,11-2.5c5.33,3.33,9.33,8.33,12,15s3,14.67,1,24c-.67,4-3,8.67-7,14-2.67,3.33-7.33,8.33-14,15-8.67,8-15,14.67-19,20-6.67,8-11.33,16-14,24,0,4,.83,6.33,2.5,7s3.83.5,6.5-.5,4.67-1.17,6-.5,2,3,2,7c-10.67,8.67-19.67,18-27,28-7.33,11.33-13.33,24.33-18,39-2.67,8-9,16-19,24,1.33,8,1.33,18.33,0,31l-1,12c-8,10.67-14,27.67-18,51-2.67,15.33-5,39.67-7,73-.67,6,.67,13,4,21l3,10c2.67,36,12.33,63,29,81,0,4.67-1.67,7.67-5,9-1.33,0-2.5.67-3.5,2s-1.5,4.33-1.5,9c0,6.67,1.67,12,5,16,2,2,5.33,4.33,10,7h1l3,8c1.33,5.33,3,9.33,5,12,17.33,13.33,33.67,28,49,44-2.67,13.33-9.33,24.33-20,33-6.67,1.33-12.67.67-18-2-3.33-1.33-7.5-4.33-12.5-9s-8.67-7.33-11-8-3.67-.17-4,1.5-.17,4.17.5,7.5c.67,6,0,9.33-2,10-5.33,0-11.5-2.17-18.5-6.5s-13.17-6.5-18.5-6.5c-2.67-8.67-8-16.33-16-23-5.33-3.33-13.67-7.83-25-13.5s-20-10.17-26-13.5c-3.33,1.33-4.83,2.5-4.5,3.5s1.5,2.17,3.5,3.5,3.17,2.67,3.5,4-.5,2.67-2.5,4c-28.67-7.33-52-11.33-70-12-28-2-50.33,1.67-67,11-4.67,1.33-8.67,3.67-12,7-2,2-4.33,5.33-7,10s-5,7.67-7,9c-2.67,2.67-6,4.33-10,5-6-.67-11-3-15-7-2-2-4.67-6-8-12l-6-9c-4.67-.67-8.83-2.33-12.5-5s-7.5-4.33-11.5-5c-6.67-2-17-3.67-31-5-22.67-.67-45,1.33-67,6-4.67,0-10.33-1.67-17-5l-7-3-21,10c-14,6.67-23.67,12-29,16-8,6.67-14,15-18,25-5.33-.67-11.33.83-18,4.5s-11.67,5.67-15,6-5.33-.17-6-1.5-.67-3.33,0-6c.67-4.67.33-7.33-1-8-4.67.67-10,3.33-16,8-4.67,4-8.67,6.67-12,8-4.67,2-10.33,2.33-17,1-8.67-6.67-14.67-17.67-18-33l8-8c17.33-17.33,31.33-29.33,42-36,.67-7.33,2.67-14.33,6-21,1.33-1.33,3.17-2.5,5.5-3.5s4.17-2.5,5.5-4.5c2.67-2.67,4.67-7,6-13,.67-2.67.67-4.5,0-5.5s-1.83-2-3.5-3-3.17-2.33-4.5-4-1.83-4.5-1.5-8.5,3-10,8-18,8.5-15,10.5-21c4-10.67,6.67-22.67,8-36,.67-49.33-.33-91.67-3-127l-3-9c-3.33-10.67-6.67-18-10-22,0-4.67-.67-10.67-2-18-1.33-10-1.67-18.33-1-25-4.67-9.33-11.33-17.33-20-24-9.33-34-23-55.67-41-65-.67-2.67-.5-4.5.5-5.5s2.67-1.83,5-2.5,4-1.67,5-3,1.17-3.67.5-7c-1.33-9.33-5-18-11-26-4-5.33-10-12-18-20-11.33-11.33-19-20.67-23-28-.67-6-.33-11.67,1-17,1.33-3.33,3.67-8,7-14l4-7c3.33-1.33,9.67-1,19,1s16.67,2.83,22,2.5,10.33,1.83,15,6.5,9.33,7,14,7c6-1.33,12-5.67,18-13,4-4.67,7.33-8,10-10,26,5.33,52.83,6.83,80.5,4.5s51.5-8.17,71.5-17.5c6.67-2.67,12.67-6.67,18-12,2.67-2.67,5.17-4.5,7.5-5.5s6.17-1.17,11.5-.5c-4.67,6-6.5,11.5-5.5,16.5s4.33,8.17,10,9.5,11.17.33,16.5-3c3.33-2,3.17-6.83-.5-14.5s-8.17-13.5-13.5-17.5l2-2c9.33-10,16.67-17,22-21,8.67-6.67,18.33-11,29-13,0-1.33,2.33-3.83,7-7.5s7-6.5,7-8.5c14,8,23.67,18.67,29,32,20-2,35.67,7,47,27ZM368,310l-5,5c-5.33,6.67-8.67,12.67-10,18,2,5.33,5,10.67,9,16,2.67,2.67,7,6.5,13,11.5s10,8.83,12,11.5c3.33,4.67,5.33,9.33,6,14,.67,2.67-1.33,4-6,4-2.67-.67-4.33-.67-5,0s-.33,2.67,1,6c4,5.33,9,8,15,8,4.67,0,11.67-1.33,21-4,3.33,4,7.17,7.83,11.5,11.5s7.83,5.67,10.5,6,5,2.17,7,5.5c2.67,4,6,6.33,10,7,4-6,5-12,3-18-.67-3.33-3.17-7.67-7.5-13s-7.17-9.33-8.5-12c0-4.67-1.33-10.67-4-18-2.67-8.67-3.67-16.67-3-24-4,0-6.83-.5-8.5-1.5s-3.17-2.83-4.5-5.5l-3-3c.67-4.67,0-8.67-2-12-1.33-1.33-3.33-3.67-6-7-5.33-4.67-8.33-9-9-13-6,.67-11.33-.67-16-4-2.67-2-5.67-5.5-9-10.5s-6-7.83-8-8.5c-4.67,8-6,18-4,30ZM623,295c-1.33,2-2.67,3-4,3s-3-.83-5-2.5-4-2.5-6-2.5c-2.67,2-8.33,4-17,6s-14.67,4.33-18,7v1c-6.67,6-11.33,10.67-14,14-5.33,7.33-8.33,14.33-9,21,.67,8.67-.33,17.33-3,26-2,5.33-3.33,10-4,14-.67,6.67-.67,14.67,0,24,12-12,21-19.33,27-22,2.67-1.33,6.17-2.17,10.5-2.5s7.5-1,9.5-2,4.33-3,7-6,4-6.5,4-10.5c.67-2.67.67-7,0-13l-1-4c10.67,0,19.33-5,26-15,5.33-8.67,8.33-20,9-34v-4c-.67-5.33-1.67-8.33-3-9-.67,2-1.83,4.33-3.5,7s-3.5,4-5.5,4ZM268,395c2,1.33,6.17,2.17,12.5,2.5s11.83,1.17,16.5,2.5c3.33,1.33,8.83,3.83,16.5,7.5s13.5,5.83,17.5,6.5c6,2,11,2,15,0-.67-4.67-4.33-10-11-16s-10.67-11.33-12-16c.67-2,.17-4.33-1.5-7s-1.83-5.67-.5-9c-4-1.33-7.33-3.67-10-7-1.33-2.67-3-6.33-5-11-3.33-8-6.67-13.33-10-16-6-.67-14.33-3-25-7-7.33-3.33-13-5.33-17-6-.67,16.67.33,32,3,46,2,16,5.67,26,11,30ZM751,323c-1.33-3.33-3.67-4.67-7-4-2.67,2-9.5,4.33-20.5,7s-18,5.33-21,8-5.17,6.33-6.5,11c-1.33,8-5,14.67-11,20-4.67,3.33-8,10-10,20s-1,16,3,18,8,2.33,12,1c2.67-.67,6-2.33,10-5s7-3.67,9-3c6.67.67,12.33.33,17-1,2.67-.67,5.5-2.17,8.5-4.5s4.67-4.83,5-7.5.5-7,.5-13c-.67-8.67-.33-15.67,1-21,1.33-9.33,4.67-18,10-26ZM298,489c-1.33,12-1.17,20.33.5,25,1.67,4.67,4.5,7.33,8.5,8,10.67,24,23.67,38.67,39,44,.67-3.33.67-6,0-8s-2-4-4-6c-2.67-4-4-7.33-4-10,8.67,3.33,15,2.33,19-3,.67-2,1.17-5.83,1.5-11.5s1.17-8.83,2.5-9.5l4-2c4-1.33,6.33-3,7-5-2.67-5.33-6.33-9.5-11-12.5s-8.33-6.17-11-9.5c-6.67-8-12-13.67-16-17-7.33-4.67-14.67-7-22-7-2-3.33-6.33-6.17-13-8.5s-10.83-2-12.5,1-2,5.83-1,8.5,2.83,5.67,5.5,9c4.67,5.33,7,10,7,14ZM691,465c-3.33-.67-5.83-.83-7.5-.5s-3.83.83-6.5,1.5l-7,3c-5.33,2-9.17,4.67-11.5,8s-3.5,8-3.5,14c-4,1.33-8.33,3.83-13,7.5s-7.33,7.5-8,11.5c3.33,1.33,5.33,3.17,6,5.5s1,5.67,1,10,.5,7.67,1.5,10,3.17,3.83,6.5,4.5c4.67,2,9.67,1.67,15-1,2.67-1.33,7-4.33,13-9,10.67-7.33,19.33-11.33,26-12-2.67-14.67-2.67-25.67,0-33,1.33-4,4-8,8-12,2.67-2,4.33-3.83,5-5.5s.33-4.5-1-8.5c-3.33-4.67-7.33-6-12-4-2.67,1.33-6,4-10,8l-2,2ZM528,479c8.67,17.33,13,32.67,13,46,0,8-2,17.67-6,29-2.67,6.67-4,11.67-4,15-1.33,6-1,11.67,1,17,3.33-.67,6.17-2,8.5-4s4.83-5,7.5-9c5.33-7.33,10.67-13,16-17,.67-7.33,2.33-13,5-17,2-2.67,5-5.67,9-9,6-4,9.67-8.33,11-13-1.33-1.33-3.67-3.5-7-6.5s-5.67-5.5-7-7.5c-2-3.33-3-7-3-11-2-1.33-5-2.17-9-2.5s-6.67-1.17-8-2.5c-.67-2.67-2.5-5.17-5.5-7.5s-4.5-4.5-4.5-6.5c-2-.67-3.5-2.5-4.5-5.5s-2.17-5.17-3.5-6.5-4.33-2-9-2v20ZM418,525c.67,3.33,3.67,6.67,9,10,3.33,2.67,5.67,5,7,7,2,3.33,2.67,7.67,2,13,12,18.67,23.67,28.67,35,30-.67-14-3.17-28.83-7.5-44.5s-9.5-28.83-15.5-39.5c-8.67-1.33-15.5.33-20.5,5s-8.17,10.67-9.5,18v1ZM665,611l-2,1c-8.67,5.33-14.67,10.67-18,16l-7,21c-5.33,16-8.67,27-10,33-2,10.67-.33,16.67,5,18,4.67-2,9.67-7.67,15-17,4-6,7.33-10,10-12,4-2.67,9.67-6.67,17-12l8-5c1.33-6.67,3.67-12,7-16,2-2.67,5-5.33,9-8,6-4,9.67-8.33,11-13-8,.67-14.33-1-19-5-2.67-2.67-5.67-7-9-13-2-5.33-4-9-6-11-2.67-3.33-6.33-5-11-5,.67,3.33.67,7.67,0,13s-.67,10.33,0,15ZM302,625c0,1.33,1,4.33,3,9l4,9,1,5c.67,4.67,1,8.33,1,11s-1,6.67-3,12c4.67,8,9.83,13.5,15.5,16.5s13.5,3.5,23.5,1.5l3,3c10.67,9.33,18,13.33,22,12,.67-2-.33-7-3-15-3.33-9.33-5-17-5-23-2-4-5.33-8-10-12l-4-3c.67-2.67,2.67-5.17,6-7.5s4.67-5.5,4-9.5l-30-18c-6.67-3.33-14.33-6.67-23-10-4,8.67-5.67,15-5,19ZM414,651c-4.67,8.67-6.67,14.67-6,18s4.33,7,11,11l7,4c0-7.33,3.17-16.5,9.5-27.5s9.5-21.17,9.5-30.5c-5.33,0-11-2.67-17-8-4-3.33-7-5.33-9-6-4-2-8.67-2.67-14-2-3.33,8.67-4.33,15.33-3,20,.67,3.33,2.83,6.83,6.5,10.5s5.5,7.17,5.5,10.5ZM571,622c-.67,3.33,0,6.17,2,8.5s2.33,5.83,1,10.5c-11.33,6.67-18.33,16.67-21,30,.67,14,4.67,21,12,21,4-2.67,6.67-6.33,8-11s1-9.33-1-14c1.33-1.33,3.67-2.33,7-3,5.33-.67,8-2.33,8-5-.67-4.67,0-9,2-13,.67-2,2.17-4.33,4.5-7s4-5.33,5-8,1.17-7.33.5-14v-7c-7.33,0-12.83.67-16.5,2s-7.5,4.67-11.5,10ZM652,706c-4.67,10.67-4.33,17.33,1,20,.67,2.67,1.5,4.33,2.5,5s3.83,1.33,8.5,2c.67-4.67,4-11.67,10-21l6-8c4-6,6.67-10.33,8-13,1.33-4.67.67-8.33-2-11-6.67-.67-13.17,1.5-19.5,6.5s-11.17,11.5-14.5,19.5ZM432,746c.67-3.33-.17-7.67-2.5-13s-2.83-10-1.5-14c-3.33.67-7.5.17-12.5-1.5s-9.83-1.83-14.5-.5c-2.67,8-.83,15,5.5,21s14.83,8.67,25.5,8ZM572,721c.67,5.33,3.17,9.33,7.5,12s9.5,3.67,15.5,3c4.67-4.67,7-10.67,7-18-4.67-1.33-10.33-1-17,1-5.33,1.33-9.67,2-13,2ZM482,768v2c.67,7.33,1.67,12.33,3,15,2.67,3.33,8,5.33,16,6,1.33-4,4.67-9,10-15,6-8,9.67-14.33,11-19-4.67-1.33-9.67-.33-15,3-2,1.33-4,2.33-6,3l-2-5c-1.33-2.67-2.67-4.5-4-5.5s-3.67-1.5-7-1.5c0-3.33-1.33-6.17-4-8.5s-6-3.5-10-3.5l2,5c3.33,11.33,5.33,19.33,6,24Z"/>
</svg>