<?xml version="1.0" encoding="UTF-8"?>
<svg id="_레이어_1" data-name="레이어_1" xmlns="http://www.w3.org/2000/svg" version="1.1" viewBox="0 0 1000 1000">
  <!-- Generator: Adobe Illustrator 30.6.0, SVG Export Plug-In . SVG Version: 2.1.4 Build 109)  -->
  <defs>
    <style>
      .st0 {
        fill: #fff;
      }
    </style>
  </defs>
  <path class="st0" d="M873,839c-.67-2-13-16-37-42l-35-38v-11c0-7.33-.33-12.67-1-16s-3-8-7-14c-6.67-8.67-10-15.67-10-21s2.67-10.67,8-16l8-7-10-9c-7.33-6.67-13.5-10-18.5-10s-8.5.83-10.5,2.5-3.83,3.83-5.5,6.5-3.33,4.5-5,5.5-4.17,1.5-7.5,1.5-5.83-1.17-7.5-3.5-2-4.67-1-7,3.17-5.33,6.5-9,5.83-6.83,7.5-9.5,2.83-6.17,3.5-10.5,1.17-11.67,1.5-22-1.17-23.17-4.5-38.5c-2.67-9.33-5-17-7-23-1.33-4.67-5.33-6.67-12-6-2,0-7.67,4-17,12-7.33,7.33-12,11.5-14,12.5s-3.83.83-5.5-.5-2.5-3.33-2.5-6,6.33-11,19-25c7.33-7.33,11.33-12,12-14,3.33-5.33,4.5-10.67,3.5-16s-6.33-16.5-16-33.5-17.17-27.67-22.5-32-11-4.83-17-1.5c-2,1.33-16,14.33-42,39-28.67,27.33-44,41.5-46,42.5s-3.33,1.17-4,.5-.83-1.83-.5-3.5,12.5-16.5,36.5-44.5c23.33-25.33,36.33-40.33,39-45,5.33-7.33,6.17-14.67,2.5-22s-11.67-17-24-29-22.33-19.33-30-22-13.5-2.67-17.5,0c-1.33,1.33-20.67,20-58,56l-41,39c-.67.67-1.33.67-2,0s-.83-1.83-.5-3.5,13.17-17.5,38.5-47.5c25.33-30,40-48.33,44-55,3.33-4.67,3.67-9.17,1-13.5s-10.17-10.83-22.5-19.5-21.17-13.67-26.5-15c-8.67-2-15.33-1.67-20,1-2,.67-10,8.17-24,22.5s-21.83,21.67-23.5,22-3.17-.33-4.5-2-1.5-3.83-.5-6.5,9.83-14.33,26.5-35l1-2c2.67-2.67,3.67-6.17,3-10.5s-2.33-7.5-5-9.5c-7.33-4.67-21.17-7.83-41.5-9.5s-33.5-1.17-39.5,1.5c-2.67.67-8.33,5-17,13-7.33,6-11.33,9-12,9-7.33,2.67-10-.33-8-9,0-2,2-4.67,6-8,6.67-6,10.17-11.5,10.5-16.5s-2.83-11.83-9.5-20.5c-2.67-4.67-6-8.67-10-12l-7,8c-6,5.33-11.33,8.33-16,9s-11.67-2.67-21-10c-6-4.67-10.33-7-13-7-6-1.33-15-1.67-27-1l-38-35c-26-24-40.17-36.5-42.5-37.5s-4.83-1.5-7.5-1.5-4.67.67-6,2-.67,5,2,11c.67,2.67,13,16.67,37,42l35,39v10c0,7.33.33,12.67,1,16s3.33,8,8,14c6.67,9.33,9.83,16.33,9.5,21s-3.17,10-8.5,16c-2.67,2.67-5.33,5-8,7l13,11c9.33,7.33,16.33,11,21,11,2-.67,4.5-.17,7.5,1.5s5.17,3.83,6.5,6.5,0,8.33-4,17-6,14.67-6,18c0,5.33,2.5,17.17,7.5,35.5s8.5,28.67,10.5,31,5.33,3.17,10,2.5,7.83-.17,9.5,1.5.83,5.83-2.5,12.5c-2.67,5.33-4,9.33-4,12-.67,9.33,8,27.33,26,54,20,30,43.67,58.33,71,85s54.33,47.67,81,63c20.67,11.33,36.33,17,47,17,7.33,0,14.67-3.33,22-10,2-2,3.5-2.83,4.5-2.5s1.17,3.17.5,8.5-.67,8.67,0,10c3.33,4.67,8.33,8.67,15,12,10.67,5.33,24.67,8.67,42,10,24,1.33,39-.33,45-5,1.33-.67,2.33-1,3-1,4,1.33,6.17,3.17,6.5,5.5s.17,5.5-.5,9.5l-1,4c-.67,4.67,2.33,11.33,9,20l11,11,7-8c6-5.33,11.33-8.33,16-9s11.67,2.67,21,10c6,4.67,10.33,7.33,13,8,6,.67,15,.67,27,0l38,36c26,23.33,40.17,35.5,42.5,36.5s4.83,1.5,7.5,1.5,4.67-.67,6-2,.67-5-2-11ZM580,742c-2.67.67-8,3.67-16,9-17.33,10.67-32.33,18.33-45,23-21.33,9.33-42.67,14.33-64,15-44.67,1.33-79.33-21-104-67-5.33-10.67-15.67-37-31-79l-13-35c-9.33-24.67-21-44.67-35-60-16.67-18.67-36.33-29.33-59-32-18.67-2-35.33.67-50,8-11.33,5.33-20.67,13.67-28,25-6,9.33-9.33,18.17-10,26.5s.33,14.17,3,17.5c2.67,3.33,5.33,5,8,5,5.33,0,8.67-2.33,10-7,4-12.67,10.33-23.33,19-32,12-12,27.33-16.67,46-14,22,2.67,40.67,17.33,56,44,9.33,15.33,20.33,42,33,80,10,28,17.67,47.33,23,58,19.33,38,42.67,64,70,78,21.33,11.33,46,15.67,74,13,51.33-5.33,99-25.33,143-60,1.33-.67,2.33-2,3-4s.67-3.33,0-4c-1.33-3.33-6.17-6-14.5-8s-14.5-2-18.5,0Z"/>
</svg>