<?xml version="1.0" encoding="UTF-8"?>
<svg id="_레이어_1" data-name="레이어_1" xmlns="http://www.w3.org/2000/svg" version="1.1" viewBox="0 0 1000 1000">
  <!-- Generator: Adobe Illustrator 30.6.0, SVG Export Plug-In . SVG Version: 2.1.4 Build 109)  -->
  <defs>
    <style>
      .st0 {
        fill: #fff;
      }
    </style>
  </defs>
  <path class="st0" d="M846,560c-1.33-2.67-5-2.67-11,0-4,1.33-11,5.33-21,12-50.67,32-110.67,58.33-180,79-71.33,20.67-132,29-182,25-38.67-2.67-71.33-9-98-19l47-150c14.67,36,38.67,63.67,72,83,26.67,15.33,55,22.83,85,22.5s58-7.83,84-22.5,46.67-35.33,62-62c14.67-24.67,22.33-51,23-79s-5-54.5-17-79.5-29.33-45.83-52-62.5c-.67-.67-1-6.33-1-17,0-12-.67-20.67-2-26-1.33-10-4.33-16-9-18s-11.33-.33-20,5c-4.67,3.33-11.33,9.33-20,18-6.67,6-10.33,9-11,9-22.67-5.33-45.17-5.83-67.5-1.5-22.33,4.33-43.17,12.5-62.5,24.5l36-116c4-10.67,7-23.67,9-39,2.67-22,.67-34.17-6-36.5s-15.67,6.17-27,25.5c-7.33,13.33-12.67,25.33-16,36l-162,451c-11.33-11.33-19.33-24.33-24-39s-6.33-31.67-5-51c.67-12,3-29,7-51l1-5c3.33-17.33,3.17-26.83-.5-28.5s-10.33,5-20,20c-9.67,15-18.17,31.17-25.5,48.5-10,22-16.33,42.33-19,61-3.33,27.33-1,53,7,77,8.67,27.33,24.67,49.67,48,67l-18,78c-3.33,10-5.67,21-7,33-1.33,18,1.5,28.17,8.5,30.5s15.17-4.17,24.5-19.5c6.67-10,11.67-20,15-30l30-66c11.33,3.33,22,6,32,8,42,6.67,88.33,6,139-2,55.33-8,110-24.67,164-50,59.33-27.33,114-63.33,164-108,10.67-9.33,17.67-16.33,21-21,5.33-6.67,7-11.33,5-14ZM466,390c10-16,23-28.67,39-38s33.5-14.17,52.5-14.5,36.67,4.33,53,14,29.17,22.67,38.5,39,14,33.83,14,52.5-4.67,36.33-14,53c-9.33,16.67-22.17,29.5-38.5,38.5s-33.83,13.67-52.5,14-36.33-4.33-53-14c-16.67-9.67-29.67-22.67-39-39s-14-33.83-14-52.5,4.67-36.33,14-53Z"/>
</svg>