<?xml version="1.0" encoding="UTF-8"?>
<svg id="_레이어_1" data-name="레이어_1" xmlns="http://www.w3.org/2000/svg" version="1.1" viewBox="0 0 1000 1000">
  <!-- Generator: Adobe Illustrator 30.6.0, SVG Export Plug-In . SVG Version: 2.1.4 Build 109)  -->
  <defs>
    <style>
      .st0 {
        fill: #fff;
      }
    </style>
  </defs>
  <path class="st0" d="M525,235c14-12,26-25,36-39,8-11.33,14.33-23,19-35,4-8.67,7-17.33,9-26l1-10h-10c-8,.67-16.67,2-26,4-13.33,2.67-26,7-38,13-16,7.33-31,17-45,29l-281,236c-13.33,11.33-25,24-35,38-8,11.33-14.67,23-20,35-4,8.67-6.67,17.33-8,26l-2,10h10c8.67-.67,17.67-2,27-4,12.67-2.67,25.33-7,38-13,15.33-7.33,30-17,44-29l140-118,141-117ZM667,404c14-11.33,26-24,36-38,8-11.33,14.67-23.33,20-36,3.33-8.67,6-17,8-25l2-10h-10c-8.67.67-17.67,2-27,4-12.67,2.67-25.33,7-38,13-15.33,7.33-30,17-44,29l-281,235c-14,12-26,25-36,39-8,11.33-14.67,23-20,35-3.33,8.67-6,17.33-8,26l-2,9h10c8.67,0,17.67-1,27-3,12.67-3.33,25.33-7.67,38-13,15.33-7.33,30-17,44-29l141-118,140-118ZM756,510l-140,118-141,118c-14,12-26,25-36,39-8,10.67-14.33,22.33-19,35-4,8.67-7,17-9,25l-1,10h10c8,0,16.67-1,26-3,13.33-3.33,26-8,38-14,16-7.33,31-16.67,45-28l281-236c25.33-21.33,43.67-46,55-74,6-14,9.33-25.67,10-35h-10c-8.67,0-17.67,1-27,3-12.67,3.33-25.33,7.67-38,13-15.33,8-30,17.67-44,29Z"/>
</svg>