<?xml version="1.0" encoding="UTF-8"?>
<svg id="_레이어_1" data-name="레이어_1" xmlns="http://www.w3.org/2000/svg" version="1.1" viewBox="0 0 1000 1000">
  <!-- Generator: Adobe Illustrator 30.6.0, SVG Export Plug-In . SVG Version: 2.1.4 Build 109)  -->
  <defs>
    <style>
      .st0 {
        fill: #fff;
      }
    </style>
  </defs>
  <path class="st0" d="M771,689c-5.33-2.67-13-6-23-10-16.67-6-28.33-11.67-35-17l-8-6c-19.33-12-32-20.67-38-26-8-7.33-15.17-15.17-21.5-23.5s-10.67-15-13-20-8.83-16.83-19.5-35.5l-9-16c-9.33-14.67-14.67-25-16-31,9.33,9.33,17.67,18.67,25,28,.67,1.33,2.33,4,5,8,4,8,8,13.33,12,16,0,.67.5.67,1.5,0l1.5-1c-2-10.67-2.17-22-.5-34s4.5-22,8.5-30c.67-1.33.33-2.67-1-4-12.67-5.33-23.67-11.33-33-18-6-3.33-13.67-8.67-23-16l-13-10-7-5c-12.67-8-21.67-16.33-27-25,3.33,2.67,10.67,7,22,13l10,6,8,5c4.67,4,8.67,7,12,9,.67,0,1.33-.5,2-1.5s1-1.83,1-2.5l-4-11c-5.33-15.33-7.67-28.67-7-40-2-4-4-7.67-6-11-8.67-7.33-15.67-14.33-21-21-3.33-4-6.67-9.33-10-16-3.33-5.33-5.67-9.33-7-12l-6-8c-7.33-10-13-18.67-17-26-7.33-12.67-12.67-26.33-16-41-19.33,2-36.33,2.67-51,2s-31-3-49-7c-2-.67-8.67-4.33-20-11-18.67-11.33-32.67-19-42-23s-21-8-35-12l-11-4c-7.33-2-16-4-26-6l-11-2c-28-5.33-55.67-12.33-83-21-8,11.33-12.67,25-14,41,0,9.33,1,23,3,41l2,15c1.33,12,2.33,20.33,3,25,2,7.33,6.33,17.67,13,31,5.33,10,9,18,11,24,1.33,4,3,10.67,5,20,2,7.33,3.67,12.67,5,16l5,13c3.33,9.33,5.33,16.33,6,21,4,.67,7,.33,9-1s4-3.67,6-7c4-6,8-9,12-9h1c19.33,1.33,33,1.67,41,1,13.33-1.33,23.83-4.83,31.5-10.5s15.83-14.83,24.5-27.5c6.67-9.33,12.33-19,17-29,.67,3.33.33,7.33-1,12-.67,2.67-2.5,7.33-5.5,14s-5.17,12-6.5,16-2.67,9.67-4,17-2.33,12.33-3,15c-1.33,4-3.5,6.67-6.5,8s-10.17,1.33-21.5,0l-29-4c-13.33-2.67-22.33-3.83-27-3.5s-8,1.5-10,3.5c-5.33,4.67-10.33,10-15,16-1.33,1.33-2,3.17-2,5.5s1.67,5.5,5,9.5l2,4c2.67,3.33,7.33,9.5,14,18.5s10.33,14.5,11,16.5c1.33,4.67,2.17,12,2.5,22s1.5,17.33,3.5,22c.67,2,3.33,5.33,8,10l5,7c2.67,3.33,6.33,9,11,17,8,14.67,14.67,24.33,20,29,1.33,0,2.83-.17,4.5-.5s2.17-.83,1.5-1.5c-5.33-14.67-7.67-32.33-7-53v-6c.67-17.33.33-29.67-1-37,0-3.33-1.5-8.17-4.5-14.5s-4.17-11.17-3.5-14.5c8.67,10,14.33,21,17,33,3.33,13.33,3.67,28.33,1,45,.67.67,4,3,10,7l13,10,16,10c9.33,6,15,10,17,12,5.33,4.67,11,13,17,25,4,6.67,7,11.33,9,14,10,13.33,17.67,22.67,23,28,15.33,15.33,25.67,28,31,38,.67.67,1.5,1.17,2.5,1.5s1.83.17,2.5-.5c6-9.33,14-16.33,24-21,12.67-6,21.33-8.67,26-8,3.33,0,6.67,1.33,10,4l6,3,6,1c.67-.67.67-1.67,0-3-2.67-7.33-17-18.33-43-33-3.33-1.33-8.33-3-15-5-10.67-2.67-17.67-5.67-21-9,18,1.33,38.67,7.33,62,18,14,6,33.67,16.67,59,32l6,3c2.67,2,11,8,25,18l10,8c5.33,2,12.5,3.33,21.5,4s16.17.33,21.5-1c2,0,4.67-1,8-3,4.67-3.33,9-5,13-5l7,5c4,2.67,7,5,9,7,2.67,2.67,4.33,6,5,10-8-5.33-15-8-21-8-4-.67-9.33.33-16,3-12.67,3.33-24.67,4.33-36,3,1.33,5.33,6,12.33,14,21,5.33,7.33,9.33,12.67,12,16,2.67,6,5.67,13.67,9,23l4,9,4,15,11,22,11,21c4.67,8.67,8.67,15,12,19,5.33,6,11.33,9.67,18,11-4-12-5-23.33-3-34,1.33-6.67,4.67-15.33,10-26,4-9.33,6.5-16.17,7.5-20.5s1.33-9.83,1-16.5-.17-11.67.5-15c4,0,9.33,1.17,16,3.5s11.33,3.83,14,4.5c4-2,10-5.33,18-10,12.67-8,23-12.33,31-13,4.67,0,13,1,25,3l11,2c-17.33-22.67-41.67-41.33-73-56ZM269,265c-2,2-6.17,3.33-12.5,4-6.33.67-10.5,0-12.5-2-5.33-3.33-8.83-8.5-10.5-15.5s-.5-11.83,3.5-14.5c2-1.33,4-2,6-2s4.67.33,8,1c1.33,0,3.33.67,6,2l9,5c2.67,1.33,4.67,4.5,6,9.5s.33,9.17-3,12.5Z"/>
</svg>