<?xml version="1.0" encoding="UTF-8"?>
<svg id="_레이어_1" data-name="레이어_1" xmlns="http://www.w3.org/2000/svg" version="1.1" viewBox="0 0 1000 1000">
  <!-- Generator: Adobe Illustrator 30.6.0, SVG Export Plug-In . SVG Version: 2.1.4 Build 109)  -->
  <defs>
    <style>
      .st0 {
        fill: #fff;
      }
    </style>
  </defs>
  <path class="st0" d="M852,845c-3.33,0-6.67-.33-10-1-8.67-1.33-18.67-3.67-30-7-15.33-4.67-32-10.33-50-17-23.33-10-45.33-23-66-39,.67-6.67-2.33-15.33-9-26-4.67-8-11.33-16.33-20-25l-8-8c-4-4.67-7.67-11-11-19s-5.33-14.5-6-19.5,0-9.5,2-13.5l1-3c1.33-4,1.17-6-.5-6s-3.67,3-6,9-3.5,13-3.5,21c0,9.33,2.67,22.67,8,40,1.33,5.33,2.33,13.67,3,25l-35-25c-10-8-19.33-16.67-28-26,3.33-2,6.5-5,9.5-9s5.17-13,6.5-27,.67-28.67-2-44c-2.67-17.33-7.33-31.33-14-42-4.67-9.33-10-17.67-16-25l-7-8-30-61c-4.67-10-11.17-21.33-19.5-34-8.33-12.67-14.17-20.33-17.5-23v-1c-9.33-9.33-14.5-13.33-15.5-12s1.83,5.67,8.5,13c2.67,2.67,7,9.33,13,20,7.33,12.67,13.67,24.67,19,36,6.67,18,12,37.67,16,59l-2,10-1,16-14-24c-5.33-9.33-11.67-18-19-26-4.67-27.33-10.33-47.67-17-61s-15.67-25-27-35c-2-8.67-4.33-17-7-25-5.33-14-13.33-30.33-24-49l-4-8c-1.33-4-3.83-8.17-7.5-12.5s-5.67-6.33-6-6,1.17,3.5,4.5,9.5l2,4c.67,1.33,3,7.67,7,19l7,18c4.67,13.33,8,27.33,10,42-.67,2-1.33,3.67-2,5l-6,11c-2-3.33-4.67-6.67-8-10s-6.67-7.33-10-12c-3.33-21.33-8.17-42.33-14.5-63s-14.83-40-25.5-58c-4-7.33-8.5-14.5-13.5-21.5s-7.83-10.17-8.5-9.5,1,5.67,5,15l5,10c10,22,14.67,39.67,14,53-1.33,7.33-3.33,14.67-6,22l-14-13c-4.67-3.33-12-8.67-22-16,4.67-21.33,3.67-40.67-3-58-4-9.33-9-18.33-15-27-8.67-21.33-19-38.67-31-52-7.33-8.67-11.67-12-13-10l5,8c4.67,6.67,9.33,13.67,14,21,2,3.33,5,10.33,9,21l5,15c-1.33,3.33-2.5,6.67-3.5,10s-2.17,8-3.5,14c-10.67-16-22.33-29.5-35-40.5-12.67-11-21.33-16.17-26-15.5-.67,0,.67,1.33,4,4,15.33,14.67,27.67,29.67,37,45,15.33,24.67,21.33,43.67,18,57-1.33,2.67-4.33,4.67-9,6-2-19.33-7.67-35.67-17-49-6.67-10-15.33-19.67-26-29-7.33-6.67-15.33-13-24-19l-10-6c-12-14-22.33-29.33-31-46-4.67-9.33-10.33-22.67-17-40-4.67-10.67-7.5-16-8.5-16s.17,7.17,3.5,21.5,7.67,26.83,13,37.5l21,50c0,16.67,3,32.67,9,48,.67,7.33,2,15.83,4,25.5s4,16.83,6,21.5c4,10,9,19.33,15,28l-4-1c-3.33-.67-6-1.67-8-3s-6.83-5.83-14.5-13.5-14.17-14.5-19.5-20.5l-12-16c-9.33-12.67-14.5-18.67-15.5-18s1.67,6.5,8,17.5,12.83,21.5,19.5,31.5l24,32,3,12c4,10,9.17,17.67,15.5,23s12.83,10,19.5,14c5.33,2,10.33,3.67,15,5l5,1,16,22h-20c-6.67,0-13,.33-19,1-11.33-6.67-21.33-15-30-25-6-7.33-13-16.67-21-28l-6-7c-6.67-8-10.5-11.67-11.5-11s-.5,3,1.5,7,4,7.33,6,10l6,7c22.67,32,39,52.33,49,61,28,26,50.67,43,68,51,7.33,2.67,14.67,5,22,7l23,35-36-3c-1.33,0-5.67-1.83-13-5.5s-14-7.83-20-12.5c-10.67-9.33-23.67-22.33-39-39l-8-10c-3.33-4.67-5.17-6.83-5.5-6.5s.17,2.17,1.5,5.5,2.67,6,4,8c12,16.67,25,32,39,46,6,6.67,18.67,17.67,38,33l6,6c10,11.33,19.67,20.67,29,28,7.33,4.67,17.67,7.67,31,9l17,16,15,16,4,11c1.33,4,3,7.67,5,11l-8-2c-7.33-2-15.33-6-24-12-4.67-3.33-11.5-8.67-20.5-16s-14.5-12-16.5-14c-9.33-10-14.5-14.5-15.5-13.5s1.5,5.17,7.5,12.5c3.33,4.67,9.67,12,19,22,11.33,12,19.67,20,25,24l14,10c13.33,9.33,21.33,15.67,24,19,6,8,13.67,15.33,23,22,16,12,34.17,19.5,54.5,22.5s39.5,2.17,57.5-2.5c8.67-2.67,15.33-5.67,20-9,8.67,8,15.33,13.67,20,17,6,5.33,11.67,10.67,17,16-4.67.67-11,1-19,1s-19,1.33-33,4c-16,3.33-29.17,7.17-39.5,11.5-10.33,4.33-19.83,10.17-28.5,17.5-3.33,2.67-5.33,6-6,10,2.67,0,5.17-.83,7.5-2.5s7.5-4,15.5-7,14.33-4.5,19-4.5c10,0,22.33,2.33,37,7,6.67,2.67,15.67,4.67,27,6,14,2.67,27,4,39,4s25-2,39-6l6-2c.67,0,8.67,5,24,15,17.33,11.33,30,19,38,23,12,7.33,28,15.5,48,24.5s31.33,13.5,34,13.5c6-.67,14.33-5.33,25-14l11-11,2-5ZM253,362c-2,0-4.33-.67-7-2l-4-2c-7.33-5.33-13.17-11.5-17.5-18.5s-6.83-14.5-7.5-22.5c8,10.67,14.5,17.83,19.5,21.5s10.5,5.83,16.5,6.5l2,8v5c0,2.67-.67,4-2,4ZM296,449c-6-3.33-12-8.33-18-15l-6-9c5.33,1.33,10.67,2.33,16,3,3.33.67,7,.67,11,0l12,13,12,14h-8c-6-.67-12.33-2.67-19-6ZM341,360l5,5c4.67,4.67,9.67,10.33,15,17,4,5.33,6.67,11.67,8,19,1.33,5.33,1.5,9.83.5,13.5s-2.83,5.5-5.5,5.5l-4-1c-3.33-3.33-6.33-6.67-9-10l-9-11v-15l-1-23ZM396,567c-.67,1.33-2.67,1.5-6,.5s-7-2.5-11-4.5c-6-3.33-13.33-9.67-22-19l-12-14c5.33,1.33,10.17,2.33,14.5,3s8.5.33,12.5-1l15,17c4,4,6.67,7.67,8,11s1.67,5.67,1,7ZM425,458c2,1.33,4.67,2.33,8,3l3,21c.67,4.67,2,10.33,4,17l2,10-8-1c-1.33-2-3-4.33-5-7l-5-5-1-18c-1.33-8.67-3-17-5-25,2,2,4.33,3.67,7,5ZM457,666c-2.67-.67-5.83-2-9.5-4s-7.17-3.67-10.5-5c-8-3.33-14.67-8.67-20-16,5.33-.67,10.67-1,16-1s10,.67,14,2l24,21c-4.67,2-9.33,3-14,3ZM526,631l-6-8c-4-6-7-10-9-12l-10-12c.67-6,1.33-11.67,2-17,.67-3.33,1.33-8,2-14v-8c.67,0,3.17,2.83,7.5,8.5,4.33,5.67,8.17,11.5,11.5,17.5,4.67,8,7,14.67,7,20,1.33,8.67-.33,17-5,25Z"/>
</svg>