<?xml version="1.0" standalone="no"?><!DOCTYPE svg PUBLIC "-//W3C//DTD SVG 1.1//EN" "http://www.w3.org/Graphics/SVG/1.1/DTD/svg11.dtd" ><svg xmlns="http://www.w3.org/2000/svg"><metadata></metadata><defs><font id="TYPR: XIV AXIS Std ATK Regular: 2003" horiz-adv-x="2000"><font-face font-family="XIV AXIS Std ATK" font-weight="400" font-stretch="normal" units-per-em="1000" panose-1="0 0 0 0 0 0 0 0 0 0" ascent="1380" descent="-620" x-height="0" bbox="-10 -136 1938 897" underline-thickness="50" underline-position="-74" unicode-range="U+000a-e0db" /><missing-glyph horiz-adv-x="1000" d="M862 742 l-724 0 l0 -723 l724 0 l0 723 ZM790 669 l0 -578 l-579 0 l0 578 l579 0 ZM270 559 l179 -179 l-179 -178 l51 -52 l179 179 l179 -179 l51 52 l-179 178 l179 179 l-51 51 l-179 -178 l-179 178 l-51 -51 Z" /><glyph glyph-name="" unicode=" " d="" /><glyph glyph-name="" unicode="" d="" /><glyph glyph-name="" unicode="" d="" /><glyph glyph-name="" unicode="&#xe034;" d="M1047 665 q-55 40 -175 38 q-121 -2 -214 -107 q-33 -49 -59 -133 q-26 -84 -28 -115 q0 -24 -5 -21 q-4 4 -8 -13 q-11 113 -38 244 q-27 132 -87 219 q-94 105 -224 80 q-130 -26 -182 -97 q-16 -24 -14 -35 q2 -12 32 -8 q130 11 149 -99 q20 -111 79 -217 q65 -73 131 -88 q65 -15 87 -83 q13 -50 14 -58 q0 -7 -6 -82 q-2 -32 -3 -53 q-2 -20 -4 -26 q-7 -21 -15 -32 q-8 -12 -11 -33 q0 -7 8 -15 q6 -8 19 -12 q13 -5 29 -7 q11 -2 21 -2 q5 1 12 1 q6 0 12 -1 q9 0 20 2 q16 2 29 7 q13 4 19 12 q8 8 8 15 q-2 20 -9 27 q-7 8 -16 38 q-2 6 -4 26 q-2 21 -4 53 q-6 77 -8 87 q-1 9 8 48 q4 45 17 68 q13 24 119 77 q92 64 130 167 q39 102 150 94 q31 -5 37 6 q6 11 -16 28 l0 0 Z" /><glyph glyph-name="" unicode="&#xe033;" d="M962 374 q2 18 -4 83 q-7 65 -26 117 q-81 40 -192 20 q-112 -20 -168 -47 q6 62 49 108 q43 46 49 128 q-94 44 -163 44 q-70 0 -164 -44 q6 -82 49 -128 q43 -46 49 -108 q-56 27 -168 47 q-111 20 -192 -20 q-19 -52 -25 -117 q-7 -65 -5 -83 q67 24 156 48 q88 25 136 -25 q39 -66 -38 -143 q-77 -78 -158 -149 q38 -66 84 -107 q46 -41 114 -69 q45 74 80 165 q34 91 82 99 q47 -8 81 -99 q35 -91 80 -165 q68 28 114 69 q46 41 85 107 q-81 71 -159 149 q-77 77 -38 143 q51 54 139 28 q87 -26 153 -51 l0 0 Z" /><glyph glyph-name="" unicode="&#xe040;" d="M345 568 l79 -78 q19 -19 32 -13 q13 5 14 32 l0 257 q-1 27 -19 45 q-18 18 -46 19 l-257 0 q-26 0 -32 -13 q-5 -13 13 -32 l82 -82 q-77 -55 -121 -139 q-45 -84 -46 -184 q1 -100 46 -184 q44 -84 121 -139 l-82 -81 q-18 -19 -13 -32 q6 -13 32 -13 l257 0 q28 1 46 19 q18 18 19 45 l0 256 q-1 27 -14 32 q-13 6 -32 -13 l-76 -76 q-53 31 -91 79 q-37 48 -39 107 q1 59 38 109 q36 49 89 79 l0 0 Z" /><glyph glyph-name="" unicode="&#xe041;" d="M158 568 q53 -30 89 -79 q37 -50 38 -109 q-2 -59 -39 -107 q-37 -48 -91 -79 l-76 76 q-19 19 -32 13 q-13 -5 -13 -32 l0 -256 q1 -27 19 -45 q18 -18 45 -19 l257 0 q27 0 32 13 q6 13 -13 32 l-81 81 q76 55 121 139 q45 84 46 184 q-1 100 -46 184 q-45 84 -121 139 l81 82 q19 19 13 32 q-5 13 -32 13 l-257 0 q-27 -1 -45 -19 q-18 -18 -19 -45 l0 -257 q0 -27 13 -32 q13 -6 32 13 l79 78 Z" /><glyph glyph-name="" unicode="&#xe03c;" d="M616 720 q100 -1 184 -42 q85 -40 144 -111 q-58 122 -170 196 q-112 74 -256 76 q-200 -5 -333 -138 q-133 -133 -138 -333 q3 -171 105 -295 q101 -124 262 -163 q9 -4 19 -6 q10 -3 21 -5 q-35 26 -55 64 q-21 39 -21 84 q2 79 54 132 q53 53 132 55 q79 -2 132 -55 q52 -53 54 -132 q0 0 0 -1 q13 26 19 55 q7 29 7 60 q-3 115 -79 190 q-75 76 -190 79 q-114 -3 -189 -79 q-76 -75 -79 -190 q0 -32 7 -63 q7 -30 21 -57 q-38 53 -59 116 q-21 63 -21 133 q5 183 126 304 q121 121 303 126 l0 0 Z" /><glyph glyph-name="" unicode="&#xe031;" d="M551 410 l133 -133 q15 -15 15 -35 q0 -20 -15 -36 q-15 -14 -35 -14 q-20 0 -35 14 l-148 148 q-1 1 -2 2 q-1 1 -2 3 q-5 6 -8 14 q-3 8 -3 17 l0 293 q1 21 15 35 q14 14 35 15 q22 -1 36 -15 q14 -14 14 -35 l0 -273 ZM16 400 q5 -205 142 -341 q137 -136 342 -141 q205 5 342 141 q137 136 142 341 q-5 205 -142 342 q-137 137 -342 142 q-205 -5 -342 -142 q-137 -136 -142 -341 l0 -1 ZM500 10 q-166 4 -276 114 q-111 110 -115 276 q4 166 115 277 q110 110 276 114 q166 -4 277 -114 q110 -111 114 -277 q-4 -166 -114 -276 q-111 -110 -276 -114 l-1 0 Z" /><glyph glyph-name="" unicode="&#xe049;" d="M278 40 q138 11 191 80 q54 68 50 184 q-2 101 -78 183 q-76 81 -209 86 q-81 0 -112 -9 q-31 -10 -70 -22 l24 -84 q38 12 66 22 q28 10 88 9 q81 -5 139 -58 q57 -54 60 -128 q2 -85 -33 -126 q-36 -40 -118 -54 q-10 -2 -17 0 q-8 2 -19 5 l0 138 l93 0 l0 75 l-280 0 l0 -75 l93 0 l0 -359 l94 0 l0 137 q11 -2 18 -3 q8 -2 20 -1 l0 0 Z" /><glyph glyph-name="" unicode="&#xe048;" d="M317 805 l-62 -82 l-28 -41 l-44 -52 l-76 -82 l-14 -21 l7 -38 l31 -38 l28 -10 l10 -34 l62 -90 l38 -38 l58 -171 l55 -127 l24 -27 l28 0 l31 75 l20 99 l62 200 l65 75 l35 103 l38 38 l-11 41 l-82 79 l-69 31 l-41 83 l-93 65 l-72 -38 ZM869 127 q14 -8 14 -19 q0 -11 -14 -17 q-15 -4 -46 -6 q-31 -2 -66 -34 q-32 -35 -33 -65 q-2 -30 -7 -47 q-9 -16 -17 -16 q-9 0 -19 16 q-5 15 -7 46 q-1 31 -32 66 q-35 32 -66 33 q-31 1 -47 7 q-15 9 -15 18 q-1 10 15 18 q18 5 48 6 q30 0 66 32 q32 37 33 68 q0 32 5 46 q10 17 19 17 q8 0 17 -17 q5 -16 6 -47 q1 -30 34 -66 q36 -32 67 -33 q31 -1 45 -6 l0 0 Z" /><glyph glyph-name="" unicode="&#xe050;" d="M784 621 q-39 63 -99 97 q-61 34 -145 41 l0 121 l-80 0 l0 -121 q-84 -7 -144 -41 q-61 -34 -100 -97 q-39 -62 -57 -155 q-19 -94 -19 -226 q-1 -64 6 -126 q7 -63 41 -115 q39 -58 114 -88 q39 -15 88 -22 q50 -8 111 -8 q61 0 111 8 q49 7 88 22 q75 30 114 88 q34 52 41 115 q7 62 6 126 q0 132 -18 226 q-19 93 -58 155 l0 0 ZM716 579 q19 -30 32 -70 q13 -40 21 -91 l-229 0 l0 260 q61 -5 105 -30 q43 -24 71 -69 l0 0 ZM284 579 q28 45 71 69 q44 25 105 30 l0 -260 l-229 0 q8 51 21 91 q13 40 32 70 l0 0 ZM747 42 q-28 -40 -89 -61 q-61 -20 -158 -20 q-97 0 -158 20 q-61 21 -89 61 q-24 38 -29 89 q-5 51 -4 109 q0 52 3 98 l554 0 q3 -46 3 -98 q1 -58 -4 -109 q-5 -51 -29 -89 l0 0 Z" /><glyph glyph-name="" unicode="&#xe051;" d="M784 621 q-39 63 -99 97 q-61 34 -145 41 l0 121 l-80 0 l0 -121 q-84 -7 -144 -41 q-61 -34 -100 -97 q-39 -62 -57 -155 q-19 -94 -19 -226 q-1 -64 6 -126 q7 -63 41 -115 q39 -58 114 -88 q39 -15 88 -22 q50 -8 111 -8 q61 0 111 8 q49 7 88 22 q75 30 114 88 q34 52 41 115 q7 62 6 126 q0 132 -18 226 q-19 93 -58 155 l0 0 ZM716 579 q19 -30 32 -70 q13 -40 21 -91 l-269 2 l0 260 q64 -6 125 -31 q61 -25 91 -70 l0 0 ZM747 42 q-28 -40 -89 -61 q-61 -20 -158 -20 q-97 0 -158 20 q-61 21 -89 61 q-24 38 -29 89 q-5 51 -4 109 q0 52 3 98 l554 0 q3 -46 3 -98 q1 -58 -4 -109 q-5 -51 -29 -89 l0 0 Z" /><glyph glyph-name="" unicode="&#xe052;" d="M784 621 q-39 63 -99 97 q-61 34 -145 41 l0 121 l-80 0 l0 -121 q-84 -7 -144 -41 q-61 -34 -100 -97 q-39 -62 -57 -155 q-19 -94 -19 -226 q-1 -64 6 -126 q7 -63 41 -115 q39 -58 114 -88 q39 -15 88 -22 q50 -8 111 -8 q61 0 111 8 q49 7 88 22 q75 30 114 88 q34 52 41 115 q7 62 6 126 q0 132 -18 226 q-19 93 -58 155 l0 0 ZM284 579 q30 45 91 70 q61 25 125 31 l0 -260 l-269 -2 q8 51 21 91 q13 40 32 70 l0 0 ZM747 42 q-28 -40 -89 -61 q-61 -20 -158 -20 q-97 0 -158 20 q-61 21 -89 61 q-24 38 -29 89 q-5 51 -4 109 q0 52 3 98 l554 0 q3 -46 3 -98 q1 -58 -4 -109 q-5 -51 -29 -89 l0 0 Z" /><glyph glyph-name="" unicode="&#xe053;" d="M784 621 q-39 63 -99 97 q-61 34 -145 41 l0 121 l-80 0 l0 -121 q-84 -7 -144 -41 q-61 -34 -100 -97 q-39 -62 -57 -155 q-19 -94 -19 -226 q-1 -64 6 -126 q7 -63 41 -115 q39 -58 114 -88 q39 -15 88 -22 q50 -8 111 -8 q61 0 111 8 q49 7 88 22 q75 30 114 88 q34 52 41 115 q7 62 6 126 q0 132 -18 226 q-19 93 -58 155 l0 0 ZM747 42 q-28 -40 -89 -61 q-61 -20 -158 -20 q-97 0 -158 20 q-61 21 -89 61 q-24 38 -29 89 q-5 51 -4 109 q0 52 3 98 l237 0 l0 342 l80 0 l0 -342 l237 0 q3 -46 3 -98 q1 -58 -4 -109 q-5 -51 -29 -89 l0 0 Z" /><glyph glyph-name="" unicode="&#xe054;" d="M784 621 q-39 63 -99 97 q-61 34 -145 41 l0 121 l-80 0 l0 -121 q-84 -7 -144 -41 q-61 -34 -100 -97 q-39 -62 -57 -155 q-19 -94 -19 -226 q-1 -64 6 -126 q7 -63 41 -115 q39 -58 114 -88 q39 -15 88 -22 q50 -8 111 -8 q61 0 111 8 q49 7 88 22 q75 30 114 88 q34 52 41 115 q7 62 6 126 q0 132 -18 226 q-19 93 -58 155 l0 0 ZM747 42 q-28 -40 -89 -61 q-61 -20 -158 -20 q-97 0 -158 20 q-61 21 -89 61 q-24 38 -29 89 q-5 51 -4 109 q0 119 16 203 q16 84 48 136 q32 52 85 76 q53 25 131 25 q78 0 131 -25 q53 -24 85 -76 q32 -52 48 -136 q16 -84 16 -203 q1 -58 -4 -109 q-5 -51 -29 -89 l0 0 ZM471 199 q13 -16 31 -16 q18 0 32 16 l97 122 q13 16 7 27 q-5 12 -26 12 l-220 0 q-21 0 -26 -12 q-5 -11 8 -27 l97 -122 ZM534 604 q-14 16 -32 16 q-18 0 -31 -16 l-97 -122 q-13 -16 -8 -27 q5 -12 26 -12 l220 0 q21 0 26 12 q6 11 -7 27 l-97 122 Z" /><glyph glyph-name="" unicode="&#xe055;" d="M784 621 q-39 63 -99 97 q-61 34 -145 41 l0 121 l-80 0 l0 -121 q-84 -7 -144 -41 q-61 -34 -100 -97 q-39 -62 -57 -155 q-19 -94 -19 -226 q-1 -64 6 -126 q7 -63 41 -115 q39 -58 114 -88 q39 -15 88 -22 q50 -8 111 -8 q61 0 111 8 q49 7 88 22 q75 30 114 88 q34 52 41 115 q7 62 6 126 q0 132 -18 226 q-19 93 -58 155 l0 0 ZM747 42 q-28 -40 -89 -61 q-61 -20 -158 -20 q-97 0 -158 20 q-61 21 -89 61 q-24 38 -29 89 q-5 51 -4 109 q0 119 16 203 q16 84 48 136 q32 52 85 76 q53 25 131 25 q78 0 131 -25 q53 -24 85 -76 q32 -52 48 -136 q16 -84 16 -203 q1 -58 -4 -109 q-5 -51 -29 -89 l0 0 ZM490 0 l0 494 q-47 -51 -98 -71 q-52 -20 -81 -22 l0 94 q31 6 86 37 q56 32 102 97 l102 0 l0 -629 l-111 0 Z" /><glyph glyph-name="" unicode="&#xe056;" d="M784 621 q-39 63 -99 97 q-61 34 -145 41 l0 121 l-80 0 l0 -121 q-84 -7 -144 -41 q-61 -34 -100 -97 q-39 -62 -57 -155 q-19 -94 -19 -226 q-1 -64 6 -126 q7 -63 41 -115 q39 -58 114 -88 q39 -15 88 -22 q50 -8 111 -8 q61 0 111 8 q49 7 88 22 q75 30 114 88 q34 52 41 115 q7 62 6 126 q0 132 -18 226 q-19 93 -58 155 l0 0 ZM747 42 q-28 -40 -89 -61 q-61 -20 -158 -20 q-97 0 -158 20 q-61 21 -89 61 q-24 38 -29 89 q-5 51 -4 109 q0 119 16 203 q16 84 48 136 q32 52 85 76 q53 25 131 25 q78 0 131 -25 q53 -24 85 -76 q32 -52 48 -136 q16 -84 16 -203 q1 -58 -4 -109 q-5 -51 -29 -89 l0 0 ZM604 437 q1 -34 -30 -72 q-31 -38 -101 -105 q-46 -44 -82 -75 q-36 -31 -66 -55 l0 -70 l360 0 l0 72 l-258 0 q24 20 50 39 q25 20 64 57 q71 67 102 117 q30 50 29 95 q-2 73 -49 105 q-47 31 -119 30 q-41 0 -84 -9 q-43 -9 -78 -26 l15 -72 q33 16 70 25 q37 10 73 10 q50 1 77 -13 q27 -14 27 -52 l0 -1 Z" /><glyph glyph-name="" unicode="&#xe057;" d="M784 621 q-39 63 -99 97 q-61 34 -145 41 l0 121 l-80 0 l0 -121 q-84 -7 -144 -41 q-61 -34 -100 -97 q-39 -62 -57 -155 q-19 -94 -19 -226 q-1 -64 6 -126 q7 -63 41 -115 q39 -58 114 -88 q39 -15 88 -22 q50 -8 111 -8 q61 0 111 8 q49 7 88 22 q75 30 114 88 q34 52 41 115 q7 62 6 126 q0 132 -18 226 q-19 93 -58 155 l0 0 ZM747 42 q-28 -40 -89 -61 q-61 -20 -158 -20 q-97 0 -158 20 q-61 21 -89 61 q-24 38 -29 89 q-5 51 -4 109 q0 119 16 203 q16 84 48 136 q32 52 85 76 q53 25 131 25 q78 0 131 -25 q53 -24 85 -76 q32 -52 48 -136 q16 -84 16 -203 q1 -58 -4 -109 q-5 -51 -29 -89 l0 0 ZM555 338 q56 7 90 41 q34 33 35 83 q-2 68 -49 97 q-48 29 -123 28 q-45 0 -90 -10 q-44 -10 -75 -25 l19 -52 q32 16 70 24 q38 9 73 9 q50 0 76 -21 q26 -21 26 -57 q0 -48 -39 -74 q-40 -26 -119 -26 l-37 0 l0 -51 l56 0 q81 0 119 -22 q37 -23 37 -67 q-2 -59 -45 -84 q-43 -25 -108 -24 q-27 0 -61 5 q-34 4 -61 12 l-13 -57 q32 -6 70 -10 q39 -4 67 -4 q121 2 174 48 q53 45 52 110 q1 55 -34 89 q-34 34 -110 38 l0 0 Z" /><glyph glyph-name="" unicode="&#xe058;" d="M784 621 q-39 63 -99 97 q-61 34 -145 41 l0 121 l-80 0 l0 -121 q-84 -7 -144 -41 q-61 -34 -100 -97 q-39 -62 -57 -155 q-19 -94 -19 -226 q-1 -64 6 -126 q7 -63 41 -115 q39 -58 114 -88 q39 -15 88 -22 q50 -8 111 -8 q61 0 111 8 q49 7 88 22 q75 30 114 88 q34 52 41 115 q7 62 6 126 q0 132 -18 226 q-19 93 -58 155 l0 0 ZM747 42 q-28 -40 -89 -61 q-61 -20 -158 -20 q-97 0 -158 20 q-61 21 -89 61 q-24 38 -29 89 q-5 51 -4 109 q0 119 16 203 q16 84 48 136 q32 52 85 76 q53 25 131 25 q78 0 131 -25 q53 -24 85 -76 q32 -52 48 -136 q16 -84 16 -203 q1 -58 -4 -109 q-5 -51 -29 -89 l0 0 ZM628 596 l-89 0 l-266 -370 l0 -72 l271 0 l0 -133 l84 0 l0 133 l65 0 l0 76 l-65 0 l0 366 ZM359 230 l185 262 l0 -262 l-185 0 Z" /><glyph glyph-name="" unicode="&#xe059;" d="M784 621 q-39 63 -99 97 q-61 34 -145 41 l0 121 l-80 0 l0 -121 q-84 -7 -144 -41 q-61 -34 -100 -97 q-39 -62 -57 -155 q-19 -94 -19 -226 q-1 -64 6 -126 q7 -63 41 -115 q39 -58 114 -88 q39 -15 88 -22 q50 -8 111 -8 q61 0 111 8 q49 7 88 22 q75 30 114 88 q34 52 41 115 q7 62 6 126 q0 132 -18 226 q-19 93 -58 155 l0 0 ZM747 42 q-28 -40 -89 -61 q-61 -20 -158 -20 q-97 0 -158 20 q-61 21 -89 61 q-24 38 -29 89 q-5 51 -4 109 q0 119 16 203 q16 84 48 136 q32 52 85 76 q53 25 131 25 q78 0 131 -25 q53 -24 85 -76 q32 -52 48 -136 q16 -84 16 -203 q1 -58 -4 -109 q-5 -51 -29 -89 l0 0 ZM402 356 l20 172 l244 0 l0 55 l-302 0 l-29 -270 l39 -16 q25 14 55 21 q31 8 63 8 q71 -2 99 -35 q27 -32 26 -65 q-2 -67 -44 -95 q-43 -29 -103 -28 q-33 0 -69 5 q-36 5 -66 15 l-11 -57 q32 -8 73 -13 q41 -5 73 -5 q98 0 158 44 q60 43 62 134 q-2 83 -54 119 q-52 35 -127 34 q-25 0 -53 -6 q-29 -6 -54 -17 l0 0 Z" /><glyph glyph-name="" unicode="&#xe05a;" d="M630 60 q1 -25 17 -42 q17 -17 42 -18 q25 1 42 18 q17 17 18 42 q-1 25 -18 42 q-17 16 -42 17 q-25 -1 -42 -17 q-16 -17 -17 -42 l0 0 ZM381 89 q1 -38 26 -63 q25 -25 63 -26 q37 1 62 26 q25 25 26 63 q-1 38 -26 62 q-25 25 -62 26 q-38 -1 -63 -26 q-25 -24 -26 -62 l0 0 ZM59 121 q1 -52 36 -86 q34 -34 86 -35 q52 1 86 35 q34 34 35 86 q-1 52 -35 87 q-34 34 -86 35 q-52 -1 -86 -35 q-35 -35 -36 -87 l0 0 Z" /><glyph glyph-name="" unicode="&#xe08f;" d="M819 -47 q47 1 78 31 q31 30 32 77 l0 638 q-1 46 -32 78 q-31 31 -78 32 l-638 0 q-47 -1 -78 -32 q-31 -32 -32 -78 l0 -638 q1 -47 32 -77 q31 -30 78 -31 l638 0 ZM825 493 l0 -240 q-1 -113 -44 -156 q-44 -44 -123 -42 l-312 0 q-79 -2 -123 42 q-44 43 -45 156 l0 240 q1 111 46 156 q45 44 122 42 l312 0 q77 2 121 -42 q45 -45 46 -156 l0 0 ZM298 276 q0 -60 22 -82 q23 -21 73 -20 l217 0 q51 -1 74 20 q22 22 22 82 l0 189 q0 58 -23 82 q-24 23 -73 22 l-217 0 q-49 1 -72 -22 q-23 -24 -23 -82 l0 -189 Z" /><glyph glyph-name="" unicode="&#xe060;" d="M698 436 q-1 111 -45 156 q-44 44 -121 42 l-313 0 q-77 2 -122 -42 q-44 -45 -45 -156 l0 -240 q1 -113 45 -156 q43 -43 122 -41 l313 0 q78 -2 122 41 q43 43 44 156 l0 240 ZM171 219 l0 189 q0 58 23 82 q23 23 72 22 l218 0 q49 1 72 -22 q24 -24 24 -82 l0 -189 q0 -60 -22 -82 q-23 -21 -74 -20 l-218 0 q-50 -1 -73 20 q-22 22 -22 82 l0 0 Z" /><glyph glyph-name="" unicode="&#xe061;" d="M360 2 l126 0 l0 628 l-111 0 q-48 -70 -105 -100 q-57 -29 -75 -29 l0 -119 q20 -1 73 14 q53 15 92 56 l0 -450 Z" /><glyph glyph-name="" unicode="&#xe062;" d="M61 2 l629 0 l0 118 l-474 0 q9 66 82 91 q73 24 161 38 q73 11 145 47 q73 37 78 131 q-5 136 -76 172 q-72 36 -155 31 l-163 0 q-132 -1 -170 -58 q-38 -58 -41 -155 l118 0 q4 51 30 72 q27 22 103 21 l54 0 q109 2 148 -13 q39 -14 37 -65 q-32 -70 -253 -105 q-221 -35 -253 -297 l0 -28 Z" /><glyph glyph-name="" unicode="&#xe063;" d="M67 447 l122 0 q5 33 29 50 q24 17 79 17 l201 0 q31 1 50 -14 q19 -15 20 -53 q0 -38 -17 -56 q-17 -17 -53 -17 l-186 0 l0 -109 l198 0 q36 0 57 -21 q20 -20 20 -56 q0 -38 -20 -56 q-21 -18 -57 -18 l-217 0 q-56 0 -83 23 q-28 23 -33 70 l-118 0 q7 -92 52 -149 q46 -57 160 -59 l243 0 q101 3 144 58 q43 54 42 120 q2 39 -12 87 q-13 49 -61 68 q29 17 42 57 q13 40 13 83 q0 76 -40 119 q-40 42 -124 43 l-243 0 q-112 -3 -156 -57 q-45 -55 -52 -130 l0 0 Z" /><glyph glyph-name="" unicode="&#xe064;" d="M691 135 l0 115 l-101 0 l0 389 l-118 0 l-407 -392 l0 -112 l407 0 l0 -133 l118 0 l0 133 l101 0 ZM221 250 l251 238 l0 -238 l-251 0 Z" /><glyph glyph-name="" unicode="&#xe065;" d="M251 301 l193 0 q46 3 83 -12 q36 -14 38 -81 q-1 -53 -25 -73 q-24 -20 -65 -19 l-184 0 q-36 -1 -75 1 q-39 1 -41 24 l-116 0 l0 -10 q1 -81 50 -108 q48 -26 127 -24 l276 0 q79 -2 127 44 q48 46 49 159 l0 6 q-2 112 -50 158 q-49 45 -126 43 l-274 0 q-15 0 -29 -6 q-14 -7 -27 -27 l13 134 l463 0 l0 120 l-560 0 l-38 -361 l114 0 q9 20 29 26 q21 7 48 6 l0 0 Z" /><glyph glyph-name="" unicode="&#xe066;" d="M185 432 q0 42 21 60 q21 18 62 18 l352 0 l0 120 l-373 0 q-95 -1 -140 -56 q-44 -55 -44 -149 l0 -229 q-1 -94 40 -145 q41 -51 137 -52 l275 0 q96 1 137 52 q40 51 39 145 q1 94 -38 149 q-40 54 -138 55 l-272 0 q-19 -1 -34 -13 q-15 -13 -24 -29 l0 74 ZM478 292 q40 1 65 -17 q24 -18 25 -72 q-1 -53 -25 -70 q-25 -18 -65 -17 l-206 0 q-36 -1 -60 17 q-25 17 -26 70 q1 54 26 72 q25 18 60 17 l206 0 Z" /><glyph glyph-name="" unicode="&#xe067;" d="M74 503 l440 0 q-132 -112 -208 -262 q-77 -151 -85 -239 l133 0 q16 112 99 248 q83 136 225 246 l0 129 l-604 0 l0 -122 Z" /><glyph glyph-name="" unicode="&#xe068;" d="M514 -3 q101 4 143 60 q42 57 41 122 q1 39 -16 87 q-17 49 -65 68 q29 17 46 58 q16 40 16 83 q1 76 -38 121 q-38 44 -122 45 l-294 0 q-83 -1 -122 -47 q-38 -46 -38 -119 q1 -43 20 -83 q20 -41 49 -58 q-48 -19 -65 -68 q-17 -48 -16 -87 q-1 -65 41 -122 q42 -56 143 -60 l277 0 ZM506 268 q37 0 58 -22 q21 -21 21 -58 q0 -37 -21 -57 q-21 -20 -58 -20 l-262 0 q-36 0 -56 20 q-21 20 -21 57 q0 37 21 58 q20 22 56 22 l262 0 ZM494 525 q31 0 51 -17 q19 -18 20 -57 q0 -37 -21 -56 q-21 -19 -57 -19 l-231 0 q-36 0 -56 19 q-21 19 -21 56 q1 39 20 57 q19 17 50 17 l245 0 Z" /><glyph glyph-name="" unicode="&#xe069;" d="M478 105 l-165 0 q-56 -1 -85 6 q-28 6 -36 29 l-115 0 q4 -65 46 -103 q41 -37 150 -38 l234 0 q78 -2 128 40 q49 41 51 151 l0 239 q-1 114 -50 159 q-50 44 -129 42 l-258 0 q-80 1 -131 -46 q-51 -48 -53 -162 q2 -108 51 -149 q49 -40 126 -38 l263 0 q15 0 30 6 q14 7 27 27 l0 -65 q-1 -43 -24 -70 q-23 -27 -60 -28 l0 0 ZM474 342 l-195 0 q-40 -2 -64 12 q-25 14 -26 67 q1 53 29 71 q27 18 68 17 l188 0 q36 1 62 -17 q25 -18 26 -71 q-1 -53 -26 -67 q-26 -14 -62 -12 l0 0 Z" /><glyph glyph-name="" unicode="&#xe06a;" d="M183 111 l0 511 l-133 0 l0 -620 l463 0 l0 109 l-330 0 ZM956 475 l-149 0 l-113 -296 l-119 296 l-145 0 l198 -472 l130 0 l198 472 Z" /><glyph glyph-name="" unicode="&#xe06b;" d="M981 519 l0 109 l-512 0 q5 1 -7 1 q-13 1 -82 1 l-143 0 q-126 -1 -170 -50 q-44 -49 -41 -137 q-3 -80 41 -127 q43 -48 170 -49 l92 0 q77 2 112 -13 q34 -16 33 -71 q1 -56 -34 -68 q-34 -12 -111 -10 l-98 0 q-55 -1 -71 15 q-16 16 -29 58 l-121 0 q10 -83 48 -130 q37 -48 149 -49 l174 0 q126 1 170 49 q44 49 41 136 q3 80 -40 128 q-44 48 -170 49 l-93 0 q-87 -1 -117 17 q-30 18 -28 67 q-1 56 34 68 q34 12 111 9 l67 0 q56 -1 84 -3 q28 -3 47 0 l175 0 l0 -520 l126 0 l0 520 l193 0 Z" /><glyph glyph-name="" unicode="&#xe06c;" d="M748 3 l-110 0 l-198 472 l135 0 l119 -296 l113 296 l139 0 l-198 -472 ZM433 2 l0 620 l-114 0 l0 -403 l-176 404 l-135 0 l0 -621 l114 0 l0 416 l186 -416 l125 0 Z" /><glyph glyph-name="" unicode="&#xe06d;" d="M151 -37 l438 0 q47 1 78 31 q31 30 32 77 l0 638 q-1 46 -32 78 q-31 31 -78 32 l-438 0 q-47 -1 -78 -32 q-31 -32 -32 -78 l0 -638 q1 -47 32 -77 q31 -30 78 -31 l0 0 ZM530 411 l-52 74 l-227 0 l-52 -74 l-92 0 l211 333 l96 0 l211 -333 l-95 0 ZM367 680 l-85 -136 l166 0 l-81 136 ZM548 39 l0 225 l-140 -225 l-65 0 l-142 224 l0 -224 l-78 0 l0 301 l110 0 l142 -218 l138 218 l113 0 l0 -301 l-78 0 Z" /><glyph glyph-name="" unicode="&#xe06e;" d="M151 -37 l438 0 q47 1 78 31 q31 30 32 77 l0 638 q-1 46 -32 78 q-31 31 -78 32 l-438 0 q-47 -1 -78 -32 q-31 -32 -32 -78 l0 -638 q1 -47 32 -77 q31 -30 78 -31 l0 0 ZM548 39 l0 225 l-140 -225 l-65 0 l-142 224 l0 -224 l-78 0 l0 301 l110 0 l142 -218 l138 218 l113 0 l0 -301 l-78 0 ZM453 486 l-233 0 l0 -89 l-95 0 l0 331 l327 0 q82 -1 122 -35 q39 -33 39 -87 q0 -61 -39 -91 q-39 -29 -121 -29 l0 0 ZM455 666 l-235 0 l0 -118 l235 0 q27 0 49 13 q21 13 23 45 q-1 37 -22 49 q-22 12 -50 11 l0 0 Z" /><glyph glyph-name="" unicode="&#xe06f;" d="M60 372 l0 -100 l180 20 l30 -210 q43 18 344 145 q301 127 346 145 q-41 18 -344 145 q-303 127 -346 145 l-30 -210 l-180 20 l0 -100 Z" /><glyph glyph-name="" unicode="&#xe032;" d="M894 122 l0 711 l-61 0 l-61 0 l-244 -244 l244 0 l-244 -244 l244 0 l-305 -306 l-306 306 l244 0 l-244 244 l244 0 l-244 244 l-61 0 l-61 0 l0 -711 l428 -204 l427 204 Z" /><glyph glyph-name="" unicode="&#xe070;" d="M929 699 q-1 46 -32 78 q-31 31 -78 32 l-638 0 q-47 -1 -78 -32 q-31 -32 -32 -78 l0 -638 q1 -47 32 -76 q31 -30 78 -31 l638 0 q47 1 78 31 q31 29 32 76 l0 638 ZM857 531 q0 -51 -7 -84 q-4 -17 -10 -30 q-6 -14 -15 -25 q-10 -11 -23 -19 q-13 -9 -29 -15 q-33 -12 -86 -19 q-39 -6 -63 -10 q-23 -4 -35 -9 q-12 -6 -16 -12 q-3 -7 -4 -18 l0 -15 l-180 0 l0 20 q0 40 7 70 q6 29 24 48 q18 19 48 31 q30 12 77 18 q48 6 75 11 q27 6 41 13 q7 3 12 8 q4 4 6 10 q3 10 3 28 l0 8 q0 17 -7 27 q-7 11 -25 17 q-17 8 -47 9 q-30 3 -76 3 l-18 0 q-51 0 -84 -3 q-32 -2 -50 -11 q-18 -7 -25 -24 q-3 -8 -5 -19 q-2 -11 -2 -24 l0 -24 l-176 0 l0 24 q1 50 7 84 q8 35 24 59 q16 24 43 39 q13 7 29 13 q16 6 35 10 q19 4 41 7 q22 2 47 3 q51 3 116 3 l18 0 q96 0 159 -7 q63 -7 101 -27 q39 -20 54 -56 q16 -36 16 -94 l0 -18 ZM573 67 q0 -21 -14 -35 q-14 -14 -36 -15 l-88 0 q-22 1 -36 15 q-14 14 -15 35 l0 89 q1 21 15 35 q14 14 36 15 l88 0 q22 -1 36 -15 q14 -14 14 -35 l0 -89 Z" /><glyph glyph-name="" unicode="&#xe071;" d="M608 307 l-109 298 l-110 -298 l219 0 ZM833 9 l-117 0 l-80 210 l-277 0 l-78 -210 l-109 0 l283 733 l93 0 l285 -733 ZM929 699 q-1 46 -32 78 q-31 31 -78 32 l-638 0 q-47 -1 -78 -32 q-31 -32 -32 -78 l0 -638 q1 -47 32 -77 q31 -30 78 -31 l638 0 q47 1 78 31 q31 30 32 77 l0 638 Z" /><glyph glyph-name="" unicode="&#xe072;" d="M494 103 q66 -2 111 21 q45 24 47 101 q-1 64 -40 94 q-40 30 -112 30 l-113 0 l0 -246 l107 0 ZM527 434 q45 6 73 33 q29 26 30 81 q0 52 -37 77 q-37 26 -115 26 l-91 0 l0 -217 l140 0 ZM639 400 q48 -13 85 -56 q36 -43 38 -128 q-1 -107 -70 -157 q-69 -51 -189 -50 l-222 0 l0 733 l207 0 q96 2 169 -36 q74 -38 78 -146 q0 -58 -26 -98 q-25 -40 -70 -62 l0 0 ZM929 699 q-1 46 -32 78 q-32 31 -78 32 l-638 0 q-47 -1 -78 -32 q-31 -32 -32 -78 l0 -638 q1 -47 32 -77 q31 -30 78 -31 l638 0 q46 1 78 31 q31 30 32 77 l0 638 Z" /><glyph glyph-name="" unicode="&#xe073;" d="M731 49 q-36 -13 -84 -22 q-49 -9 -97 -9 q-181 4 -253 104 q-71 100 -68 246 q-4 147 66 255 q69 108 254 113 q47 0 92 -9 q45 -8 84 -22 l-18 -93 q-40 16 -79 24 q-39 8 -77 8 q-120 -3 -169 -81 q-50 -78 -48 -197 q-1 -112 50 -183 q52 -71 170 -73 q39 0 83 9 q45 9 82 24 l12 -94 ZM929 699 q-1 46 -32 78 q-31 31 -78 32 l-638 0 q-47 -1 -78 -32 q-31 -32 -32 -78 l0 -638 q1 -47 32 -77 q31 -30 78 -31 l638 0 q47 1 78 31 q31 30 32 77 l0 638 Z" /><glyph glyph-name="" unicode="&#xe074;" d="M414 105 q136 -1 204 64 q68 64 68 208 q1 142 -66 206 q-66 64 -206 63 l-86 0 l0 -541 l86 0 ZM415 742 q194 1 289 -87 q95 -88 95 -278 q3 -176 -87 -271 q-89 -96 -302 -97 l-189 0 l0 733 l194 0 ZM929 699 q-1 46 -32 78 q-31 31 -78 32 l-638 0 q-47 -1 -78 -32 q-31 -32 -32 -78 l0 -638 q1 -47 32 -77 q31 -30 78 -31 l638 0 q47 1 78 31 q31 30 32 77 l0 638 Z" /><glyph glyph-name="" unicode="&#xe075;" d="M700 30 l-386 0 l0 691 l365 0 l0 -90 l-268 0 l0 -202 l239 0 l0 -88 l-239 0 l0 -221 l289 0 l0 -90 ZM929 699 q-1 46 -32 78 q-32 31 -78 32 l-638 0 q-47 -1 -78 -32 q-31 -32 -32 -78 l0 -638 q1 -47 32 -77 q31 -30 78 -31 l638 0 q46 1 78 31 q31 30 32 77 l0 638 Z" /><glyph glyph-name="" unicode="&#xe076;" d="M678 631 l-267 0 l0 -211 l239 0 l0 -91 l-239 0 l0 -299 l-97 0 l0 691 l364 0 l0 -90 ZM929 699 q-1 46 -32 78 q-31 31 -78 32 l-638 0 q-47 -1 -78 -32 q-31 -32 -32 -78 l0 -638 q1 -47 32 -77 q31 -30 78 -31 l638 0 q47 1 78 31 q31 30 32 77 l0 638 Z" /><glyph glyph-name="" unicode="&#xe077;" d="M759 56 q-39 -16 -95 -27 q-56 -11 -112 -11 q-182 4 -254 104 q-71 99 -68 245 q-4 148 66 256 q69 108 254 113 q47 0 93 -9 q45 -8 84 -22 l-18 -93 q-40 16 -79 24 q-39 8 -77 8 q-121 -3 -170 -81 q-50 -78 -48 -197 q-2 -113 49 -184 q50 -71 172 -73 q28 0 58 4 q30 5 52 13 l0 195 l-162 0 l0 88 l255 0 l0 -353 ZM929 699 q-1 46 -32 78 q-32 31 -78 32 l-638 0 q-47 -1 -78 -32 q-31 -32 -32 -78 l0 -638 q1 -47 32 -77 q31 -30 78 -31 l638 0 q46 1 78 31 q31 30 32 77 l0 638 Z" /><glyph glyph-name="" unicode="&#xe078;" d="M764 30 l-99 0 l0 308 l-333 0 l0 -308 l-100 0 l0 691 l100 0 l0 -293 l333 0 l0 293 l99 0 l0 -691 ZM929 699 q-1 46 -32 78 q-31 31 -78 32 l-638 0 q-47 -1 -78 -32 q-31 -32 -32 -78 l0 -638 q1 -47 32 -77 q31 -30 78 -31 l638 0 q47 1 78 31 q31 30 32 77 l0 638 Z" /><glyph glyph-name="" unicode="&#xe079;" d="M556 30 l-103 0 l0 691 l103 0 l0 -691 ZM929 699 q-1 46 -32 78 q-32 31 -78 32 l-638 0 q-46 -1 -77 -32 q-32 -32 -33 -78 l0 -638 q1 -47 33 -77 q31 -30 77 -31 l638 0 q46 1 78 31 q31 30 32 77 l0 638 Z" /><glyph glyph-name="" unicode="&#xe07a;" d="M627 245 q5 -108 -56 -174 q-62 -67 -253 -69 l-31 79 q160 1 204 48 q44 48 38 135 l0 457 l98 0 l0 -476 ZM929 699 q-1 46 -32 78 q-31 31 -78 32 l-638 0 q-47 -1 -78 -32 q-31 -32 -32 -78 l0 -638 q1 -47 32 -77 q31 -30 78 -31 l638 0 q47 1 78 31 q31 30 32 77 l0 638 Z" /><glyph glyph-name="" unicode="&#xe07b;" d="M775 30 l-134 0 l-280 316 l0 -316 l-99 0 l0 691 l99 0 l0 -309 l273 309 l127 0 l-314 -338 l328 -353 ZM929 699 q-1 46 -32 78 q-31 31 -78 32 l-638 0 q-47 -1 -78 -32 q-31 -32 -32 -78 l0 -638 q1 -47 32 -77 q31 -30 78 -31 l638 0 q47 1 78 31 q31 30 32 77 l0 638 Z" /><glyph glyph-name="" unicode="&#xe07c;" d="M682 30 l-390 0 l0 691 l97 0 l0 -601 l293 0 l0 -90 ZM929 699 q-1 46 -32 78 q-32 31 -78 32 l-638 0 q-47 -1 -78 -32 q-31 -32 -32 -78 l0 -638 q1 -47 32 -77 q31 -30 78 -31 l638 0 q46 1 78 31 q31 30 32 77 l0 638 Z" /><glyph glyph-name="" unicode="&#xe07d;" d="M846 30 l-102 0 l-13 534 l-194 -510 l-85 0 l-185 508 l-14 -532 l-97 0 l27 691 l123 0 l192 -526 l196 526 l127 0 l25 -691 ZM929 699 q-1 46 -32 78 q-31 31 -78 32 l-638 0 q-47 -1 -78 -32 q-31 -32 -32 -78 l0 -638 q1 -47 32 -77 q31 -30 78 -31 l638 0 q47 1 78 31 q31 30 32 77 l0 638 Z" /><glyph glyph-name="" unicode="&#xe07e;" d="M763 30 l-105 0 l-325 552 l0 -552 l-96 0 l0 691 l121 0 l309 -520 l0 520 l96 0 l0 -691 ZM929 699 q-1 46 -32 78 q-32 31 -78 32 l-638 0 q-47 -1 -78 -32 q-31 -32 -32 -78 l0 -638 q1 -47 32 -77 q31 -30 78 -31 l638 0 q46 1 78 31 q31 30 32 77 l0 638 Z" /><glyph glyph-name="" unicode="&#xe07f;" d="M499 90 q101 -2 163 66 q62 67 64 221 q0 138 -56 211 q-56 72 -171 73 q-115 -1 -172 -74 q-56 -73 -56 -210 q2 -158 67 -223 q64 -66 161 -64 l0 0 ZM499 758 q185 -5 264 -117 q78 -112 76 -264 q3 -147 -74 -262 q-76 -115 -266 -121 q-164 2 -251 103 q-87 101 -88 280 q-2 152 75 264 q78 112 264 117 l0 0 ZM929 699 q-1 46 -32 78 q-32 31 -78 32 l-638 0 q-47 -1 -78 -32 q-31 -32 -32 -78 l0 -638 q1 -47 32 -77 q31 -30 78 -31 l638 0 q46 1 78 31 q31 30 32 77 l0 638 Z" /><glyph glyph-name="" unicode="&#xe080;" d="M473 373 q71 -2 120 27 q49 30 51 117 q0 72 -48 101 q-49 29 -139 28 l-78 0 l0 -273 l94 0 ZM453 742 q134 2 217 -46 q83 -48 85 -173 q-3 -129 -76 -187 q-73 -58 -184 -57 l-116 0 l0 -270 l-108 0 l0 733 l182 0 ZM929 699 q-1 46 -32 78 q-31 31 -78 32 l-638 0 q-47 -1 -78 -32 q-31 -32 -32 -78 l0 -638 q1 -47 32 -77 q31 -30 78 -31 l638 0 q47 1 78 31 q31 30 32 77 l0 638 Z" /><glyph glyph-name="" unicode="&#xe081;" d="M498 196 q91 -1 146 54 q55 55 57 183 q0 114 -50 174 q-50 60 -153 60 q-103 -1 -152 -61 q-50 -61 -50 -174 q2 -130 59 -184 q57 -54 143 -52 l0 0 ZM585 130 q37 -26 100 -42 q63 -15 134 -17 l-38 -82 q-92 4 -179 39 q-87 34 -136 90 q-128 9 -199 90 q-71 81 -72 224 q-2 128 68 221 q70 93 235 97 q165 -4 236 -97 q71 -93 69 -221 q1 -104 -49 -190 q-50 -85 -169 -112 l0 0 ZM929 699 q-1 46 -32 78 q-31 31 -78 32 l-638 0 q-47 -1 -78 -32 q-31 -32 -32 -78 l0 -638 q1 -47 32 -77 q31 -30 78 -31 l638 0 q47 1 78 31 q31 30 32 77 l0 638 Z" /><glyph glyph-name="" unicode="&#xe082;" d="M504 404 q47 6 80 37 q33 31 34 93 q0 65 -44 90 q-43 24 -123 23 l-83 0 l0 -243 l136 0 ZM692 249 q20 -47 48 -112 q27 -66 52 -128 l-117 0 q-14 44 -32 92 q-19 49 -38 93 q-27 64 -54 92 q-27 28 -70 27 l-113 0 l0 -304 l-102 0 l0 733 l176 0 q115 3 197 -36 q81 -40 85 -163 q-1 -79 -35 -123 q-34 -43 -83 -62 q27 -16 48 -42 q20 -27 38 -67 l0 0 ZM929 699 q-1 46 -32 78 q-31 31 -78 32 l-638 0 q-47 -1 -78 -32 q-31 -32 -32 -78 l0 -638 q1 -47 32 -77 q31 -30 78 -31 l638 0 q47 1 78 31 q31 30 32 77 l0 638 Z" /><glyph glyph-name="" unicode="&#xe083;" d="M534 434 q77 -33 129 -80 q52 -47 54 -133 q-3 -109 -63 -156 q-60 -47 -145 -46 q-52 0 -111 12 q-59 12 -108 35 l26 92 q48 -22 97 -35 q49 -13 92 -13 q44 -1 77 22 q33 24 35 84 q0 42 -33 73 q-33 30 -101 60 q-73 31 -119 72 q-46 41 -48 122 q4 106 68 149 q63 43 138 42 q54 -1 102 -14 q48 -13 82 -30 l-29 -91 q-33 19 -72 31 q-40 13 -75 13 q-43 1 -78 -20 q-36 -21 -38 -76 q0 -20 9 -35 q8 -15 23 -28 q17 -13 38 -25 q12 -6 24 -12 q13 -6 26 -13 l0 0 ZM929 699 q-1 46 -32 78 q-31 31 -78 32 l-638 0 q-47 -1 -78 -32 q-31 -32 -32 -78 l0 -638 q1 -47 32 -77 q31 -30 78 -31 l638 0 q47 1 78 31 q31 30 32 77 l0 638 Z" /><glyph glyph-name="" unicode="&#xe084;" d="M759 631 l-203 0 l0 -601 l-100 0 l0 601 l-203 0 l0 90 l506 0 l0 -90 ZM929 699 q-1 46 -32 78 q-31 31 -78 32 l-638 0 q-47 -1 -78 -32 q-31 -32 -32 -78 l0 -638 q1 -47 32 -77 q31 -30 78 -31 l638 0 q47 1 78 31 q31 30 32 77 l0 638 Z" /><glyph glyph-name="" unicode="&#xe085;" d="M769 256 q-1 -112 -73 -175 q-72 -63 -196 -64 q-122 1 -193 64 q-71 63 -73 175 l0 465 l100 0 l0 -437 q-2 -76 36 -127 q37 -50 132 -52 q94 2 132 52 q37 51 35 127 l0 437 l100 0 l0 -465 ZM929 699 q-1 46 -32 78 q-32 31 -78 32 l-638 0 q-46 -1 -77 -32 q-32 -32 -33 -78 l0 -638 q1 -47 33 -77 q31 -30 77 -31 l638 0 q46 1 78 31 q31 30 32 77 l0 638 Z" /><glyph glyph-name="" unicode="&#xe086;" d="M814 721 l-264 -691 l-86 0 l-265 691 l111 0 l199 -552 l197 552 l108 0 ZM929 699 q-1 46 -32 78 q-32 31 -78 32 l-638 0 q-47 -1 -78 -32 q-31 -32 -32 -78 l0 -638 q1 -47 32 -77 q31 -30 78 -31 l638 0 q46 1 78 31 q31 30 32 77 l0 638 Z" /><glyph glyph-name="" unicode="&#xe087;" d="M890 721 l-169 -691 l-85 0 l-136 501 l-135 -501 l-85 0 l-175 691 l99 0 l124 -516 l130 493 l85 0 l134 -493 l118 516 l95 0 ZM929 699 q-1 46 -32 78 q-31 31 -78 32 l-638 0 q-47 -1 -78 -32 q-31 -32 -32 -78 l0 -638 q1 -47 32 -77 q31 -30 78 -31 l638 0 q47 1 78 31 q31 30 32 77 l0 638 Z" /><glyph glyph-name="" unicode="&#xe088;" d="M806 30 l-127 0 l-184 271 l-186 -271 l-124 0 l254 349 l-243 342 l123 0 l181 -262 l178 262 l121 0 l-244 -337 l251 -354 ZM929 699 q-1 46 -32 78 q-31 31 -78 32 l-638 0 q-47 -1 -78 -32 q-31 -32 -32 -78 l0 -638 q1 -47 32 -77 q31 -30 78 -31 l638 0 q47 1 78 31 q31 30 32 77 l0 638 Z" /><glyph glyph-name="" unicode="&#xe089;" d="M811 721 l-258 -375 l0 -316 l-100 0 l0 315 l-258 376 l121 0 l190 -290 l186 290 l119 0 ZM929 699 q-1 46 -32 78 q-31 31 -78 32 l-638 0 q-47 -1 -78 -32 q-31 -32 -32 -78 l0 -638 q1 -47 32 -77 q31 -30 78 -31 l638 0 q47 1 78 31 q31 30 32 77 l0 638 Z" /><glyph glyph-name="" unicode="&#xe08a;" d="M746 30 l-506 0 l0 82 l372 518 l-340 0 l0 91 l464 0 l0 -81 l-373 -519 l383 0 l0 -91 ZM929 699 q-1 46 -32 78 q-31 31 -78 32 l-638 0 q-47 -1 -78 -32 q-31 -32 -32 -78 l0 -638 q1 -47 32 -77 q31 -30 78 -31 l638 0 q47 1 78 31 q31 30 32 77 l0 638 Z" /><glyph glyph-name="" unicode="&#xe090;" d="M819 -47 q47 1 78 31 q31 30 32 77 l0 638 q-1 46 -32 78 q-31 31 -78 32 l-638 0 q-47 -1 -78 -32 q-31 -32 -32 -78 l0 -638 q1 -47 32 -77 q31 -30 78 -31 l638 0 ZM463 510 q-49 -40 -113 -55 q-64 -14 -89 -13 l0 116 q22 0 92 29 q69 28 127 97 l136 0 l0 -616 l-153 0 l0 442 Z" /><glyph glyph-name="" unicode="&#xe091;" d="M132 104 q37 258 294 292 q256 34 293 103 q3 49 -43 64 q-46 14 -171 12 l-64 0 q-88 1 -119 -20 q-31 -21 -34 -72 l-138 0 q3 96 47 152 q44 56 198 57 l189 0 q97 5 180 -30 q84 -36 89 -168 q-7 -92 -91 -128 q-84 -36 -168 -47 q-103 -14 -187 -37 q-85 -23 -95 -88 l549 0 l0 -118 l-729 0 l0 28 ZM819 -47 q47 1 78 31 q31 30 32 77 l0 638 q-1 46 -32 78 q-31 31 -78 32 l-638 0 q-47 -1 -78 -32 q-31 -32 -32 -78 l0 -638 q1 -47 32 -77 q31 -30 78 -31 l638 0 Z" /><glyph glyph-name="" unicode="&#xe092;" d="M142 487 q10 87 61 143 q51 57 181 59 l281 0 q98 -1 145 -42 q47 -42 47 -116 q0 -42 -16 -82 q-15 -39 -49 -56 q56 -18 71 -66 q16 -48 14 -86 q1 -63 -49 -118 q-50 -54 -168 -58 l-281 0 q-133 2 -186 59 q-53 57 -61 147 l138 0 q7 -45 38 -68 q31 -23 96 -23 l252 0 q42 0 66 18 q24 17 24 54 q0 36 -24 56 q-24 20 -66 20 l-241 0 l0 107 l226 0 q43 0 62 17 q20 17 20 53 q-1 38 -23 53 q-22 14 -59 13 l-232 0 q-64 0 -92 -21 q-28 -20 -34 -63 l-141 0 ZM819 -47 q47 1 78 31 q31 30 32 77 l0 638 q-1 46 -32 78 q-31 31 -78 32 l-638 0 q-47 -1 -78 -32 q-31 -32 -32 -78 l0 -638 q1 -47 32 -77 q31 -30 78 -31 l638 0 Z" /><glyph glyph-name="" unicode="&#xe093;" d="M614 299 l0 253 l-303 -253 l303 0 ZM752 186 l0 -132 l-138 0 l0 132 l-471 0 l0 110 l471 383 l138 0 l0 -380 l116 0 l0 -113 l-116 0 ZM819 -47 q47 1 78 31 q31 30 32 77 l0 638 q-1 46 -32 78 q-31 31 -78 32 l-638 0 q-47 -1 -78 -32 q-31 -32 -32 -78 l0 -638 q1 -47 32 -77 q31 -30 78 -31 l638 0 Z" /><glyph glyph-name="" unicode="&#xe094;" d="M360 357 q-31 1 -55 -5 q-24 -6 -35 -26 l-131 0 l43 352 l641 0 l0 -117 l-528 0 l-15 -132 q14 20 31 27 q16 6 33 6 l318 0 q90 2 147 -42 q57 -44 59 -153 l0 -7 q-2 -112 -58 -157 q-56 -46 -148 -44 l-319 0 q-92 -2 -148 29 q-57 31 -59 118 l0 10 l135 0 q7 -30 50 -36 q44 -6 86 -5 l213 0 q48 -1 76 19 q28 21 29 73 q-2 65 -44 79 q-43 14 -96 11 l-225 0 ZM819 -47 q47 1 78 31 q31 30 32 77 l0 638 q-1 46 -32 78 q-31 31 -78 32 l-638 0 q-47 -1 -78 -32 q-31 -32 -32 -78 l0 -638 q1 -47 32 -77 q31 -30 78 -31 l638 0 Z" /><glyph glyph-name="" unicode="&#xe095;" d="M389 357 q-41 1 -71 -17 q-30 -18 -31 -70 q1 -51 30 -69 q30 -18 72 -17 l238 0 q48 -1 76 17 q28 18 29 69 q-1 52 -30 70 q-28 18 -75 17 l-238 0 ZM394 570 q-50 0 -78 -18 q-28 -18 -29 -59 l0 -73 q15 20 32 31 q17 11 34 11 l317 0 q90 2 147 -41 q57 -43 59 -152 l0 -7 q-2 -111 -58 -154 q-56 -43 -148 -41 l-319 0 q-92 -2 -148 41 q-57 43 -59 154 l0 224 q3 110 69 156 q65 46 157 45 l396 0 l0 -117 l-372 0 ZM819 -47 q47 1 78 31 q31 30 32 77 l0 638 q-1 46 -32 78 q-31 31 -78 32 l-638 0 q-47 -1 -78 -32 q-31 -32 -32 -78 l0 -638 q1 -47 32 -77 q31 -30 78 -31 l638 0 Z" /><glyph glyph-name="" unicode="&#xe096;" d="M147 667 l700 0 l0 -125 q-165 -108 -260 -242 q-96 -133 -114 -243 l-156 0 q8 87 98 235 q90 147 242 256 l-510 0 l0 119 ZM819 -47 q47 1 78 31 q31 30 32 77 l0 638 q-1 46 -32 78 q-31 31 -78 32 l-638 0 q-47 -1 -78 -32 q-31 -32 -32 -78 l0 -638 q1 -47 32 -77 q31 -30 78 -31 l638 0 Z" /><glyph glyph-name="" unicode="&#xe097;" d="M360 585 q-37 0 -58 -17 q-22 -17 -23 -56 q0 -36 24 -54 q23 -19 66 -19 l267 0 q43 0 67 19 q24 18 24 54 q-1 39 -23 56 q-23 17 -60 17 l-284 0 ZM354 333 q-43 0 -66 -21 q-24 -21 -24 -57 q0 -37 24 -56 q23 -19 66 -19 l305 0 q42 0 66 19 q24 19 24 56 q0 36 -24 57 q-24 21 -66 21 l-305 0 ZM346 65 q-117 4 -166 60 q-48 57 -47 121 q-1 38 18 86 q19 48 75 66 q-35 16 -57 55 q-22 40 -23 82 q-1 72 44 117 q44 45 142 46 l342 0 q96 -1 141 -45 q45 -43 45 -118 q0 -42 -19 -82 q-19 -39 -54 -55 q56 -18 73 -66 q17 -48 15 -86 q2 -64 -44 -121 q-46 -56 -163 -60 l-322 0 ZM819 -47 q47 1 78 31 q31 30 32 77 l0 638 q-1 46 -32 78 q-31 31 -78 32 l-638 0 q-47 -1 -78 -32 q-31 -32 -32 -78 l0 -638 q1 -47 32 -77 q31 -30 78 -31 l638 0 Z" /><glyph glyph-name="" unicode="&#xe098;" d="M618 393 q42 -1 71 17 q30 18 31 70 q-1 51 -30 70 q-30 18 -72 17 l-218 0 q-48 1 -81 -17 q-32 -19 -33 -70 q1 -52 30 -70 q29 -18 75 -17 l227 0 ZM623 171 q43 0 70 23 q26 22 27 64 l0 63 q-15 -20 -32 -26 q-17 -7 -35 -6 l-304 0 q-90 -1 -147 42 q-57 44 -59 150 q2 112 62 159 q59 46 152 45 l300 0 q92 2 148 -41 q56 -44 58 -156 l0 -233 q-2 -109 -59 -150 q-57 -42 -147 -40 l-273 0 q-125 1 -172 37 q-46 37 -55 100 l133 0 q13 -22 45 -27 q31 -5 96 -4 l192 0 ZM819 -47 q47 1 78 31 q31 30 32 77 l0 638 q-1 46 -32 78 q-31 31 -78 32 l-638 0 q-47 -1 -78 -32 q-31 -32 -32 -78 l0 -638 q1 -47 32 -77 q31 -30 78 -31 l638 0 Z" /><glyph glyph-name="" unicode="&#xe099;" d="M790 383 l0 -1 q-1 -155 -45 -226 q-44 -72 -123 -71 q-78 -1 -122 71 q-44 71 -45 227 q1 157 45 228 q44 72 122 71 q79 1 123 -71 q44 -71 45 -228 l0 0 ZM535 383 q0 117 22 175 q22 57 65 57 q44 0 66 -57 q23 -58 23 -175 q0 -116 -23 -174 q-22 -57 -66 -57 q-87 0 -87 230 l0 1 ZM268 589 q-18 -8 -45 -20 q-28 -12 -52 -19 l-11 64 q36 11 74 30 q37 18 54 33 l63 0 l0 -579 l-83 0 l0 491 ZM816 -43 q46 1 77 31 q30 30 32 76 q0 150 0 328 q0 178 0 304 q-2 46 -32 77 q-31 31 -77 32 l-632 0 q-46 -1 -77 -32 q-31 -31 -32 -77 l0 -632 q1 -46 32 -76 q31 -30 77 -31 l632 0 Z" /><glyph glyph-name="" unicode="&#xe09a;" d="M309 583 q-22 -10 -55 -22 q-33 -11 -65 -22 l-16 66 q39 13 84 33 q44 20 71 39 l67 0 l0 -579 l-86 0 l0 485 ZM646 583 q-22 -10 -55 -22 q-32 -11 -66 -22 l-14 66 q39 13 83 33 q45 20 72 39 l66 0 l0 -579 l-86 0 l0 485 ZM816 -43 q46 1 77 31 q30 30 32 76 q0 150 0 328 q0 178 0 304 q-2 46 -32 77 q-31 31 -77 32 l-632 0 q-46 -1 -77 -32 q-31 -31 -32 -77 l0 -632 q1 -46 32 -76 q31 -30 77 -31 l632 0 Z" /><glyph glyph-name="" unicode="&#xe09b;" d="M582 315 q60 71 86 121 q27 50 26 88 q0 39 -22 63 q-21 24 -67 25 q-32 0 -64 -10 q-32 -10 -61 -28 l-16 73 q32 18 72 29 q41 10 79 10 q76 0 120 -41 q44 -40 45 -115 q1 -48 -27 -104 q-28 -56 -90 -129 q-34 -40 -63 -71 q-29 -30 -54 -53 l243 0 l0 -74 l-342 0 l0 71 q29 27 62 62 q33 35 73 83 l0 0 ZM268 589 q-18 -8 -45 -20 q-28 -12 -52 -19 l-11 64 q36 11 74 30 q37 18 54 33 l63 0 l0 -579 l-83 0 l0 491 ZM816 -43 q46 1 77 31 q30 30 32 76 q0 150 0 328 q0 178 0 304 q-2 46 -32 77 q-31 31 -77 32 l-632 0 q-46 -1 -77 -32 q-31 -31 -32 -77 l0 -632 q1 -46 32 -76 q31 -30 77 -31 l632 0 Z" /><glyph glyph-name="" unicode="&#xe09c;" d="M662 405 q65 -6 97 -43 q31 -37 31 -100 q1 -73 -50 -124 q-50 -50 -164 -52 q-25 0 -61 4 q-36 4 -66 12 l14 76 q23 -8 54 -14 q30 -5 56 -5 q51 -1 88 25 q37 26 39 85 q1 46 -29 68 q-30 23 -100 23 l-53 0 l0 66 l35 0 q63 0 98 27 q35 27 35 75 q0 39 -23 60 q-23 21 -65 21 q-30 0 -62 -9 q-32 -9 -61 -26 l-20 70 q27 15 69 26 q42 11 84 11 q73 1 118 -32 q45 -32 46 -111 q-1 -55 -30 -90 q-29 -35 -80 -43 l0 0 ZM268 589 q-18 -8 -45 -20 q-28 -12 -52 -19 l-11 64 q36 11 74 30 q37 18 54 33 l63 0 l0 -579 l-83 0 l0 491 ZM816 -43 q46 1 77 31 q30 30 32 76 q0 150 0 328 q0 178 0 304 q-2 46 -32 77 q-31 31 -77 32 l-632 0 q-46 -1 -77 -32 q-31 -31 -32 -77 l0 -632 q1 -46 32 -76 q31 -30 77 -31 l632 0 Z" /><glyph glyph-name="" unicode="&#xe09d;" d="M266 589 q-18 -8 -45 -20 q-28 -12 -52 -19 l-11 64 q36 11 74 30 q37 18 55 33 l62 0 l0 -579 l-83 0 l0 491 ZM746 674 l0 -384 l81 0 l0 -67 l-81 0 l0 -125 l-80 0 l0 125 l-251 0 l0 70 l238 381 l93 0 ZM487 290 l179 282 l0 -282 l-179 0 ZM816 -43 q46 1 77 31 q30 30 32 76 q0 150 0 328 q0 178 0 304 q-2 46 -32 77 q-31 31 -77 32 l-632 0 q-46 -1 -77 -32 q-31 -31 -32 -77 l0 -632 q1 -46 32 -76 q31 -30 77 -31 l632 0 Z" /><glyph glyph-name="" unicode="&#xe09e;" d="M267 589 q-18 -8 -45 -20 q-28 -12 -52 -19 l-10 64 q36 11 73 30 q38 18 55 33 l63 0 l0 -579 l-84 0 l0 491 ZM552 428 q20 12 43 17 q23 5 44 5 q71 1 116 -38 q45 -40 46 -131 q-2 -101 -59 -149 q-57 -47 -149 -47 q-29 0 -66 5 q-37 5 -66 14 l10 74 q28 -10 59 -16 q32 -5 62 -5 q52 0 87 29 q35 29 36 92 q-1 54 -31 79 q-29 24 -73 24 q-29 0 -54 -8 q-25 -9 -45 -24 l-44 21 l26 299 l286 0 l0 -71 l-214 0 l-14 -170 ZM816 -43 q46 1 77 31 q30 30 32 76 q0 150 0 328 q0 178 0 304 q-2 46 -32 77 q-31 31 -77 32 l-632 0 q-46 -1 -77 -32 q-31 -31 -32 -77 l0 -632 q1 -46 32 -76 q31 -30 77 -31 l632 0 Z" /><glyph glyph-name="" unicode="&#xe09f;" d="M661 462 l1 0 q82 -1 123 -48 q41 -47 41 -124 q1 -84 -44 -143 q-44 -59 -143 -62 q-86 0 -140 59 q-53 60 -55 182 q1 155 80 252 q80 97 231 106 l17 -68 q-107 -4 -168 -61 q-61 -57 -75 -153 q18 24 54 42 q36 17 78 18 l0 0 ZM525 328 q13 29 45 50 q32 20 75 21 q53 -1 78 -31 q25 -30 25 -82 q0 -62 -29 -96 q-28 -34 -79 -34 q-63 2 -90 51 q-28 49 -25 121 l0 0 ZM261 589 q-17 -8 -45 -20 q-27 -12 -51 -19 l-11 64 q36 11 73 30 q38 18 55 33 l62 0 l0 -579 l-83 0 l0 491 ZM816 -43 q46 1 77 31 q30 30 32 76 q0 150 0 328 q0 178 0 304 q-2 46 -32 77 q-31 31 -77 32 l-632 0 q-46 -1 -77 -32 q-31 -31 -32 -77 l0 -632 q1 -46 32 -76 q31 -30 77 -31 l632 0 Z" /><glyph glyph-name="" unicode="&#xe0a0;" d="M267 589 q-18 -8 -45 -20 q-28 -12 -52 -19 l-11 64 q36 11 74 30 q37 18 55 33 l62 0 l0 -579 l-83 0 l0 491 ZM721 591 l-256 0 l0 74 l342 0 l0 -66 q-57 -101 -118 -244 q-60 -144 -94 -257 l-91 0 q34 109 98 253 q64 143 119 240 l0 0 ZM816 -43 q46 1 77 31 q30 30 32 76 q0 150 0 328 q0 178 0 304 q-2 46 -32 77 q-31 31 -77 32 l-632 0 q-46 -1 -77 -32 q-31 -31 -32 -77 l0 -632 q1 -46 32 -76 q31 -30 77 -31 l632 0 Z" /><glyph glyph-name="" unicode="&#xe0a1;" d="M796 538 l0 -1 q-1 -58 -31 -91 q-30 -33 -83 -52 q57 -19 94 -54 q37 -35 38 -103 q-3 -89 -60 -122 q-57 -34 -133 -32 q-65 -2 -123 31 q-58 33 -62 123 q1 64 38 101 q37 36 94 55 q-55 22 -85 55 q-31 32 -32 90 q2 77 53 111 q50 34 120 33 q76 0 123 -34 q48 -35 49 -110 l0 0 ZM718 534 q-2 -51 -30 -74 q-28 -23 -63 -34 q-45 15 -70 41 q-26 25 -26 65 q0 43 26 64 q25 22 70 22 q48 -1 71 -25 q22 -23 22 -58 l0 -1 ZM731 245 q-2 -56 -34 -75 q-33 -19 -73 -18 q-39 -1 -71 19 q-32 19 -34 73 q1 45 29 72 q28 28 77 41 q49 -14 77 -40 q28 -27 29 -71 l0 -1 ZM262 589 q-18 -8 -45 -20 q-28 -12 -52 -19 l-11 64 q36 11 74 30 q37 18 55 33 l61 0 l0 -579 l-82 0 l0 491 ZM816 -43 q46 1 77 31 q30 30 32 76 q0 150 0 328 q0 178 0 304 q-2 46 -32 77 q-31 31 -77 32 l-632 0 q-46 -1 -77 -32 q-31 -31 -32 -77 l0 -632 q1 -46 32 -76 q31 -30 77 -31 l632 0 Z" /><glyph glyph-name="" unicode="&#xe0a2;" d="M453 482 l0 1 q-2 72 39 133 q41 61 145 65 q82 1 133 -56 q51 -57 53 -179 q-2 -175 -86 -266 q-85 -90 -231 -96 l-15 72 q108 2 174 57 q65 56 78 159 q-18 -26 -50 -42 q-33 -16 -73 -17 q-88 3 -128 53 q-40 50 -39 116 l0 0 ZM534 486 q0 54 26 90 q26 35 78 36 q64 -3 86 -55 q21 -51 19 -113 q-11 -26 -40 -46 q-29 -19 -66 -20 q-54 1 -79 32 q-24 30 -24 74 l0 2 ZM262 589 q-18 -8 -45 -20 q-28 -12 -52 -19 l-11 64 q36 11 74 30 q37 18 54 33 l62 0 l0 -579 l-82 0 l0 491 ZM816 -43 q46 1 77 31 q30 30 32 76 q0 150 0 328 q0 178 0 304 q-2 46 -32 77 q-31 31 -77 32 l-632 0 q-46 -1 -77 -32 q-31 -31 -32 -77 l0 -632 q1 -46 32 -76 q31 -30 77 -31 l632 0 Z" /><glyph glyph-name="" unicode="&#xe0a3;" d="M287 315 q47 71 68 122 q20 51 20 89 q0 36 -18 60 q-17 25 -52 26 q-24 0 -52 -9 q-27 -10 -52 -27 l-14 72 q25 16 62 27 q36 11 67 11 q68 -1 104 -43 q35 -43 35 -112 q0 -49 -23 -105 q-22 -56 -71 -129 q-27 -40 -51 -71 q-24 -30 -44 -53 l200 0 l0 -74 l-290 0 l0 71 q23 27 51 62 q28 35 60 83 l0 0 ZM824 383 l0 -1 q-1 -155 -42 -226 q-42 -72 -114 -71 q-71 -1 -113 71 q-41 71 -42 227 q1 157 42 228 q42 72 113 71 q72 1 114 -71 q41 -71 42 -228 l0 0 ZM588 383 q0 117 21 175 q21 57 59 57 q38 0 59 -57 q21 -58 21 -175 q0 -116 -21 -174 q-21 -57 -59 -57 q-38 0 -59 57 q-21 58 -21 173 l0 1 ZM816 -43 q46 1 77 31 q30 30 32 76 q0 150 0 328 q0 178 0 304 q-2 46 -32 77 q-31 31 -77 32 l-632 0 q-46 -1 -77 -32 q-31 -31 -32 -77 l0 -632 q1 -46 32 -76 q31 -30 77 -31 l632 0 Z" /><glyph glyph-name="" unicode="&#xe0a4;" d="M327 315 q60 71 86 121 q27 50 26 88 q0 39 -22 63 q-21 24 -67 25 q-32 0 -64 -10 q-32 -10 -62 -28 l-15 73 q32 18 72 29 q41 10 79 10 q76 0 120 -41 q43 -40 44 -115 q1 -48 -26 -104 q-28 -57 -90 -129 q-35 -40 -65 -71 q-29 -30 -53 -53 l244 0 l0 -74 l-342 0 l0 71 q28 27 62 62 q33 35 73 83 l0 0 ZM697 589 q-16 -8 -44 -20 q-28 -12 -52 -19 l-10 64 q36 11 73 30 q37 18 54 33 l62 0 l0 -579 l-83 0 l0 491 ZM816 -43 q46 1 77 31 q30 30 32 76 q0 150 0 328 q0 178 0 304 q-2 46 -32 77 q-31 31 -77 32 l-632 0 q-46 -1 -77 -32 q-31 -31 -32 -77 l0 -632 q1 -46 32 -76 q31 -30 77 -31 l632 0 Z" /><glyph glyph-name="" unicode="&#xe0a5;" d="M288 315 q47 71 68 122 q20 51 20 89 q0 36 -18 60 q-17 25 -52 26 q-25 0 -52 -9 q-27 -10 -52 -27 l-15 72 q26 16 62 27 q37 11 68 11 q68 -1 104 -43 q35 -43 35 -112 q0 -49 -23 -105 q-22 -56 -71 -129 q-28 -40 -51 -71 q-24 -30 -44 -53 l200 0 l0 -74 l-291 0 l0 71 q24 27 52 62 q28 35 60 83 l0 0 ZM630 315 q48 70 69 122 q20 51 20 89 q0 36 -17 60 q-18 25 -54 26 q-24 0 -52 -9 q-27 -10 -52 -27 l-15 72 q25 16 62 27 q36 11 67 11 q69 -1 105 -43 q35 -43 35 -112 q0 -49 -23 -105 q-23 -56 -72 -129 q-27 -40 -51 -70 q-24 -31 -44 -54 l201 0 l0 -74 l-290 0 l0 71 q23 27 51 62 q28 35 60 83 l0 0 ZM816 -43 q46 1 77 31 q30 30 32 76 q0 150 0 328 q0 178 0 304 q-2 46 -32 77 q-31 31 -77 32 l-632 0 q-46 -1 -77 -32 q-31 -31 -32 -77 l0 -632 q1 -46 32 -76 q31 -30 77 -31 l632 0 Z" /><glyph glyph-name="" unicode="&#xe0a6;" d="M288 315 q47 71 68 122 q21 51 21 89 q0 36 -18 60 q-18 25 -53 26 q-24 0 -52 -9 q-27 -10 -52 -27 l-14 72 q25 16 62 27 q36 11 67 11 q68 -1 104 -43 q35 -43 35 -112 q0 -49 -22 -105 q-23 -56 -72 -129 q-27 -40 -51 -71 q-23 -30 -43 -53 l199 0 l0 -74 l-290 0 l0 71 q23 27 51 62 q28 35 60 83 l0 0 ZM689 404 q56 -8 83 -43 q27 -36 27 -95 q0 -73 -43 -125 q-43 -51 -136 -53 q-23 0 -52 4 q-28 4 -50 12 l11 75 q18 -8 42 -13 q25 -5 45 -5 q43 0 73 25 q30 26 31 84 q0 46 -25 68 q-25 22 -81 22 l-41 0 l0 66 l27 0 q52 0 80 27 q29 27 29 75 q0 39 -19 60 q-18 21 -53 21 q-25 0 -51 -9 q-26 -9 -50 -26 l-15 70 q21 15 55 26 q34 11 69 11 q60 1 99 -32 q39 -32 40 -111 q0 -52 -25 -87 q-25 -36 -70 -47 l0 0 ZM816 -43 q46 1 77 31 q30 30 32 76 q0 150 0 328 q0 178 0 304 q-2 46 -32 77 q-31 31 -77 32 l-632 0 q-46 -1 -77 -32 q-31 -31 -32 -77 l0 -632 q1 -46 32 -76 q31 -30 77 -31 l632 0 Z" /><glyph glyph-name="" unicode="&#xe0a7;" d="M287 315 q47 71 68 122 q21 51 21 89 q0 36 -18 60 q-18 25 -52 26 q-25 0 -52 -9 q-28 -10 -53 -27 l-14 72 q26 16 62 27 q36 11 67 11 q68 -1 104 -43 q36 -43 36 -112 q0 -49 -23 -105 q-23 -56 -72 -129 q-27 -40 -51 -71 q-23 -30 -43 -53 l199 0 l0 -74 l-290 0 l0 71 q24 27 52 62 q28 35 59 83 l0 0 ZM758 674 l0 -384 l59 0 l0 -67 l-59 0 l0 -125 l-66 0 l0 125 l-199 0 l0 70 l186 381 l79 0 ZM560 290 l132 274 l0 -274 l-132 0 ZM816 -43 q46 1 77 31 q30 30 32 76 q0 150 0 328 q0 178 0 304 q-2 46 -32 77 q-31 31 -77 32 l-632 0 q-46 -1 -77 -32 q-31 -31 -32 -77 l0 -632 q1 -46 32 -76 q31 -30 77 -31 l632 0 Z" /><glyph glyph-name="" unicode="&#xe0a8;" d="M288 315 q47 71 68 122 q20 51 20 89 q0 36 -18 60 q-17 25 -52 26 q-25 0 -52 -9 q-28 -10 -52 -27 l-15 72 q26 16 62 27 q37 11 68 11 q68 -1 103 -43 q36 -43 36 -112 q0 -49 -23 -105 q-23 -56 -72 -129 q-27 -40 -50 -71 q-24 -30 -44 -53 l200 0 l0 -74 l-291 0 l0 71 q24 27 52 62 q28 35 60 83 l0 0 ZM599 426 q16 12 36 17 q19 5 39 5 q69 -1 104 -43 q34 -43 34 -122 q-2 -98 -51 -147 q-49 -50 -126 -50 q-24 0 -56 6 q-32 5 -57 15 l11 74 q22 -10 47 -15 q25 -5 50 -5 q42 0 72 28 q29 29 30 91 q-1 56 -25 79 q-25 23 -61 22 q-25 0 -44 -8 q-20 -7 -37 -23 l-37 20 l23 299 l239 0 l0 -71 l-176 0 l-15 -172 ZM816 -43 q46 1 77 31 q30 30 32 76 q0 150 0 328 q0 178 0 304 q-2 46 -32 77 q-31 31 -77 32 l-632 0 q-46 -1 -77 -32 q-31 -31 -32 -77 l0 -632 q1 -46 32 -76 q31 -30 77 -31 l632 0 Z" /><glyph glyph-name="" unicode="&#xe0a9;" d="M287 315 q47 71 68 122 q21 51 21 89 q0 36 -18 60 q-18 25 -53 26 q-24 0 -52 -9 q-27 -10 -52 -27 l-14 72 q25 16 62 27 q36 11 67 11 q68 -1 104 -43 q35 -43 35 -112 q0 -49 -22 -105 q-23 -56 -72 -129 q-27 -40 -51 -71 q-23 -30 -43 -53 l199 0 l0 -74 l-290 0 l0 71 q23 27 51 62 q28 35 60 83 l0 0 ZM687 462 l1 0 q65 -1 99 -48 q33 -46 33 -124 q0 -84 -37 -143 q-38 -59 -113 -62 q-76 0 -118 59 q-42 60 -43 182 q1 155 65 252 q63 97 184 106 l14 -68 q-85 -4 -132 -60 q-46 -57 -56 -153 q14 24 41 41 q26 17 62 18 l0 0 ZM580 328 q10 29 34 50 q24 20 57 21 q41 -1 59 -31 q17 -30 17 -82 q0 -62 -21 -96 q-21 -34 -60 -34 q-47 2 -67 51 q-20 49 -19 121 l0 0 ZM816 -43 q46 1 77 31 q30 30 32 76 q0 150 0 328 q0 178 0 304 q-2 46 -32 77 q-31 31 -77 32 l-632 0 q-46 -1 -77 -32 q-31 -31 -32 -77 l0 -632 q1 -46 32 -76 q31 -30 77 -31 l632 0 Z" /><glyph glyph-name="" unicode="&#xe0aa;" d="M287 315 q47 71 68 122 q20 51 20 89 q0 36 -18 60 q-17 25 -52 26 q-24 0 -52 -9 q-27 -10 -52 -27 l-14 72 q25 16 62 27 q36 11 67 11 q68 -1 104 -43 q35 -43 35 -112 q1 -56 -21 -107 q-21 -51 -73 -127 q-27 -40 -51 -71 q-23 -30 -43 -53 l199 0 l0 -74 l-290 0 l0 71 q23 27 51 62 q28 35 60 83 l0 0 ZM743 591 l-218 0 l0 74 l298 0 l0 -66 q-50 -101 -103 -244 q-54 -144 -83 -257 l-85 0 q30 109 85 253 q56 143 106 240 l0 0 ZM816 -43 q46 1 77 31 q30 30 32 76 q0 150 0 328 q0 178 0 304 q-2 46 -32 77 q-31 31 -77 32 l-632 0 q-46 -1 -77 -32 q-31 -31 -32 -77 l0 -632 q1 -46 32 -76 q31 -30 77 -31 l632 0 Z" /><glyph glyph-name="" unicode="&#xe0ab;" d="M287 315 q47 71 68 122 q21 51 21 89 q0 36 -18 60 q-18 25 -53 26 q-24 0 -52 -9 q-27 -10 -52 -27 l-14 72 q25 16 62 27 q36 11 67 11 q68 -1 104 -43 q35 -43 35 -112 q0 -49 -22 -105 q-23 -56 -72 -129 q-27 -40 -51 -71 q-23 -30 -43 -53 l199 0 l0 -74 l-290 0 l0 71 q23 27 51 62 q28 35 60 83 l0 0 ZM808 538 l0 -1 q-1 -58 -26 -91 q-26 -33 -70 -52 q48 -19 78 -54 q30 -35 31 -103 q-2 -89 -50 -122 q-47 -34 -110 -32 q-55 -2 -103 31 q-48 33 -51 123 q1 64 32 101 q31 36 79 55 q-47 22 -72 55 q-26 32 -26 90 q2 77 44 111 q42 34 100 33 q67 0 105 -36 q38 -36 39 -108 l0 0 ZM740 534 q-1 -51 -24 -74 q-23 -23 -51 -34 q-36 30 -57 49 q-21 19 -21 57 q0 43 21 64 q20 22 57 22 q38 -1 57 -25 q18 -23 18 -58 l0 -1 ZM751 245 q-2 -56 -28 -75 q-27 -19 -59 -18 q-32 -1 -57 19 q-26 19 -28 73 q1 45 23 72 q23 28 62 41 q40 -14 63 -40 q23 -27 24 -71 l0 -1 ZM816 -43 q46 1 77 31 q30 30 32 76 q0 150 0 328 q0 178 0 304 q-2 46 -32 77 q-31 31 -77 32 l-632 0 q-46 -1 -77 -32 q-31 -31 -32 -77 l0 -632 q1 -46 32 -76 q31 -30 77 -31 l632 0 Z" /><glyph glyph-name="" unicode="&#xe0ac;" d="M287 315 q47 71 68 122 q20 51 20 89 q0 36 -18 60 q-17 25 -52 26 q-25 0 -52 -9 q-28 -10 -52 -27 l-15 72 q26 16 62 27 q37 11 68 11 q68 -1 103 -43 q36 -43 36 -112 q0 -49 -23 -105 q-22 -56 -71 -129 q-28 -40 -51 -71 q-24 -30 -44 -53 l200 0 l0 -74 l-291 0 l0 71 q24 27 52 62 q28 35 60 83 l0 0 ZM757 371 q-18 -27 -45 -43 q-26 -16 -57 -16 q-76 3 -109 54 q-33 51 -32 116 q-1 72 34 135 q36 63 121 67 q78 0 120 -57 q42 -58 42 -180 q-2 -180 -72 -268 q-70 -88 -187 -94 l-12 67 q86 5 136 60 q51 55 61 159 l0 0 ZM760 444 q-9 -28 -33 -47 q-24 -19 -58 -20 q-44 1 -63 33 q-19 31 -19 76 q0 53 21 88 q20 36 65 37 q56 -3 73 -55 q16 -52 14 -112 l0 0 ZM816 -43 q46 1 77 31 q30 30 32 76 q0 150 0 328 q0 178 0 304 q-2 46 -32 77 q-31 31 -77 32 l-632 0 q-46 -1 -77 -32 q-31 -31 -32 -77 l0 -632 q1 -46 32 -76 q31 -30 77 -31 l632 0 Z" /><glyph glyph-name="" unicode="&#xe0ad;" d="M824 383 l0 -1 q-1 -155 -42 -226 q-42 -72 -114 -71 q-71 -1 -113 71 q-41 71 -42 227 q1 157 42 228 q42 72 113 71 q72 1 114 -71 q41 -71 42 -228 l0 0 ZM588 383 q0 117 21 175 q21 57 59 57 q38 0 59 -57 q21 -58 21 -175 q0 -116 -21 -174 q-21 -57 -59 -57 q-38 0 -59 57 q-21 58 -21 173 l0 1 ZM347 404 q57 -8 84 -43 q27 -36 27 -95 q0 -73 -43 -125 q-43 -51 -136 -53 q-24 0 -52 4 q-28 4 -50 12 l11 75 q17 -8 42 -13 q25 -5 45 -5 q42 0 72 25 q31 26 32 84 q0 46 -25 68 q-26 22 -82 22 l-41 0 l0 66 l28 0 q51 0 80 27 q29 27 29 75 q0 39 -19 60 q-19 21 -52 21 q-26 0 -51 -9 q-26 -9 -51 -26 l-16 70 q23 15 57 26 q33 11 68 11 q59 1 98 -32 q40 -32 41 -111 q0 -52 -25 -87 q-26 -36 -71 -47 l0 0 ZM816 -43 q46 1 77 31 q30 30 32 76 q0 150 0 328 q0 178 0 304 q-2 46 -32 77 q-31 31 -77 32 l-632 0 q-46 -1 -77 -32 q-31 -31 -32 -77 l0 -632 q1 -46 32 -76 q31 -30 77 -31 l632 0 Z" /><glyph glyph-name="" unicode="&#xe0ae;" d="M405 405 q65 -6 97 -43 q31 -37 31 -100 q1 -73 -50 -124 q-50 -50 -165 -52 q-25 0 -61 4 q-35 4 -65 12 l13 76 q23 -8 54 -14 q31 -5 56 -5 q52 -1 89 25 q37 26 39 85 q1 46 -30 68 q-30 23 -99 23 l-53 0 l0 66 l35 0 q63 0 98 27 q35 27 35 75 q0 39 -23 60 q-23 21 -66 21 q-30 0 -61 -9 q-32 -9 -62 -26 l-19 70 q27 15 69 26 q42 11 84 11 q72 1 117 -32 q46 -32 47 -111 q-1 -55 -30 -90 q-29 -35 -80 -43 l0 0 ZM689 589 q-17 -8 -45 -20 q-28 -12 -53 -19 l-9 64 q35 11 73 30 q37 18 55 33 l62 0 l0 -579 l-83 0 l0 491 ZM816 -43 q46 1 77 31 q30 30 32 76 q0 150 0 328 q0 178 0 304 q-2 46 -32 77 q-31 31 -77 32 l-632 0 q-46 -1 -77 -32 q-31 -31 -32 -77 l0 -632 q1 -46 32 -76 q31 -30 77 -31 l632 0 Z" /><glyph glyph-name="" unicode="&#xe0af;" d="M819 -47 q47 1 78 31 q31 30 32 77 l0 638 q-1 46 -32 78 q-31 31 -78 32 l-638 0 q-47 -1 -78 -32 q-31 -32 -32 -78 l0 -638 q1 -47 32 -77 q31 -30 78 -31 l638 0 ZM414 470 l0 210 l180 0 l0 -210 l210 0 l0 -180 l-210 0 q0 -13 2 -105 q1 -92 -2 -105 q-13 0 -91 0 q-78 0 -89 0 l0 210 l-210 0 l0 180 l210 0 Z" /><glyph glyph-name="" unicode="&#xe0b0;" d="M819 -47 q47 1 78 31 q31 30 32 77 l0 638 q-1 46 -32 78 q-31 31 -78 32 l-638 0 q-47 -1 -78 -32 q-31 -32 -32 -78 l0 -638 q1 -47 32 -77 q31 -30 78 -31 l638 0 ZM750 160 l0 -100 l-496 0 l0 631 l475 0 l0 -100 l-358 0 l0 -162 l329 0 l0 -88 l-329 0 l0 -181 l379 0 Z" /><glyph glyph-name="" unicode="&#xe04a;" d="M500 880 q-212 -5 -353 -146 q-142 -142 -147 -354 q5 -212 147 -353 q141 -141 353 -146 q212 5 354 146 q141 141 146 353 q-5 212 -146 354 q-142 141 -354 146 l0 0 ZM500 68 q-133 3 -221 91 q-88 88 -91 221 q3 133 91 221 q88 89 221 92 q133 -3 221 -92 q89 -88 92 -221 q-3 -133 -92 -221 q-88 -88 -221 -91 l0 0 Z" /><glyph glyph-name="" unicode="&#xe04b;" d="M40 840 l0 -920 l921 0 l0 920 l-921 0 ZM764 116 l-527 0 l0 527 l527 0 l0 -527 Z" /><glyph glyph-name="" unicode="&#xe04c;" d="M980 700 l-160 160 l-320 -320 l-320 320 l-160 -160 l320 -320 l-320 -320 l160 -159 l320 319 l320 -319 l160 159 l-320 320 l320 320 Z" /><glyph glyph-name="" unicode="&#xe04d;" d="M0 -33 l39 -76 l913 0 l45 87 l-467 882 l-57 0 l-473 -893 ZM241 66 l260 478 l260 -478 l-520 0 Z" /><glyph glyph-name="" unicode="&#xe042;" d="M751 845 l-501 0 l-250 -463 l250 -462 l501 0 l250 462 l-250 463 ZM660 86 l-319 0 l-160 296 l160 296 l319 0 l160 -296 l-160 -296 Z" /><glyph glyph-name="" unicode="&#xe043;" d="M839 719 q-148 141 -339 141 q-191 0 -339 -141 q-140 -148 -140 -339 q0 -191 140 -339 q148 -140 339 -140 q191 0 339 140 q141 148 141 339 q0 191 -141 339 l0 0 ZM274 606 q83 80 190 92 q107 11 202 -45 l-439 -439 q-56 95 -45 202 q12 107 92 190 l0 0 ZM726 154 q-83 -80 -190 -92 q-107 -11 -202 45 l439 439 q56 -95 45 -202 q-12 -107 -92 -190 l0 0 Z" /><glyph glyph-name="" unicode="&#xe044;" d="M528 291 q-43 7 -82 29 q-39 22 -67 60 q-56 79 -42 169 q13 90 89 150 q78 56 168 43 q90 -14 150 -90 q28 -38 38 -81 q11 -44 4 -88 l135 -20 q11 70 -6 140 q-17 69 -62 130 q-95 122 -239 143 q-144 21 -270 -68 q-122 -95 -143 -239 q-21 -144 68 -270 q46 -61 108 -97 q61 -35 131 -46 l20 135 ZM457 469 q43 -7 82 -29 q39 -22 67 -60 q56 -79 43 -169 q-13 -90 -89 -150 q-79 -55 -169 -42 q-90 13 -150 89 q-28 38 -38 82 q-11 43 -4 87 l-135 20 q-11 -70 6 -139 q17 -70 62 -131 q95 -122 239 -142 q144 -21 270 68 q122 95 143 238 q21 144 -68 270 q-46 61 -107 97 q-62 35 -132 46 l-20 -135 Z" /><glyph glyph-name="" unicode="&#xe0b1;" d="M583 510 q-49 -40 -113 -55 q-64 -14 -89 -13 l0 116 q22 0 92 29 q69 28 127 97 l136 0 l0 -616 l-153 0 l0 442 ZM417 -119 l425 0 q55 1 110 34 q54 33 82 80 l159 279 q26 49 26 111 q0 63 -26 111 l-159 276 q-28 47 -82 77 q-55 30 -110 31 l-425 0 q-55 -1 -109 -31 q-55 -30 -83 -77 l-159 -275 q-26 -48 -26 -111 q0 -64 26 -112 l159 -278 q28 -48 83 -81 q54 -33 109 -34 l0 0 Z" /><glyph glyph-name="" unicode="&#xe0b2;" d="M252 104 q37 258 294 292 q256 34 293 103 q3 49 -43 64 q-46 14 -171 12 l-64 0 q-88 1 -119 -20 q-31 -21 -34 -72 l-138 0 q3 96 47 152 q44 56 198 57 l189 0 q97 5 180 -30 q84 -36 89 -168 q-7 -92 -91 -128 q-84 -36 -168 -47 q-103 -14 -187 -37 q-85 -23 -95 -88 l549 0 l0 -118 l-729 0 l0 28 ZM417 -119 l425 0 q55 1 110 34 q54 33 82 80 l159 279 q26 49 26 111 q0 63 -26 111 l-159 276 q-28 47 -82 77 q-55 30 -110 31 l-425 0 q-55 -1 -109 -31 q-55 -30 -83 -77 l-159 -275 q-26 -48 -26 -111 q0 -64 26 -112 l159 -278 q28 -48 83 -81 q54 -33 109 -34 l0 0 Z" /><glyph glyph-name="" unicode="&#xe0b3;" d="M262 487 q10 87 61 143 q51 57 181 59 l281 0 q98 -1 145 -42 q47 -42 47 -116 q0 -42 -16 -82 q-15 -39 -49 -56 q56 -18 71 -66 q16 -48 14 -86 q1 -63 -49 -118 q-50 -54 -168 -58 l-281 0 q-133 2 -186 59 q-53 57 -61 147 l138 0 q7 -45 38 -68 q31 -23 96 -23 l252 0 q42 0 66 18 q24 17 24 54 q0 36 -24 56 q-24 20 -66 20 l-241 0 l0 107 l226 0 q43 0 62 17 q20 17 20 53 q-1 38 -23 53 q-22 14 -59 13 l-232 0 q-64 0 -92 -21 q-28 -20 -34 -63 l-141 0 ZM417 -119 l425 0 q55 1 110 34 q54 33 82 80 l159 279 q26 49 26 111 q0 63 -26 111 l-159 276 q-28 47 -82 77 q-55 30 -110 31 l-425 0 q-55 -1 -109 -31 q-55 -30 -83 -77 l-159 -275 q-26 -48 -26 -111 q0 -64 26 -112 l159 -278 q28 -48 83 -81 q54 -33 109 -34 l0 0 Z" /><glyph glyph-name="" unicode="&#xe0b4;" d="M872 54 l-138 0 l0 132 l-471 0 l0 110 l471 383 l138 0 l0 -380 l116 0 l0 -113 l-116 0 l0 -132 ZM734 552 l-303 -253 l303 0 l0 253 ZM417 -119 l425 0 q55 1 110 34 q54 33 82 80 l159 279 q26 49 26 111 q0 63 -26 111 l-159 276 q-28 47 -82 77 q-55 30 -110 31 l-425 0 q-55 -1 -109 -31 q-55 -30 -83 -77 l-159 -275 q-26 -48 -26 -111 q0 -64 26 -112 l159 -278 q28 -48 83 -81 q54 -33 109 -34 l0 0 Z" /><glyph glyph-name="" unicode="&#xe0b5;" d="M480 357 q-31 1 -55 -5 q-24 -6 -35 -26 l-131 0 l43 352 l641 0 l0 -117 l-528 0 l-15 -132 q14 20 31 27 q16 6 33 6 l318 0 q90 2 147 -42 q57 -44 59 -153 l0 -7 q-2 -112 -58 -157 q-56 -46 -148 -44 l-319 0 q-92 -2 -148 29 q-57 31 -59 118 l0 10 l135 0 q7 -30 50 -36 q44 -6 86 -5 l213 0 q48 -1 76 19 q28 21 29 73 q-2 65 -44 79 q-43 14 -96 11 l-225 0 ZM417 -119 l425 0 q55 1 110 34 q54 33 82 80 l159 279 q26 49 26 111 q0 63 -26 111 l-159 276 q-28 47 -82 77 q-55 30 -110 31 l-425 0 q-55 -1 -109 -31 q-55 -30 -83 -77 l-159 -275 q-26 -48 -26 -111 q0 -64 26 -112 l159 -278 q28 -48 83 -81 q54 -33 109 -34 l0 0 Z" /><glyph glyph-name="" unicode="&#xe0b6;" d="M514 570 q-50 0 -78 -18 q-28 -18 -29 -59 l0 -73 q15 20 32 31 q17 11 34 11 l317 0 q90 2 147 -41 q57 -43 59 -152 l0 -7 q-2 -111 -58 -154 q-56 -43 -148 -41 l-319 0 q-92 -2 -148 41 q-57 43 -59 154 l0 224 q3 110 69 156 q65 46 157 45 l396 0 l0 -117 l-372 0 ZM509 357 q-41 1 -71 -17 q-30 -18 -31 -70 q1 -51 30 -69 q30 -18 72 -17 l238 0 q48 -1 76 17 q28 18 29 69 q-1 52 -30 70 q-28 18 -75 17 l-238 0 ZM417 -119 l425 0 q55 1 110 34 q54 33 82 80 l159 279 q26 49 26 111 q0 63 -26 111 l-159 276 q-28 47 -82 77 q-55 30 -110 31 l-425 0 q-55 -1 -109 -31 q-55 -30 -83 -77 l-159 -275 q-26 -48 -26 -111 q0 -64 26 -112 l159 -278 q28 -48 83 -81 q54 -33 109 -34 l0 0 Z" /><glyph glyph-name="" unicode="&#xe0b7;" d="M967 667 l0 -125 q-165 -108 -260 -242 q-96 -133 -114 -243 l-156 0 q8 87 98 235 q90 147 242 256 l-510 0 l0 119 l700 0 ZM417 -119 l425 0 q55 1 110 34 q54 33 82 80 l159 279 q26 49 26 111 q0 63 -26 111 l-159 276 q-28 47 -82 77 q-55 30 -110 31 l-425 0 q-55 -1 -109 -31 q-55 -30 -83 -77 l-159 -275 q-26 -48 -26 -111 q0 -64 26 -112 l159 -278 q28 -48 83 -81 q54 -33 109 -34 l0 0 Z" /><glyph glyph-name="" unicode="&#xe0b8;" d="M466 65 q-117 4 -166 60 q-48 57 -47 121 q-1 38 18 86 q19 48 75 66 q-35 16 -57 55 q-22 40 -23 82 q-1 72 44 117 q44 45 142 46 l342 0 q96 -1 141 -45 q45 -43 45 -118 q0 -42 -19 -82 q-19 -39 -54 -55 q56 -18 73 -66 q17 -48 15 -86 q2 -64 -44 -121 q-46 -56 -163 -60 l-322 0 ZM779 333 q42 0 66 -21 q24 -21 24 -57 q0 -37 -24 -56 q-24 -19 -66 -19 l-305 0 q-43 0 -66 19 q-24 19 -24 56 q0 36 24 57 q23 21 66 21 l305 0 ZM764 585 q37 0 60 -17 q22 -17 23 -56 q0 -36 -24 -54 q-24 -19 -67 -19 l-267 0 q-43 0 -66 19 q-24 18 -24 54 q1 39 23 56 q21 17 58 17 l284 0 ZM417 -119 l425 0 q55 1 110 34 q54 33 82 80 l159 279 q26 49 26 111 q0 63 -26 111 l-159 276 q-28 47 -82 77 q-55 30 -110 31 l-425 0 q-55 -1 -109 -31 q-55 -30 -83 -77 l-159 -275 q-26 -48 -26 -111 q0 -64 26 -112 l159 -278 q28 -48 83 -81 q54 -33 109 -34 l0 0 Z" /><glyph glyph-name="" unicode="&#xe0b9;" d="M743 171 q43 0 70 23 q26 22 27 64 l0 63 q-15 -20 -32 -26 q-17 -7 -35 -6 l-304 0 q-90 -1 -147 42 q-57 44 -59 150 q2 112 62 159 q59 46 152 45 l300 0 q92 2 148 -41 q56 -44 58 -156 l0 -233 q-2 -109 -59 -150 q-57 -42 -147 -40 l-273 0 q-125 1 -172 37 q-46 37 -55 100 l133 0 q13 -22 45 -27 q31 -5 96 -4 l192 0 ZM511 393 q-46 -1 -75 17 q-29 18 -30 70 q1 51 33 70 q33 18 81 17 l218 0 q42 1 72 -17 q29 -19 30 -70 q-1 -52 -31 -70 q-29 -18 -71 -17 l-227 0 ZM417 -119 l425 0 q55 1 110 34 q54 33 82 80 l159 279 q26 49 26 111 q0 63 -26 111 l-159 276 q-28 47 -82 77 q-55 30 -110 31 l-425 0 q-55 -1 -109 -31 q-55 -30 -83 -77 l-159 -275 q-26 -48 -26 -111 q0 -64 26 -112 l159 -278 q28 -48 83 -81 q54 -33 109 -34 l0 0 Z" /><glyph glyph-name="" unicode="&#xe0ba;" d="M819 630 q106 -3 177 -73 q70 -71 73 -177 q-3 -106 -73 -177 q-71 -70 -177 -73 q-56 0 -103 23 q-48 22 -83 61 q30 33 46 76 q17 42 17 90 q0 48 -17 91 q-16 42 -46 75 q35 39 83 61 q47 23 103 23 l0 0 ZM633 546 q-30 -33 -47 -75 q-17 -43 -17 -91 q0 -48 17 -90 q17 -43 47 -76 q-35 -39 -83 -61 q-47 -23 -104 -23 q-106 3 -177 73 q-70 71 -73 177 q3 106 73 177 q71 70 177 73 q57 0 104 -23 q48 -22 83 -61 l0 0 ZM417 -119 l425 0 q55 1 110 34 q54 33 82 80 l159 279 q26 49 26 111 q0 63 -26 111 l-159 276 q-28 47 -82 77 q-55 30 -110 31 l-425 0 q-55 -1 -109 -31 q-55 -30 -83 -77 l-159 -275 q-26 -48 -26 -111 q0 -64 26 -112 l159 -278 q28 -48 83 -81 q54 -33 109 -34 l0 0 Z" /><glyph glyph-name="" unicode="&#xe035;" d="M510 872 l-140 -20 l30 -220 l-220 -30 q21 -43 165 -348 q144 -305 165 -351 q21 42 165 348 q144 307 165 351 l-220 30 l30 220 l-140 20 Z" /><glyph glyph-name="" unicode="&#xe0bb;" d="M659 474 q-12 0 -23 -3 l0 3 l-413 0 l0 0 q-39 -1 -65 -27 q-26 -26 -27 -65 l0 -367 q1 -38 27 -64 q26 -26 65 -27 q0 0 0 0 l413 0 l0 3 q11 -3 23 -3 q60 11 140 113 q80 101 88 161 q-8 64 -88 165 q-80 100 -140 111 l0 0 ZM634 155 l-229 -143 q-29 -16 -49 -6 q-19 11 -20 45 l0 295 q1 34 20 45 q20 11 49 -6 l229 -143 q29 -19 29 -43 q0 -25 -29 -44 l0 0 Z" /><glyph glyph-name="" unicode="&#xe03d;" d="M266 592 q-13 -13 -12 -28 q2 -14 18 -23 l159 -85 q17 -8 39 -8 q21 0 38 8 l159 85 q17 9 18 23 q2 15 -12 28 q-82 70 -141 86 q-59 15 -62 12 q-3 3 -62 -12 q-60 -16 -142 -86 l0 0 ZM510 841 q-17 9 -40 9 q-23 0 -40 -9 l-362 -193 q-18 -10 -29 -29 q-12 -20 -12 -41 l0 -396 q0 -21 12 -41 q11 -19 29 -29 l362 -192 q17 -9 40 -9 q23 0 40 9 l362 192 q17 10 28 29 q12 20 12 41 l0 396 q0 21 -12 41 q-11 19 -28 29 l-362 193 ZM511 388 q-18 -10 -41 -10 q-24 0 -41 10 l-313 177 q-17 10 -17 22 q0 13 17 22 l313 167 q17 9 41 9 q23 0 41 -9 l313 -167 q17 -9 17 -22 q0 -12 -17 -22 l-313 -177 Z" /><glyph glyph-name="" unicode="&#xe020;" d="M255 106 q56 1 114 34 q-9 53 -14 111 q-4 59 -5 122 q-70 -38 -110 -92 q-40 -54 -41 -115 q0 -32 13 -46 q13 -14 43 -14 l0 0 ZM454 211 q37 40 67 93 q30 52 51 116 q-9 0 -19 0 q-57 0 -108 -12 l0 -11 q0 -100 9 -186 l0 0 ZM687 492 q93 -26 143 -87 q49 -62 49 -153 q3 -114 -57 -187 q-60 -73 -225 -97 l-38 87 q138 16 181 65 q43 49 39 132 q0 54 -29 93 q-29 39 -86 59 q-31 -97 -80 -172 q-49 -76 -110 -127 q4 -14 9 -30 q5 -15 12 -34 l-93 -36 q-4 15 -8 25 q-3 10 -5 18 q-37 -18 -75 -27 q-37 -10 -75 -10 q-68 1 -100 41 q-32 40 -32 108 q2 98 67 181 q66 82 178 128 q1 29 3 58 q2 30 5 60 l-234 0 l0 90 l243 0 q4 27 8 55 q4 28 8 59 l99 -9 q-6 -31 -10 -56 q-4 -25 -7 -49 l386 0 l0 -90 l-398 0 q-4 -46 -7 -90 q26 6 54 8 q27 2 56 2 q18 0 35 0 q2 10 4 24 q2 13 3 29 l97 -10 q-3 -20 -5 -33 q-3 -14 -5 -25 l0 0 ZM972 731 q-1 51 -36 85 q-34 35 -85 36 l-702 0 q-51 -1 -85 -36 q-35 -34 -36 -85 l0 -702 q1 -51 36 -84 q34 -34 85 -35 l702 0 q51 1 85 35 q35 33 36 84 l0 702 Z" /><glyph glyph-name="" unicode="&#xe021;" d="M522 550 q6 -203 -40 -332 q-45 -129 -208 -229 l-76 68 q152 85 191 194 q40 109 34 299 l99 0 ZM872 647 q-35 -81 -88 -169 q-52 -88 -154 -186 l-83 54 q100 93 128 148 q29 56 49 109 l-585 0 l0 92 l663 0 l70 -48 ZM972 731 q-1 51 -36 85 q-34 35 -85 36 l-702 0 q-51 -1 -85 -36 q-35 -34 -36 -85 l0 -702 q1 -51 36 -84 q34 -34 85 -35 l702 0 q51 1 85 35 q35 33 36 84 l0 702 Z" /><glyph glyph-name="" unicode="&#xe022;" d="M614 311 l-117 317 l-117 -317 l234 0 ZM847 0 l-121 0 l-84 219 l-294 0 l-81 -219 l-114 0 l299 769 l96 0 l299 -769 ZM972 731 q-1 51 -36 85 q-34 35 -85 36 l-702 0 q-51 -1 -85 -36 q-35 -34 -36 -85 l0 -702 q1 -51 36 -84 q34 -34 85 -35 l702 0 q51 1 85 35 q35 33 36 84 l0 702 Z" /><glyph glyph-name="" unicode="&#xe023;" d="M410 97 l0 -93 l-280 0 l0 93 l280 0 ZM686 588 q3 -220 -21 -357 q-24 -138 -110 -244 l-74 54 q82 91 104 212 q22 120 19 335 l82 0 ZM886 704 q-16 -96 -47 -206 q-31 -109 -79 -201 l-63 55 q52 108 66 168 q14 60 22 131 l-297 0 l0 90 l349 0 l49 -37 ZM972 731 q-1 51 -36 85 q-34 35 -85 36 l-702 0 q-51 -1 -85 -36 q-35 -34 -36 -85 l0 -702 q1 -51 36 -84 q34 -34 85 -35 l702 0 q51 1 85 35 q35 33 36 84 l0 702 Z" /><glyph glyph-name="" unicode="&#xe024;" d="M730 302 l-60 305 l-61 -305 l121 0 ZM900 -10 l-110 0 l-46 220 l-150 0 l-45 -220 l-106 0 l174 763 l108 0 l175 -763 ZM120 4 l0 93 l280 0 l0 -93 l-280 0 ZM972 731 q-1 51 -36 85 q-34 35 -85 36 l-702 0 q-51 -1 -85 -36 q-35 -34 -36 -85 l0 -702 q1 -51 36 -84 q34 -34 85 -35 l702 0 q51 1 85 35 q35 33 36 84 l0 702 Z" /><glyph glyph-name="" unicode="&#xe025;" d="M721 379 l0 -387 l-112 0 l0 777 l112 0 l0 -298 l149 0 l0 -92 l-149 0 ZM514 689 q3 -177 -77 -321 q-79 -145 -271 -244 l-63 85 q136 69 209 165 q74 96 89 224 l-255 0 l0 91 l368 0 ZM972 731 q-1 51 -36 85 q-34 35 -85 36 l-702 0 q-51 -1 -85 -36 q-35 -34 -36 -85 l0 -702 q1 -51 36 -84 q34 -34 85 -35 l702 0 q51 1 85 35 q35 33 36 84 l0 702 Z" /><glyph glyph-name="" unicode="&#xe026;" d="M447 338 l0 188 l-211 0 l0 -188 l211 0 ZM760 338 l0 188 l-220 0 l0 -188 l220 0 ZM852 212 l-92 0 l0 40 l-220 0 l0 -264 l-93 0 l0 264 l-211 0 l0 -40 l-89 0 l0 400 l300 0 l0 161 l93 0 l0 -161 l312 0 l0 -400 ZM972 731 q-1 51 -36 85 q-34 35 -85 36 l-702 0 q-51 -1 -85 -36 q-35 -34 -36 -85 l0 -702 q1 -51 36 -84 q34 -34 85 -35 l702 0 q51 1 85 35 q35 33 36 84 l0 702 Z" /><glyph glyph-name="" unicode="&#xe027;" d="M450 410 l-142 0 l0 -123 l142 0 l0 123 ZM690 287 l0 123 l-150 0 l0 -123 l150 0 ZM566 206 q49 -77 133 -106 q85 -30 205 -42 l-55 -80 q-115 18 -202 53 q-86 34 -145 117 q-37 -59 -120 -96 q-84 -36 -226 -75 l-57 73 q155 38 233 71 q77 34 101 85 l-316 0 l0 81 l103 0 l0 201 l230 0 l0 105 l90 0 l0 -105 l240 0 l0 -201 l103 0 l0 -81 l-317 0 ZM890 629 l-187 0 l0 -78 l-90 0 l0 78 l-231 0 l0 -76 l-89 0 l0 76 l-183 0 l0 80 l183 0 l0 75 l89 0 l0 -75 l231 0 l0 75 l90 0 l0 -75 l187 0 l0 -80 ZM972 731 q-1 51 -36 85 q-34 35 -85 36 l-702 0 q-51 -1 -85 -36 q-35 -34 -36 -85 l0 -702 q1 -51 36 -84 q34 -34 85 -35 l702 0 q51 1 85 35 q35 33 36 84 l0 702 Z" /><glyph glyph-name="" unicode="&#xe028;" d="M92 424 q-5 19 -7 24 q-3 4 -8 16 l-69 0 q0 -33 0 -65 q0 -32 0 -60 l0 -339 l91 0 l0 315 q2 26 23 45 q20 20 37 21 q39 -3 46 -45 q7 -43 5 -94 l0 -242 l87 0 l0 224 q0 28 0 52 q-1 24 -1 42 q1 30 16 47 q15 17 37 17 q43 -1 52 -41 q8 -40 6 -100 l0 -241 l90 0 l0 263 q1 92 -28 148 q-30 55 -107 57 q-38 -1 -60 -20 q-22 -19 -38 -49 q-11 31 -32 50 q-20 18 -59 19 q-26 -1 -46 -15 q-19 -14 -35 -29 l0 0 Z" /><glyph glyph-name="" unicode="&#xe0bc;" d="M632 855 l-264 0 q-145 -4 -242 -101 q-97 -97 -101 -242 l0 -264 q4 -145 101 -242 q97 -96 242 -100 l264 0 q145 4 242 100 q97 97 101 242 l0 264 q-4 145 -101 242 q-97 97 -242 101 l0 0 ZM131 248 l0 264 q3 101 69 168 q67 66 168 69 l4 0 q-36 -35 -55 -76 q-20 -42 -22 -86 q-2 -76 45 -142 q48 -67 136 -112 q60 -31 93 -71 q32 -41 30 -84 q-2 -48 -44 -92 q-42 -43 -118 -75 l-69 0 q-101 3 -168 69 q-66 67 -69 168 l0 0 ZM869 248 q-3 -101 -69 -168 q-67 -66 -168 -69 l-4 0 q36 35 55 77 q20 41 22 85 q2 76 -45 142 q-48 67 -136 112 q-60 31 -93 71 q-32 41 -30 84 q2 49 44 92 q42 43 118 75 l69 0 q101 -3 168 -69 q66 -67 69 -168 l0 -264 Z" /><glyph glyph-name="" unicode="&#xe0bd;" d="M473 325 q-103 52 -158 129 q-55 77 -52 165 q2 52 25 99 q23 48 64 89 l-5 0 q-116 -3 -194 -80 q-77 -78 -80 -194 l0 -306 q3 -116 80 -193 q78 -77 194 -80 l80 0 q88 37 136 86 q49 50 52 106 q2 50 -35 97 q-37 47 -107 82 l0 0 ZM653 807 l-80 0 q-88 -37 -136 -87 q-49 -50 -52 -106 q-2 -50 35 -97 q37 -47 107 -82 q103 -52 158 -129 q55 -77 52 -165 q-2 -52 -25 -99 q-23 -47 -64 -88 l5 0 q116 3 194 80 q78 77 81 193 l0 306 q-3 116 -81 194 q-78 77 -194 80 l0 0 Z" /><glyph glyph-name="" unicode="&#xe029;" d="M366 -9 q20 17 29 100 q9 83 16 230 l-45 0 l-17 0 l-262 0 l0 -78 l89 0 q-6 -66 -38 -119 q-32 -54 -113 -91 q19 -24 31 -36 q11 -12 24 -27 q93 48 130 120 q37 71 45 153 l72 0 q-5 -98 -10 -143 q-6 -45 -8 -46 q-1 0 -2 0 q-8 -1 -27 0 q-18 1 -46 3 l9 -80 q26 -1 46 -2 q21 0 31 0 q14 1 25 4 q12 4 21 12 l0 0 ZM45 260 q62 46 108 113 q45 67 73 158 l-70 34 q-25 -86 -65 -144 q-41 -59 -94 -95 l48 -66 ZM501 332 q-54 35 -95 92 q-40 57 -66 141 l-70 -35 q28 -89 74 -155 q46 -65 108 -111 l49 68 Z" /><glyph glyph-name="" unicode="&#xe0c1;" d="M1382 830 l-1014 0 q-85 -2 -142 -59 q-56 -56 -58 -141 l0 -500 q2 -85 58 -141 q57 -56 142 -58 l1014 0 q85 2 142 58 q56 56 58 141 l0 500 q-2 85 -58 141 q-57 57 -142 59 l0 0 ZM988 43 l-225 0 l0 674 l225 0 l0 -674 Z" /><glyph glyph-name="" unicode="&#xe0c2;" d="M1382 830 l-1014 0 q-85 -2 -142 -59 q-56 -56 -58 -141 l0 -500 q2 -85 58 -141 q57 -56 142 -58 l1014 0 q85 2 142 58 q56 56 58 141 l0 500 q-2 85 -58 141 q-57 57 -142 59 l0 0 ZM825 43 l-225 0 l0 674 l225 0 l0 -674 ZM1163 43 l-225 0 l0 674 l225 0 l0 -674 Z" /><glyph glyph-name="" unicode="&#xe0c3;" d="M1462 830 l-1094 0 q-85 -2 -142 -59 q-56 -56 -58 -141 l0 -500 q2 -85 58 -141 q57 -56 142 -58 l1094 0 q85 2 142 58 q56 56 58 141 l0 500 q-2 85 -58 141 q-57 57 -142 59 l0 0 ZM650 43 l-215 0 l0 674 l215 0 l0 -674 ZM983 43 l-215 0 l0 674 l215 0 l0 -674 ZM1315 43 l-215 0 l0 674 l215 0 l0 -674 Z" /><glyph glyph-name="" unicode="&#xe0c4;" d="M1382 830 l-1014 0 q-85 -2 -142 -59 q-56 -56 -58 -141 l0 -500 q2 -85 58 -141 q57 -56 142 -58 l1014 0 q85 2 142 58 q56 56 58 141 l0 500 q-2 85 -58 141 q-57 57 -142 59 l0 0 ZM1100 43 l-225 0 l-233 607 l0 -478 l-217 152 l0 393 l450 0 l113 -412 l112 412 l250 0 l-250 -674 Z" /><glyph glyph-name="" unicode="&#xe0c5;" d="M1382 830 l-1014 0 q-85 -2 -142 -59 q-56 -56 -58 -141 l0 -500 q2 -85 58 -141 q57 -56 142 -58 l1014 0 q85 2 142 58 q56 56 58 141 l0 500 q-2 85 -58 141 q-57 57 -142 59 l0 0 ZM988 43 l-225 0 l-250 674 l250 0 l112 -412 l113 412 l250 0 l-250 -674 Z" /><glyph glyph-name="" unicode="&#xe0c6;" d="M1462 830 l-1174 0 q-85 -2 -142 -59 q-56 -56 -58 -141 l0 -500 q2 -85 58 -141 q57 -56 142 -58 l1174 0 q85 2 142 58 q56 56 58 141 l0 500 q-2 85 -58 141 q-57 57 -142 59 l0 0 ZM1325 43 l-225 0 l0 607 l-225 -607 l-225 0 l-250 674 l250 0 l113 -412 l112 412 l450 0 l0 -674 Z" /><glyph glyph-name="" unicode="&#xe03e;" d="M659 876 l-496 -99 q-84 -18 -129 -86 q-44 -67 -30 -152 l99 -496 q18 -83 86 -128 q67 -45 152 -30 l496 99 q84 18 129 85 q45 67 30 152 l-99 496 q-18 84 -86 129 q-67 45 -152 30 l0 0 ZM254 447 q-47 -8 -85 17 q-38 26 -48 73 q-9 47 16 85 q26 38 73 49 q48 8 86 -17 q38 -26 48 -73 q8 -48 -17 -85 q-26 -38 -73 -49 l0 0 ZM522 268 q-47 -8 -85 17 q-38 26 -49 73 q-8 47 17 85 q26 38 73 49 q47 8 85 -17 q38 -26 49 -73 q8 -47 -17 -85 q-26 -38 -73 -49 l0 0 ZM790 89 q-48 -8 -86 17 q-38 26 -48 73 q-8 48 17 85 q26 38 73 49 q47 8 85 -17 q38 -26 48 -73 q9 -47 -16 -85 q-26 -38 -73 -49 l0 0 Z" /><glyph glyph-name="" unicode="&#xe0be;" d="M369 678 q1 18 15 30 q14 12 32 12 l168 0 q18 0 32 -12 q14 -12 15 -30 l0 -197 q0 -17 10 -27 q10 -10 27 -10 l126 0 q17 -1 22 -11 q5 -11 -5 -25 l-286 -396 q-11 -13 -25 -13 q-14 0 -25 13 l-286 396 q-10 15 -5 25 q5 11 22 11 l126 0 q17 0 27 10 q10 10 10 27 l0 197 ZM333 -46 q73 -69 167 -69 q94 0 167 69 l260 259 q69 73 69 167 q0 94 -69 167 l-260 260 q-73 69 -167 69 q-94 0 -167 -69 l-260 -260 q-68 -73 -68 -167 q0 -94 68 -167 l260 -259 Z" /><glyph glyph-name="" unicode="&#xe0bf;" d="M710 58 l-210 210 l-203 -203 l-112 112 l203 203 l-203 203 l112 112 l203 -203 l210 210 l112 -112 l-210 -210 l210 -210 l-112 -112 ZM333 -46 q73 -69 167 -69 q94 0 167 69 l260 259 q69 73 69 167 q0 94 -69 167 l-260 260 q-73 69 -167 69 q-94 0 -167 -69 l-260 -260 q-68 -73 -68 -167 q0 -94 68 -167 l260 -259 Z" /><glyph glyph-name="" unicode="&#xe0c0;" d="M1377 830 l-593 0 l178 -183 l368 64 l-174 -331 l174 -331 l-368 64 l-178 -182 l593 0 q95 2 159 66 q64 63 66 158 l0 450 q-2 95 -66 159 q-64 64 -159 66 l0 0 ZM689 830 l-354 0 q-95 -2 -159 -66 q-64 -64 -66 -159 l0 -450 q2 -95 66 -158 q64 -64 159 -66 l354 0 l-42 284 l-334 165 l334 165 l42 285 Z" /><glyph glyph-name="" unicode="&#xe03f;" d="M140 20 q38 8 58 38 q20 30 14 69 q-9 38 -39 58 q-30 20 -69 13 q-38 -9 -58 -39 q-20 -30 -13 -68 q9 -38 39 -58 q30 -20 68 -13 l0 0 Z" /><glyph glyph-name="" unicode="&#xe0d0;" d="M1625 724 l0 -135 l-267 0 l0 -561 l-126 0 l0 561 l-266 0 l0 135 l659 0 ZM581 162 l503 0 l0 -134 l-629 0 l0 696 l126 0 l0 -562 ZM1703 -88 q99 3 166 69 q66 66 69 165 l0 468 q-3 99 -69 166 q-67 66 -166 69 l-1406 0 q-99 -3 -165 -69 q-66 -67 -69 -166 l0 -468 q3 -99 69 -165 q66 -66 165 -69 l1406 0 Z" /><glyph glyph-name="" unicode="&#xe0d1;" d="M1731 724 l0 -135 l-266 0 l0 -561 l-126 0 l0 561 l-266 0 l0 135 l658 0 ZM764 440 q124 -1 178 -54 q53 -54 52 -147 q1 -100 -52 -155 q-54 -55 -179 -56 l-287 0 q-95 1 -143 43 q-47 43 -64 115 l116 62 q13 -45 37 -66 q24 -21 77 -21 l224 0 q77 -1 111 14 q34 16 33 63 q1 46 -33 60 q-34 14 -111 13 l-218 0 q-125 1 -178 54 q-54 54 -53 147 q-1 101 53 156 q53 55 178 56 l258 0 q115 0 153 -43 q37 -43 57 -128 l-120 -49 q-12 45 -36 66 q-24 20 -77 20 l-194 0 q-77 1 -111 -14 q-35 -15 -34 -62 q-1 -47 34 -61 q34 -14 110 -13 l219 0 ZM1703 -88 q99 3 166 69 q66 66 69 165 l0 468 q-3 99 -69 166 q-67 66 -166 69 l-1406 0 q-99 -3 -165 -69 q-66 -67 -69 -166 l0 -468 q3 -99 69 -165 q66 -66 165 -69 l1406 0 Z" /><glyph glyph-name="" unicode="&#xe0d2;" d="M1751 724 l0 -135 l-266 0 l0 -561 l-126 0 l0 561 l-267 0 l0 135 l659 0 ZM299 724 l654 0 l0 -135 l-528 0 l0 -149 l481 0 l0 -129 l-481 0 l0 -149 l528 0 l0 -134 l-654 0 l0 696 ZM1703 -88 q99 3 166 69 q66 66 69 165 l0 468 q-3 99 -69 166 q-67 66 -166 69 l-1406 0 q-99 -3 -165 -69 q-66 -67 -69 -166 l0 -468 q3 -99 69 -165 q66 -66 165 -69 l1406 0 Z" /><glyph glyph-name="" unicode="&#xe0d3;" d="M1704 169 l0 -135 l-636 0 l0 118 l415 444 l-399 0 l0 134 l605 0 l0 -113 l-420 -448 l435 0 ZM681 142 q93 1 144 59 q50 57 51 166 q-1 109 -51 167 q-51 58 -144 59 l-134 0 q-94 -1 -144 -59 q-50 -58 -50 -167 q0 -109 50 -167 q50 -58 144 -58 l134 0 ZM704 726 q159 -5 229 -109 q70 -104 68 -251 q2 -146 -68 -247 q-70 -102 -229 -106 l-181 0 q-160 4 -229 105 q-69 101 -67 248 q-2 147 67 251 q69 104 229 109 l181 0 ZM1703 -88 q99 3 166 69 q66 66 69 165 l0 468 q-3 99 -69 166 q-67 66 -166 69 l-1406 0 q-99 -3 -165 -69 q-66 -67 -69 -166 l0 -468 q3 -99 69 -165 q66 -66 165 -69 l1406 0 Z" /><glyph glyph-name="" unicode="&#xe0d4;" d="M1722 171 l0 -135 l-636 0 l0 118 l414 444 l-399 0 l0 134 l606 0 l0 -113 l-421 -448 l436 0 ZM762 449 q124 -1 178 -55 q53 -54 52 -147 q1 -100 -52 -155 q-54 -55 -179 -56 l-287 0 q-95 1 -143 43 q-47 43 -64 115 l117 62 q12 -45 36 -66 q24 -21 77 -21 l224 0 q77 -1 111 14 q34 16 33 63 q1 46 -33 60 q-34 14 -111 13 l-218 0 q-124 1 -178 54 q-54 54 -53 147 q-1 101 53 156 q54 55 178 56 l258 0 q115 0 153 -43 q37 -43 57 -128 l-120 -49 q-12 45 -36 66 q-24 20 -77 20 l-194 0 q-77 1 -111 -14 q-34 -15 -33 -62 q-1 -47 33 -60 q34 -14 111 -13 l218 0 ZM1703 -88 q99 3 166 69 q66 66 69 165 l0 468 q-3 99 -69 166 q-67 66 -166 69 l-1406 0 q-99 -3 -165 -69 q-66 -67 -69 -166 l0 -468 q3 -99 69 -165 q66 -66 165 -69 l1406 0 Z" /><glyph glyph-name="" unicode="&#xe0d5;" d="M300 732 l654 0 l0 -134 l-528 0 l0 -149 l481 0 l0 -130 l-481 0 l0 -148 l528 0 l0 -135 l-654 0 l0 696 ZM1700 171 l0 -135 l-636 0 l0 118 l414 444 l-399 0 l0 134 l606 0 l0 -113 l-421 -448 l436 0 ZM1703 -88 q99 3 166 69 q66 66 69 165 l0 468 q-3 99 -69 166 q-67 66 -166 69 l-1406 0 q-99 -3 -165 -69 q-66 -67 -69 -166 l0 -468 q3 -99 69 -165 q66 -66 165 -69 l1406 0 Z" /><glyph glyph-name="" unicode="&#xe0d6;" d="M1736 162 l0 -134 l-629 0 l0 696 l125 0 l0 -562 l504 0 ZM873 724 l125 0 l0 -696 l-125 0 l0 284 l-428 0 l0 -284 l-126 0 l0 696 l126 0 l0 -278 l428 0 l0 278 ZM1703 -88 q99 3 166 69 q66 66 69 165 l0 468 q-3 99 -69 166 q-67 66 -166 69 l-1406 0 q-99 -3 -165 -69 q-66 -67 -69 -166 l0 -468 q3 -99 69 -165 q66 -66 165 -69 l1406 0 Z" /><glyph glyph-name="" unicode="&#xe0d7;" d="M1558 440 q124 -1 178 -54 q53 -54 52 -147 q1 -100 -52 -155 q-54 -55 -179 -56 l-287 0 q-95 1 -143 43 q-47 43 -64 115 l117 62 q12 -45 36 -66 q24 -21 77 -21 l224 0 q77 -1 111 14 q34 16 33 63 q1 46 -33 60 q-34 14 -111 13 l-218 0 q-124 1 -178 54 q-54 54 -53 147 q-1 101 53 156 q54 55 178 56 l258 0 q115 0 153 -43 q38 -43 58 -128 l-121 -49 q-12 45 -36 66 q-24 20 -77 20 l-194 0 q-77 1 -111 -14 q-34 -15 -33 -62 q-1 -47 33 -61 q34 -14 111 -13 l218 0 ZM842 724 l126 0 l0 -696 l-126 0 l0 284 l-428 0 l0 -284 l-125 0 l0 696 l125 0 l0 -278 l428 0 l0 278 ZM1703 -88 q99 3 166 69 q66 66 69 165 l0 468 q-3 99 -69 166 q-67 66 -166 69 l-1406 0 q-99 -3 -165 -69 q-66 -67 -69 -166 l0 -468 q3 -99 69 -165 q66 -66 165 -69 l1406 0 Z" /><glyph glyph-name="" unicode="&#xe0d8;" d="M828 724 l125 0 l0 -696 l-125 0 l0 284 l-428 0 l0 -284 l-126 0 l0 696 l126 0 l0 -278 l428 0 l0 278 ZM1198 589 l0 -149 l481 0 l0 -129 l-481 0 l0 -149 l528 0 l0 -134 l-654 0 l0 696 l654 0 l0 -135 l-528 0 ZM1703 -88 q99 3 166 69 q66 66 69 165 l0 468 q-3 99 -69 166 q-67 66 -166 69 l-1406 0 q-99 -3 -165 -69 q-66 -67 -69 -166 l0 -468 q3 -99 69 -165 q66 -66 165 -69 l1406 0 Z" /><glyph glyph-name="" unicode="&#xe0d9;" d="M1102 510 q54 -99 138 -182 q84 -84 188 -136 q-22 -18 -41 -39 q-20 -22 -33 -43 q-96 54 -173 134 q-78 79 -134 174 l0 -189 l148 0 l10 0 l0 -10 l0 -86 l-158 0 l0 -150 l-102 0 l0 150 l-162 0 l0 82 l0 14 l14 0 l148 0 l0 189 q-56 -95 -133 -174 q-77 -80 -172 -136 q-14 19 -32 40 q-19 20 -39 38 q101 52 184 138 q82 85 137 186 l-284 0 l0 96 l339 0 l0 173 l107 -7 q-1 -11 -2 -15 q-1 -4 -3 -9 l0 -142 l341 0 l0 -96 l-286 0 ZM1938 614 q-3 99 -69 166 q-67 66 -166 69 l-1406 0 q-99 -3 -165 -69 q-66 -67 -69 -166 l0 -468 q3 -99 69 -165 q66 -66 165 -69 l1406 0 q99 3 166 69 q66 66 69 165 l0 468 Z" /><glyph glyph-name="" unicode="&#xe0da;" d="M874 371 l0 109 l-96 0 l0 -28 q1 -37 -2 -81 l98 0 ZM1204 357 q13 -33 29 -62 q15 -29 33 -55 q16 26 30 56 q14 29 25 61 l-117 0 ZM1116 357 l0 -275 q26 16 50 37 q25 21 47 47 q-28 40 -52 86 q-24 45 -44 100 l21 5 l-22 0 ZM874 570 l0 105 l-96 0 l0 -105 l96 0 ZM966 95 q1 -64 -37 -82 q-39 -18 -130 -14 q-2 19 -9 43 q-7 25 -19 49 q24 -1 39 -2 q15 0 25 0 q16 0 25 0 q9 1 12 2 q2 1 2 2 q0 2 0 4 l0 183 l-103 0 q-6 -74 -21 -148 q-16 -74 -48 -139 q-16 12 -38 24 q-21 12 -42 20 q44 95 55 207 q12 112 10 208 l0 312 l279 0 l0 -669 ZM1327 165 q30 -29 66 -53 q36 -25 82 -45 q-20 -17 -37 -36 q-16 -19 -27 -37 q-41 20 -75 46 q-35 25 -64 55 q-27 -29 -58 -55 q-32 -25 -70 -46 q-7 11 -14 21 q-7 9 -14 17 l0 -34 l-94 0 l0 760 l390 0 l0 -195 q1 -60 -41 -75 q-42 -15 -143 -13 q-6 41 -31 87 q29 -1 49 -1 q20 -1 35 -1 q25 -1 31 -1 q7 -1 6 6 l0 103 l-202 0 l0 -222 l250 0 l15 3 l59 -22 q-2 -8 -4 -11 q-2 -4 -3 -5 q-1 -3 -3 -4 l-1 -1 q-16 -68 -42 -129 q-25 -60 -60 -112 l0 0 ZM1938 614 q-3 99 -69 166 q-67 66 -166 69 l-1406 0 q-99 -3 -165 -69 q-66 -67 -69 -166 l0 -468 q3 -99 69 -165 q66 -66 165 -69 l1406 0 q99 3 166 69 q66 66 69 165 l0 468 Z" /><glyph glyph-name="" unicode="&#xe0db;" d="M1083 180 q62 -37 143 -63 q81 -26 188 -41 q-22 -23 -39 -47 q-16 -23 -27 -44 q-110 17 -196 50 q-87 32 -154 79 q-70 -46 -159 -79 q-89 -32 -198 -54 q-8 19 -22 43 q-14 24 -30 46 q104 19 185 46 q81 27 144 64 q-55 55 -97 125 q-42 71 -74 160 l94 25 q27 -79 66 -141 q40 -62 93 -109 q54 47 93 109 q40 62 66 146 l108 -28 q-3 -8 -4 -11 q-2 -2 -3 -3 q-1 -1 -1 -1 q0 -1 -1 -1 l-2 -2 q-1 -1 -2 -2 q-1 -1 -2 -3 q-29 -82 -71 -147 q-43 -65 -98 -117 l0 0 ZM1391 580 l-192 0 l0 -83 l-98 0 l0 83 l-207 0 l0 -83 l-97 0 l0 83 l-188 0 l0 93 l188 0 l0 107 l101 -6 q-1 -7 -1 -10 q0 -3 -1 -4 q0 -1 0 -1 q0 -1 -1 -2 q0 -1 0 -2 q-1 -1 -1 -4 l0 -78 l207 0 l0 107 l103 -7 q-1 -9 -1 -13 q-1 -3 -2 -5 q0 -1 -1 -2 q0 -1 -1 -3 l0 -77 l192 0 l0 -93 ZM1938 614 q-3 99 -69 166 q-67 66 -166 69 l-1406 0 q-99 -3 -165 -69 q-66 -67 -69 -166 l0 -468 q3 -99 69 -165 q66 -66 165 -69 l1406 0 q99 3 166 69 q66 66 69 165 l0 468 Z" /><glyph glyph-name="" unicode="&#xe05b;" d="M759 880 l-513 0 q-49 -1 -82 -34 q-33 -33 -34 -82 l0 -559 q0 -27 11 -50 q12 -24 32 -41 l256 -207 q33 -26 74 -26 q40 0 73 26 l256 207 q20 17 32 41 q11 23 11 50 l0 559 q-1 49 -34 82 q-33 33 -82 34 l0 0 ZM663 455 l107 -107 q12 -13 12 -29 q0 -16 -12 -28 l-74 -75 q-13 -12 -29 -12 q-16 0 -28 12 l-107 107 q-13 12 -29 12 q-16 0 -29 -12 l-107 -107 q-13 -12 -29 -12 q-16 0 -29 12 l-74 75 q-12 12 -12 28 q0 16 12 29 l107 107 q12 13 12 29 q0 16 -12 29 l-107 107 q-12 13 -12 29 q0 16 12 29 l74 74 q13 12 29 12 q16 0 29 -12 l107 -107 q13 -12 29 -12 q16 0 29 12 l107 107 q12 12 28 12 q16 0 29 -12 l74 -74 q12 -13 12 -29 q0 -16 -12 -29 l-107 -107 q-12 -13 -12 -29 q0 -16 12 -29 l0 0 Z" /><glyph glyph-name="" unicode="&#xe05c;" d="M503 156 q61 2 101 42 q40 40 42 101 q-2 61 -42 102 q-40 40 -101 42 q-61 -2 -102 -42 q-40 -41 -42 -102 q2 -61 42 -101 q41 -40 102 -42 l0 0 ZM503 579 q119 -3 197 -82 q79 -79 82 -198 q-3 -118 -82 -197 q-78 -79 -197 -82 q-119 3 -198 82 q-79 79 -82 197 q3 119 82 198 q79 79 198 82 l0 0 ZM759 -119 q49 1 82 34 q33 33 34 82 l0 558 q0 27 -11 50 q-12 24 -32 41 l-256 208 q-33 26 -73 26 q-41 0 -74 -26 l-256 -208 q-20 -17 -32 -41 q-11 -23 -11 -50 l0 -558 q1 -49 34 -82 q33 -33 82 -34 l513 0 Z" /><glyph glyph-name="" unicode="&#xe05d;" d="M970 510 q-24 61 -80 90 q-55 29 -119 14 q-50 -14 -82 -51 q-31 -37 -40 -84 q-2 -11 -9 -19 q-7 -8 -18 -12 l-25 -8 q-17 -5 -31 5 q-13 10 -14 28 l0 26 q0 11 6 21 q5 10 15 15 q43 22 68 64 q24 41 22 93 q-5 65 -50 109 q-45 44 -110 49 q-73 0 -122 -47 q-49 -48 -51 -120 q1 -49 25 -88 q24 -39 65 -60 q10 -5 15 -15 q6 -10 6 -21 l0 -26 q-1 -18 -14 -28 q-14 -10 -31 -5 l-25 8 q-11 4 -18 12 q-7 8 -9 19 q-8 47 -40 84 q-32 37 -82 51 q-64 15 -119 -14 q-56 -29 -80 -90 q-23 -69 7 -131 q29 -61 98 -86 q47 -14 91 -3 q45 11 77 44 q8 8 19 10 q11 2 22 -1 l25 -9 q17 -6 22 -21 q5 -16 -5 -31 l-16 -22 q-7 -9 -17 -13 q-11 -4 -22 -3 q-47 7 -91 -13 q-44 -19 -73 -62 q-34 -55 -24 -117 q10 -62 61 -103 q59 -44 127 -34 q67 10 111 67 q28 39 32 84 q3 45 -17 86 q-5 11 -4 22 q0 11 7 21 l16 21 q11 14 28 14 q16 0 27 -14 l16 -21 q7 -10 8 -21 q0 -11 -5 -22 q-20 -43 -16 -90 q5 -48 36 -87 q43 -50 105 -59 q62 -10 117 25 q60 42 72 109 q12 67 -29 127 q-29 39 -71 56 q-42 17 -88 11 q-11 -1 -22 3 q-10 4 -17 13 l-16 22 q-10 15 -5 31 q5 15 22 21 l25 9 q11 3 22 1 q11 -2 19 -10 q33 -33 77 -44 q45 -11 92 3 q68 25 98 86 q30 62 6 131 l0 0 Z" /><glyph glyph-name="" unicode="&#xe05e;" d="M448 129 q-122 3 -203 80 q-81 76 -84 191 q3 115 84 192 q81 76 203 79 q85 -1 152 -41 q68 -41 104 -108 l129 60 q-55 102 -156 163 q-101 61 -229 62 q-183 -4 -304 -119 q-121 -115 -126 -288 q5 -172 126 -286 q121 -115 304 -119 q128 1 229 62 q101 60 156 162 l-129 60 q-36 -68 -104 -108 q-67 -41 -152 -42 l0 0 ZM448 536 q-61 -1 -101 -40 q-40 -38 -42 -96 q2 -57 42 -95 q40 -38 101 -40 q43 0 76 21 q34 20 52 54 l-128 60 l128 61 q-18 34 -52 54 q-33 20 -76 21 l0 0 ZM663 400 l287 136 q26 -53 32 -93 q5 -41 4 -43 q1 -2 -4 -42 q-6 -40 -32 -93 l-287 135 Z" /><glyph glyph-name="" unicode="&#xe05f;" d="M887 740 l-571 136 q-60 13 -110 -18 q-50 -31 -66 -91 l-136 -571 q-12 -60 18 -110 q31 -50 91 -66 l571 -135 q61 -13 111 18 q50 31 65 91 l2 5 q-33 4 -64 13 q-80 24 -146 66 q-66 41 -123 95 q-16 16 -32 32 q-15 16 -31 33 q-3 3 -6 6 q-2 3 -6 6 q-25 -22 -50 -44 q-25 -22 -50 -43 q-19 -16 -38 -31 q-20 -15 -41 -29 q-29 -18 -52 -13 q-22 5 -41 32 q-12 18 0 33 q16 23 33 46 q17 23 36 44 q26 28 52 54 q27 26 55 52 q8 7 9 13 q1 6 -4 15 q-35 56 -64 114 q-29 58 -52 118 q-4 10 -7 20 q-2 10 -4 20 q-5 34 14 60 q19 26 57 36 q17 4 29 -2 q12 -6 19 -23 q42 -102 85 -203 q6 -14 13 -28 q7 -13 15 -28 q17 16 33 32 q15 15 31 30 q78 73 156 146 q13 12 27 13 q14 2 29 -6 q11 -5 23 -12 q11 -7 20 -15 q15 -14 16 -29 q1 -14 -12 -30 q-22 -27 -44 -54 q-23 -26 -48 -52 q-35 -36 -71 -71 q-36 -35 -72 -69 q-5 -5 -7 -10 q-1 -6 4 -13 q59 -84 133 -155 q73 -71 165 -127 q9 -5 18 -11 l127 534 q13 61 -18 111 q-31 50 -91 65 l0 0 Z" /><glyph glyph-name="" unicode="&#xe03b;" d="M727 607 l0 228 l-454 0 l0 -228 l-228 0 l0 -454 l228 0 l0 -227 l454 0 l0 227 l228 0 l0 454 l-228 0 ZM864 244 l-228 0 l0 -228 l-272 0 l0 228 l-228 0 l0 272 l228 0 l0 228 l272 0 l0 -228 l228 0 l0 -272 Z" /><glyph glyph-name="" unicode="&#xe04e;" d="M960 268 l0 247 l-331 0 l0 325 l-246 0 l0 -325 l-343 0 l0 -247 l343 0 l0 -347 l246 0 l0 347 l331 0 Z" /><glyph glyph-name="" unicode="&#xe03a;" d="M826 355 q-63 -2 -105 -43 q-41 -42 -43 -105 q2 -63 43 -105 q42 -42 105 -44 q63 2 105 44 q42 42 44 105 q-2 63 -44 105 q-42 41 -105 43 l0 0 ZM201 355 q-63 -2 -105 -43 q-42 -42 -44 -105 q2 -63 44 -105 q42 -42 105 -44 q63 2 105 44 q41 42 43 105 q-2 63 -43 105 q-42 41 -105 43 l0 0 ZM201 702 q-63 -2 -105 -44 q-42 -42 -44 -105 q2 -63 44 -105 q42 -41 105 -43 q63 2 105 43 q41 42 43 105 q-2 63 -43 105 q-42 42 -105 44 l0 0 ZM826 702 q-63 -2 -105 -44 q-41 -42 -43 -105 q2 -63 43 -105 q42 -41 105 -43 q63 2 105 43 q42 42 44 105 q-2 63 -44 105 q-42 42 -105 44 l0 0 ZM508 178 q-63 -2 -105 -49 q-41 -46 -43 -110 q2 -62 43 -99 q42 -37 105 -38 q63 2 105 44 q42 42 44 104 q-2 63 -44 105 q-42 41 -105 43 l0 0 ZM508 879 q-63 -2 -105 -44 q-41 -42 -43 -105 q2 -63 43 -105 q42 -41 105 -43 q63 2 105 43 q42 42 44 105 q-2 63 -44 105 q-42 42 -105 44 l0 0 Z" /><glyph glyph-name="" unicode="&#xe039;" d="M878 531 q8 2 -66 89 q-74 86 -329 230 l72 -153 l-435 0 l0 -188 l437 -280 l-437 0 q-8 -2 68 -88 q76 -87 332 -230 l-72 152 l430 0 l0 188 l-430 280 l430 0 Z" /><glyph glyph-name="" unicode="&#xe02a;" d="M677 844 l0 -927 l290 0 l0 4 q-87 72 -144 189 q-56 116 -58 270 q2 154 58 271 q57 116 144 189 l0 4 l-290 0 Z" /><glyph glyph-name="" unicode="&#xe02b;" d="M323 844 l-290 0 l0 -4 q87 -73 144 -189 q56 -117 58 -271 q-2 -154 -58 -270 q-57 -117 -144 -189 l0 -4 l290 0 l0 927 Z" /><glyph glyph-name="" unicode="&#xe038;" d="M40 469 l0 -178 l151 0 q-28 46 -49 91 q-21 44 -37 87 l-65 0 ZM451 -119 l150 0 q-37 20 -75 46 q-37 26 -75 58 l0 -104 ZM885 291 l155 0 l0 178 l-155 0 q-25 96 -93 163 q-68 68 -163 93 l0 155 l-178 0 l0 -155 q-71 -18 -128 -62 q-56 -43 -92 -105 q-14 61 -8 107 q7 46 37 70 q20 15 46 18 q25 4 57 -3 q17 8 34 15 l0 54 q-63 26 -117 25 q-54 0 -92 -29 q-74 -63 -54 -204 q20 -140 123 -308 q0 -1 1 -1 q0 0 0 -1 q10 -16 21 -32 q11 -16 23 -32 q2 -3 3 -6 q12 -15 24 -31 q17 -22 36 -43 q18 -21 36 -41 q0 -1 1 -1 q0 0 0 0 q18 -19 37 -37 q0 -1 0 -1 q10 -9 19 -17 q9 -9 19 -17 q0 -1 0 -1 q123 -106 234 -141 q112 -35 181 15 q51 42 58 123 q6 81 -30 187 q-19 -48 -51 -91 q5 -45 -4 -78 q-9 -34 -33 -53 q-34 -25 -87 -17 q-52 8 -116 44 l0 4 q96 25 163 93 q68 67 93 163 l0 0 ZM307 469 q19 50 57 87 q37 38 87 57 l0 -90 l178 0 l0 90 q50 -19 87 -57 q38 -37 57 -87 l-90 0 l0 -178 l90 0 q-19 -50 -57 -87 q-37 -38 -87 -57 l0 90 l-178 0 l0 -59 q-31 33 -60 71 q-16 21 -31 42 l37 0 l0 178 l-90 0 Z" /></font>
</defs>
</svg>
